<svg width="60" height="60" viewBox="0 0 60 60" fill="none" xmlns="http://www.w3.org/2000/svg">
<path d="M29.9661 32.9424C24.9081 32.9424 20.7695 28.8038 20.7695 23.7458V20.4476C20.7695 15.3896 24.9081 11.251 29.9661 11.251C35.0241 11.251 39.1627 15.3896 39.1627 20.4476V23.7458C39.1627 28.8045 35.0241 32.9424 29.9661 32.9424Z" fill="url(#paint0_linear_575_2602)"/>
<path d="M35.1449 34.2063C33.5893 35.0118 31.8309 35.4754 29.9664 35.4754C28.1019 35.4754 26.3435 35.0118 24.7879 34.2063C17.8351 35.2442 12.457 41.2776 12.457 48.507V58.0197C12.457 58.8904 13.1696 59.6023 14.0396 59.6023H45.8919C46.7625 59.6023 47.4745 58.8897 47.4745 58.0197V48.507C47.4758 41.2776 42.0977 35.2442 35.1449 34.2063Z" fill="url(#paint1_linear_575_2602)"/>
<path d="M47.2723 23.2842C45.7167 24.0896 43.9583 24.5533 42.0938 24.5533C42.0912 24.5533 42.0892 24.5533 42.0866 24.5533C41.8929 27.459 40.6811 30.0861 38.7969 32.081C45.6166 34.5053 50.4395 41.0702 50.4395 48.507V48.6802H58.0206C58.8912 48.6802 59.6038 47.9676 59.6038 47.097V37.5849C59.6032 30.3548 54.2251 24.3215 47.2723 23.2842Z" fill="url(#paint2_linear_575_2602)"/>
<path d="M42.0945 0.32959C37.325 0.32959 33.3767 4.01047 32.9414 8.672C38.2102 10.0043 42.1268 14.7712 42.1268 20.4483V22.0191C47.1697 22.0013 51.2905 17.8712 51.2905 12.8244V9.52619C51.2911 4.46819 47.1525 0.32959 42.0945 0.32959Z" fill="url(#paint3_linear_575_2602)"/>
<path d="M9.49441 48.507C9.49441 41.0702 14.3166 34.5046 21.1364 32.081C19.2521 30.0861 18.0397 27.4583 17.8467 24.5533C17.8441 24.5533 17.8421 24.5533 17.8395 24.5533C15.975 24.5533 14.2172 24.0896 12.6609 23.2842C5.70815 24.3215 0.330078 30.3548 0.330078 37.5849V47.0976C0.330078 47.9683 1.04268 48.6809 1.91334 48.6809H9.49441V48.507Z" fill="url(#paint4_linear_575_2602)"/>
<path d="M17.8063 22.0184V20.4477C17.8063 14.7706 21.7222 10.0037 26.9917 8.67134C26.557 4.01047 22.6087 0.32959 17.8392 0.32959C12.7812 0.32959 8.64258 4.46819 8.64258 9.52619V12.8244C8.64258 17.8712 12.7634 22.0006 17.8063 22.0184Z" fill="url(#paint5_linear_575_2602)"/>
<defs>
<linearGradient id="paint0_linear_575_2602" x1="29.9661" y1="11.251" x2="29.9661" y2="32.9424" gradientUnits="userSpaceOnUse">
<stop offset="0.9999" stop-color="#54157E"/>
<stop offset="1" stop-color="#9C0AE6"/>
</linearGradient>
<linearGradient id="paint1_linear_575_2602" x1="29.9657" y1="34.2063" x2="29.9657" y2="59.6023" gradientUnits="userSpaceOnUse">
<stop offset="0.9999" stop-color="#54157E"/>
<stop offset="1" stop-color="#9C0AE6"/>
</linearGradient>
<linearGradient id="paint2_linear_575_2602" x1="49.2004" y1="23.2842" x2="49.2004" y2="48.6802" gradientUnits="userSpaceOnUse">
<stop offset="0.9999" stop-color="#54157E"/>
<stop offset="1" stop-color="#9C0AE6"/>
</linearGradient>
<linearGradient id="paint3_linear_575_2602" x1="42.1159" y1="0.32959" x2="42.1159" y2="22.0191" gradientUnits="userSpaceOnUse">
<stop offset="0.9999" stop-color="#54157E"/>
<stop offset="1" stop-color="#9C0AE6"/>
</linearGradient>
<linearGradient id="paint4_linear_575_2602" x1="10.7332" y1="23.2842" x2="10.7332" y2="48.6809" gradientUnits="userSpaceOnUse">
<stop offset="0.9999" stop-color="#54157E"/>
<stop offset="1" stop-color="#9C0AE6"/>
</linearGradient>
<linearGradient id="paint5_linear_575_2602" x1="17.8171" y1="0.32959" x2="17.8171" y2="22.0184" gradientUnits="userSpaceOnUse">
<stop offset="0.9999" stop-color="#54157E"/>
<stop offset="1" stop-color="#9C0AE6"/>
</linearGradient>
</defs>
</svg>
