<svg width="162" height="123" viewBox="0 0 162 123" fill="none" xmlns="http://www.w3.org/2000/svg">
<path fill-rule="evenodd" clip-rule="evenodd" d="M130.097 44.4567C128.217 46.6977 126.325 48.9277 124.458 51.1799C116.449 60.8422 107.749 69.8495 98.2041 77.9848C87.4744 87.129 76.0819 95.3792 63.6434 102.104C63.1169 102.388 62.5937 102.682 62.0526 102.939C57.5704 105.077 53.088 107.218 48.5967 109.339C43.2114 111.884 37.517 113.533 31.7985 115.111C26.8935 116.466 21.9949 117.852 17.071 119.141C8.29141 121.441 -0.614245 122.935 -9.72124 122.945C-10.9154 122.947 -12.1208 122.866 -13.3007 122.691C-14.56 122.507 -15.0531 121.875 -15.1504 120.643C-15.4054 117.365 -14.5948 116.308 -11.1516 116.227C-4.41109 116.07 2.214 115.049 8.80012 113.766C13.3827 112.873 17.9182 111.737 22.4615 110.656C35.0393 107.669 47.0516 103.064 58.7857 97.7244C63.9152 95.3892 68.6034 92.238 73.293 89.1196C81.0828 83.9406 88.607 78.3958 95.7101 72.3194C100.029 68.6241 104.12 64.6479 108.164 60.6448C114.684 54.1941 120.673 47.2543 126.568 40.2331C126.72 40.05 126.866 39.8636 127.097 39.5824C126.335 39.2965 125.792 39.745 125.247 39.9492C115.915 43.4393 106.954 47.7065 98.3843 52.7996C96.8932 53.6853 95.3627 54.5128 93.8099 55.2872C93.0692 55.6563 92.2532 55.9698 91.4423 56.0834C88.9042 56.4356 87.1687 54.2043 88.1217 51.8209C88.402 51.1147 88.8383 50.4018 89.3831 49.8811C91.2403 48.1051 93.0367 46.2158 95.1103 44.7205C105.456 37.2585 115.831 29.8355 126.293 22.5395C134.496 16.8209 142.852 11.3256 151.116 5.69414C152.946 4.44679 154.624 2.97717 156.463 1.74696C157.334 1.1651 158.39 0.795072 159.416 0.529459C160.59 0.226718 161.239 0.826264 161.179 2.07537C161.147 2.77886 161.014 3.51733 160.738 4.15939C159.704 6.58308 158.606 8.97614 157.508 11.3707C155.011 16.8124 152.438 22.2204 150.013 27.6947C146.691 35.1946 143.541 42.7724 140.2 50.2642C136.83 57.8209 132.925 65.1006 128.457 72.0702C128.137 72.5698 127.761 73.0481 127.34 73.465C126.598 74.2087 125.672 74.4186 124.69 74.0357C123.642 73.6256 123.071 72.7859 123.062 71.672C123.055 70.9622 123.164 70.2314 123.349 69.5444C124.893 63.8197 126.443 58.0955 128.04 52.3861C128.763 49.7998 129.596 47.2453 130.379 44.6743C130.286 44.5999 130.193 44.5291 130.097 44.4567ZM109.139 41.1203C109.519 40.9874 109.916 40.8873 110.279 40.7159C117.325 37.3512 124.714 34.9265 132.161 32.6468C132.797 32.4515 133.359 31.9529 133.902 31.5271C134.743 30.8737 135.478 30.0669 136.369 29.5018C137.133 29.0197 138.008 29.2035 138.697 29.8279C139.392 30.4586 139.578 31.2952 139.23 32.1274C138.885 32.9449 138.341 33.6773 137.919 34.4646C137.383 35.4625 136.696 36.427 136.4 37.4953C135.556 40.5493 134.826 43.6384 134.143 46.7337C133.623 49.0861 133.24 51.4685 132.796 53.8369C132.928 53.8813 133.06 53.9258 133.192 53.9681C134.295 51.7969 135.478 49.6619 136.487 47.4475C138.62 42.7685 140.579 38.0072 142.762 33.3532C146.496 25.3861 150.347 17.4747 154.144 9.53656C154.331 9.14432 154.466 8.72682 154.624 8.32068C138.857 18.5028 123.874 29.6145 109.139 41.1203Z" fill="#FFBF00"/>
</svg>
