<svg width="123" height="103" viewBox="0 0 123 103" fill="none" xmlns="http://www.w3.org/2000/svg">
<path d="M66.3934 85.9737H88.3034C90.0634 84.2237 91.9934 82.4037 93.9534 80.5537C98.0634 76.6637 102.353 72.6037 106.763 67.5237C111.803 61.7136 112.343 59.7037 113.873 54.0137C114.163 52.9437 114.483 51.7437 114.903 50.2537L117.523 41.0437L117.553 40.9437C118.953 36.8437 119.063 34.1337 118.483 32.5737C118.303 32.0937 118.073 31.7737 117.803 31.6037C117.593 31.4637 117.313 31.4137 117.023 31.4437C116.343 31.5137 115.573 31.9437 114.873 32.7137L107.093 51.2437C107.023 51.4137 106.923 51.5737 106.813 51.7137C106.353 52.5437 105.733 53.3537 104.933 54.1237L91.1234 69.5037C90.3734 70.3437 89.0834 70.4137 88.2534 69.6637C87.4134 68.9137 87.3434 67.6237 88.0934 66.7937L101.903 51.4037C101.963 51.3337 102.023 51.2637 102.093 51.2037C103.523 49.8437 103.973 48.3737 103.723 47.3037C103.643 46.9737 103.503 46.6937 103.303 46.5037C103.113 46.3337 102.863 46.2137 102.553 46.1837C101.323 46.0537 99.5134 46.9637 97.3034 49.5737C97.2434 49.6437 97.1734 49.7137 97.1034 49.7837L91.7534 54.5037L91.7234 54.5337C85.9334 60.0137 83.4434 61.3137 78.9034 63.6837C77.9534 64.1837 76.9134 64.7237 75.6234 65.4237C75.1134 65.7037 74.6134 66.0437 74.1234 66.4137C73.6034 66.8137 73.1034 67.2237 72.6334 67.6237C70.2334 69.6437 68.9734 71.2837 68.2534 73.0937C67.5034 74.9736 67.2334 77.2637 66.8634 80.4037C66.7134 81.6737 66.6034 82.9237 66.5134 84.1737C66.4534 84.7837 66.4234 85.3837 66.3934 85.9737ZM61.3034 8.75366C65.3834 4.50366 68.2334 0.833655 74.5134 0.103655C86.2934 -1.24634 97.1334 10.8237 91.1834 22.7037C89.4834 26.0837 86.0434 30.1137 82.2234 34.0637C78.0334 38.4037 73.4034 42.6437 70.1534 45.8637L61.3034 54.6437L53.9934 47.6037C45.1934 39.1237 30.8434 28.4637 30.3734 15.2437C30.0434 5.98365 37.3434 0.0536553 45.7534 0.163655C53.2634 0.253655 56.4134 3.99366 61.3034 8.75366ZM56.4534 85.9737H34.5334C32.7734 84.2237 30.8434 82.4037 28.8834 80.5537C24.7734 76.6637 20.4834 72.6037 16.0734 67.5237C11.0334 61.7136 10.4934 59.7037 8.96343 54.0137C8.67343 52.9437 8.35343 51.7437 7.93343 50.2537L5.31343 41.0437L5.28343 40.9437C3.88343 36.8437 3.77343 34.1337 4.35343 32.5737C4.53343 32.0937 4.76343 31.7737 5.03343 31.6037C5.24343 31.4637 5.52343 31.4137 5.81343 31.4437C6.51343 31.5037 7.28343 31.9437 7.98343 32.7037L15.7634 51.2337C15.8334 51.4037 15.9334 51.5637 16.0434 51.7037C16.5034 52.5337 17.1234 53.3437 17.9234 54.1137L31.7234 69.5037C32.4734 70.3437 33.7634 70.4137 34.5934 69.6637C35.4334 68.9137 35.5034 67.6237 34.7534 66.7937L20.9434 51.3937C20.8834 51.3237 20.8234 51.2537 20.7534 51.1937C19.3234 49.8337 18.8734 48.3637 19.1234 47.2937C19.2034 46.9637 19.3434 46.6837 19.5434 46.4937C19.7334 46.3237 19.9834 46.2037 20.2934 46.1737C21.5234 46.0437 23.3434 46.9537 25.5434 49.5637C25.6034 49.6337 25.6734 49.7037 25.7434 49.7737L31.0934 54.4937L31.1234 54.5237C36.9134 60.0037 39.4034 61.3037 43.9434 63.6737C44.8934 64.1737 45.9334 64.7137 47.2234 65.4137C47.7334 65.6937 48.2334 66.0337 48.7234 66.4037C49.2434 66.8037 49.7434 67.2137 50.2134 67.6137C52.6134 69.6337 53.8734 71.2737 54.5934 73.0837C55.3434 74.9637 55.6134 77.2537 55.9834 80.3937C56.1334 81.6637 56.2434 82.9137 56.3334 84.1637C56.3934 84.7837 56.4234 85.3837 56.4534 85.9737ZM29.4334 86.6737C29.1234 87.0337 28.9334 87.5037 28.9334 88.0137V100.154C28.9334 101.284 29.8534 102.194 30.9734 102.194H58.5534C59.6834 102.194 60.5934 101.284 60.5934 100.154V87.9037C60.5934 86.6037 60.5134 85.2037 60.4234 83.9037C60.3334 82.5737 60.2134 81.2537 60.0634 79.9437C59.6634 76.5137 59.3634 74.0037 58.4034 71.5937C57.4134 69.1236 55.8234 66.9937 52.8734 64.5037C52.3334 64.0437 51.7834 63.5837 51.2034 63.1537C50.5934 62.6937 49.9334 62.2537 49.1934 61.8437C47.9934 61.1937 46.8734 60.6037 45.8534 60.0637C41.6534 57.8637 39.3534 56.6637 33.9434 51.5437C33.9034 51.5037 33.8534 51.4637 33.8134 51.4337L28.5934 46.8237C25.4034 43.0937 22.2834 41.8537 19.8934 42.1137H19.8834C18.7134 42.2337 17.7134 42.6937 16.9134 43.3937L11.6434 30.8337H11.6334C11.5534 30.6537 11.4534 30.4837 11.3234 30.3237C9.86343 28.5737 8.01343 27.5537 6.24343 27.3737C5.03343 27.2537 3.86343 27.5137 2.84343 28.1737C1.87343 28.8037 1.07343 29.7837 0.573428 31.1337C-0.306572 33.4837 -0.286572 37.1337 1.43343 42.1837L4.03343 51.3337C4.41343 52.6537 4.74343 53.9237 5.05343 55.0437C6.75343 61.3937 7.35343 63.6437 13.0234 70.1637C17.5134 75.3337 21.9034 79.4937 26.1234 83.4837C27.2134 84.5537 28.3134 85.6037 29.4334 86.6737ZM33.3334 90.0537C33.6034 90.1137 33.8834 90.1137 34.1634 90.0537H56.5034V98.1137H33.0134V90.0537H33.3334ZM93.4134 86.6737C93.7234 87.0337 93.9134 87.5037 93.9134 88.0137V100.154C93.9134 101.284 93.0034 102.194 91.8734 102.194H64.3034C63.1734 102.194 62.2634 101.284 62.2634 100.154V87.9037C62.2634 87.8337 62.2634 87.7537 62.2734 87.6837C62.3034 86.3737 62.3534 85.1037 62.4334 83.9037C62.5234 82.5737 62.6434 81.2537 62.7934 79.9437C63.1934 76.5137 63.4934 74.0037 64.4534 71.5937C65.4434 69.1236 67.0334 66.9937 69.9834 64.5037C70.5234 64.0437 71.0734 63.5837 71.6534 63.1537C72.2634 62.6937 72.9234 62.2537 73.6634 61.8437C74.8634 61.1937 75.9834 60.6037 77.0034 60.0637C81.2034 57.8637 83.5034 56.6637 88.9134 51.5437C88.9534 51.5037 89.0034 51.4637 89.0434 51.4337L94.2634 46.8237C97.4534 43.0937 100.573 41.8537 102.963 42.1137H102.973C104.143 42.2337 105.143 42.6937 105.943 43.3937L111.213 30.8337H111.223C111.303 30.6537 111.403 30.4837 111.533 30.3237C112.993 28.5737 114.843 27.5537 116.613 27.3737C117.823 27.2537 118.993 27.5137 120.013 28.1737C120.983 28.8037 121.783 29.7837 122.283 31.1337C123.163 33.4837 123.143 37.1337 121.423 42.1837L118.823 51.3337C118.443 52.6537 118.113 53.9237 117.803 55.0437C116.103 61.3937 115.503 63.6437 109.833 70.1637C105.343 75.3337 100.953 79.4937 96.7334 83.4837C95.6334 84.5537 94.5334 85.6037 93.4134 86.6737ZM89.5134 90.0537C89.2434 90.1137 88.9634 90.1137 88.6834 90.0537H66.3434V98.1137H89.8334V90.0537H89.5134Z" fill="#212121"/>
</svg>
