<?xml version="1.0" encoding="UTF-8"?>
<svg width="526px" height="526px" viewBox="0 0 526 526" version="1.1" xmlns="http://www.w3.org/2000/svg" xmlns:xlink="http://www.w3.org/1999/xlink">
    <title>infographic</title>
    <defs>
        <path d="M474.641397,237.631119 C474.641397,368.749969 368.389698,475.042297 237.320965,475.042297 C106.252232,475.042297 -0.000355036252,368.749969 -0.000355036252,237.631119 C-0.000355036252,106.512268 106.252232,0.219940267 237.320965,0.219940267 C368.389698,0.219940267 474.641397,106.512268 474.641397,237.631119" id="path-1"></path>
        <filter x="-8.2%" y="-8.2%" width="116.4%" height="116.4%" filterUnits="objectBoundingBox" id="filter-2">
            <feOffset dx="0" dy="0" in="SourceAlpha" result="shadowOffsetOuter1"></feOffset>
            <feGaussianBlur stdDeviation="13" in="shadowOffsetOuter1" result="shadowBlurOuter1"></feGaussianBlur>
            <feColorMatrix values="0 0 0 0 0   0 0 0 0 0   0 0 0 0 0  0 0 0 0.1 0" type="matrix" in="shadowBlurOuter1"></feColorMatrix>
        </filter>
        <polygon id="path-3" points="0 0.0232358674 31.971712 0.0232358674 31.971712 15.9999875 0 15.9999875"></polygon>
    </defs>
    <g id="Homepage" stroke="none" stroke-width="1" fill="none" fill-rule="evenodd">
        <g transform="translate(-836.000000, -1788.000000)" id="infographic">
            <g transform="translate(862.000000, 1813.000000)">
                <g id="Group-52" transform="translate(0.000000, -0.000000)">
                    <g id="Fill-1" transform="translate(0.000000, 0.668611)">
                        <use fill="black" fill-opacity="1" filter="url(#filter-2)" xlink:href="#path-1"></use>
                        <use fill="#FFFFFF" fill-rule="evenodd" xlink:href="#path-1"></use>
                    </g>
                    <path d="M419.468586,238.29973 C419.468586,338.935943 337.918534,420.517178 237.320787,420.517178 C136.72304,420.517178 55.1729885,338.935943 55.1729885,238.29973 C55.1729885,137.663517 136.72304,56.0822819 237.320787,56.0822819 C337.918534,56.0822819 419.468586,137.663517 419.468586,238.29973" id="Fill-4" fill="#72BFE4"></path>
                    <path d="M128.567503,135.075378 C130.072856,133.505518 129.91664,131.408227 128.2959,129.855238 C126.653857,128.281826 124.563581,128.246308 123.069766,129.806402 L121.821814,131.108995 L127.320438,136.37886 L128.567503,135.075378 Z M122.22833,129.000161 C124.282215,126.854922 127.077238,126.916189 129.17994,128.930903 C131.303945,130.966038 131.414893,133.78788 129.409826,135.881619 L127.296473,138.089013 L120.114977,131.206667 L122.22833,129.000161 Z" id="Fill-6" fill="#FFFFFF"></path>
                    <path d="M136.89905,125.945504 L134.571787,123.414016 C133.689522,123.357188 132.771753,123.681283 132.154878,124.24867 C131.151013,125.171229 130.976157,126.723331 132.118486,128.008166 C133.302532,129.253931 134.862029,129.208647 135.865894,128.2852 C136.461467,127.737347 136.871534,126.83965 136.89905,125.945504 L136.89905,125.945504 Z M133.283893,122.012862 L134.141305,121.22438 L139.044356,126.558176 L138.187831,127.346658 L137.678354,126.792589 C137.614448,127.584623 137.194617,128.492088 136.462355,129.165138 C135.029784,130.481939 132.816133,130.530775 131.240659,128.815294 C129.662523,127.100701 129.89596,124.897747 131.328531,123.580059 C132.059905,122.907008 132.998976,122.564267 133.79337,122.56693 L133.283893,122.012862 Z" id="Fill-8" fill="#FFFFFF"></path>
                    <path d="M143.169877,121.742576 L143.83557,122.538162 C143.637638,122.833842 143.334082,123.179247 142.963956,123.489135 C141.536711,124.6834 140.035795,124.215461 138.915655,122.874687 L135.353754,118.612623 L135.579202,117.33134 L135.709678,117.222124 L137.022425,118.791985 L139.059445,117.088047 L139.696735,117.850779 L137.659715,119.554717 L139.789932,122.10574 C140.464501,122.91198 141.417773,123.411885 142.419863,122.573679 C142.726082,122.317955 142.97372,122.017835 143.169877,121.742576" id="Fill-10" fill="#FFFFFF"></path>
                    <path d="M148.105325,116.853722 L146.030138,114.112682 C145.157637,113.971501 144.212353,114.206803 143.543997,114.712035 C142.457586,115.536034 142.134503,117.063274 143.149907,118.451996 C144.20969,119.804314 145.767411,119.908202 146.85471,119.08509 C147.499101,118.595841 147.993489,117.740764 148.105325,116.853722 L148.105325,116.853722 Z M144.880708,112.594322 L145.809128,111.891081 L150.182287,117.667954 L149.254755,118.371195 L148.800309,117.770954 C148.661844,118.55322 148.157693,119.417176 147.364187,120.017417 C145.813566,121.193036 143.605241,121.029657 142.199297,119.172108 C140.792466,117.314558 141.233598,115.144457 142.785107,113.968838 C143.577725,113.368597 144.544311,113.116425 145.335155,113.194563 L144.880708,112.594322 Z" id="Fill-12" fill="#FFFFFF"></path>
                    <polygon id="Fill-14" fill="#FFFFFF" points="164.211545 108.580967 163.148211 109.237147 158.58777 104.17417 159.176243 111.155964 158.922392 111.313128 152.938256 107.646865 155.439486 113.998228 154.376153 114.654408 150.641171 105.276091 150.930526 105.09673 157.809353 109.212285 157.202241 101.224467 157.491596 101.045105"></polygon>
                    <path d="M169.704399,103.599324 L168.114724,100.551061 C167.276839,100.267811 166.305815,100.341509 165.562901,100.729535 C164.354891,101.359965 163.783282,102.812618 164.552823,104.349625 C165.373845,105.860882 166.891625,106.22227 168.099635,105.590951 C168.817696,105.216245 169.44611,104.455289 169.704399,103.599324 L169.704399,103.599324 Z M167.233347,98.8639936 L168.265615,98.3250201 L171.618045,104.747418 L170.584889,105.286391 L170.236954,104.619556 C169.969789,105.368081 169.329836,106.134365 168.448458,106.5952 C166.72387,107.495561 164.573238,106.967243 163.494815,104.901918 C162.41728,102.836593 163.213449,100.769491 164.938038,99.8691304 C165.819415,99.4091826 166.816179,99.3221655 167.58217,99.5308291 L167.233347,98.8639936 Z" id="Fill-16" fill="#FFFFFF"></path>
                    <path d="M177.600405,97.0300629 L179.456357,101.163377 L178.406338,101.634868 L176.550386,97.5006659 C176.050672,96.3872016 175.12669,96.1323657 174.207146,96.5452531 C173.403877,96.9057527 172.865997,97.7546138 172.763037,98.704699 L174.80627,103.253564 L173.742937,103.730383 L170.776609,97.1215197 L171.838167,96.6438134 L172.251784,97.5637089 C172.453267,96.6953133 173.102984,95.8890729 174.010101,95.481513 C175.42137,94.8475309 176.843291,95.3456597 177.600405,97.0300629" id="Fill-18" fill="#FFFFFF"></path>
                    <path d="M186.022132,96.5588385 L184.801695,93.3454197 C184.004638,92.9653857 183.031839,92.9245409 182.248984,93.2219974 C180.974404,93.7068072 180.235928,95.080435 180.819963,96.6973556 C181.456365,98.2938537 182.92089,98.8319393 184.19547,98.3471295 C184.95081,98.0594402 185.664433,97.3783979 186.022132,96.5588385 L186.022132,96.5588385 Z M184.126238,91.5660079 L185.214424,91.1531205 L187.786662,97.9253628 L186.698476,98.3373623 L186.430423,97.6341217 C186.07805,98.3462416 185.352001,99.0326115 184.422693,99.3851197 C182.60402,100.076817 180.531496,99.2989905 179.705149,97.1217861 C178.877915,94.9436938 179.911958,92.986696 181.729743,92.2949985 C182.658163,91.9416023 183.65759,91.9726799 184.39429,92.2701365 L184.126238,91.5660079 Z" id="Fill-20" fill="#FFFFFF"></path>
                    <path d="M194.82783,93.4857127 L193.907398,90.5289057 C193.106791,90.005027 192.007954,89.8709495 191.167406,90.1328889 C189.867085,90.537785 189.045177,91.8643524 189.528026,93.5132385 C190.065018,95.1461418 191.494039,95.7721325 192.795247,95.3672364 C193.635795,95.105297 194.459479,94.3585479 194.82783,93.4857127 L194.82783,93.4857127 Z M193.292298,88.5488217 L194.403561,88.2034169 L196.314544,94.3470048 C196.979349,96.5348644 195.909802,98.3995174 193.767159,99.0663529 C192.832526,99.3575939 191.654693,99.4419473 190.813257,99.2714647 L190.500825,98.2681038 C191.368889,98.429707 192.546722,98.3453537 193.455614,98.062104 C194.973394,97.5897252 195.721633,96.3608301 195.181978,94.6240389 L195.168664,94.5840821 C194.816291,95.3627967 194.00237,96.0926752 192.959451,96.4176576 C191.101724,96.9957 189.08068,96.0926752 188.389247,93.8684105 C187.697814,91.6441458 188.849907,89.7537428 190.705859,89.1757003 C191.750553,88.8507179 192.834301,88.989235 193.566563,89.4305362 L193.292298,88.5488217 Z" id="Fill-22" fill="#FFFFFF"></path>
                    <path d="M198.425856,89.9691546 L202.600194,88.9338282 C202.254034,87.8931742 201.340703,87.3302266 200.183285,87.6179159 C199.067584,87.8940621 198.407216,88.7748887 198.425856,89.9691546 M203.983061,89.5562671 L198.568758,90.8997053 C199.031192,92.5255051 200.35814,93.2207543 201.763196,92.8717978 C202.493683,92.6906601 203.396363,92.2031865 204.093122,91.6508941 L204.348748,92.6844446 C203.804655,93.199444 202.814991,93.6931331 201.934501,93.9124518 C199.632979,94.4825029 197.913716,93.212763 197.384712,91.0764033 C196.821092,88.8024145 197.974072,87.083382 199.901919,86.6038998 C201.927401,86.1022193 203.429204,87.2654077 203.904953,89.1806727 C203.941344,89.3325088 203.973297,89.455931 203.983061,89.5562671" id="Fill-24" fill="#FFFFFF"></path>
                    <path d="M215.968286,86.3389415 L216.750253,90.8016778 L215.604373,91.0032379 L214.821518,86.5405016 C214.623586,85.4075029 213.890436,84.8427794 213.009058,84.9981671 C212.254606,85.1304687 211.610216,85.8203903 211.304884,86.7100962 C211.343938,86.8477254 211.382105,86.9853545 211.40962,87.1380785 L212.191587,91.6017027 L211.04482,91.8023749 L210.262853,87.3396386 C210.064033,86.2066399 209.330883,85.6428043 208.449505,85.7981921 C207.695053,85.9304937 207.07729,86.6008808 206.770184,87.4772678 L207.632922,92.4017277 L206.486155,92.6023999 L205.23554,85.4678821 L206.381419,85.266322 L206.554499,86.2457088 C206.911311,85.4909683 207.583217,84.8827362 208.380273,84.7424433 C209.40189,84.5639694 210.303682,84.9395638 210.861089,85.7351491 C211.208137,84.8383397 212.100166,84.0907027 212.938939,83.9433063 C214.450506,83.6778152 215.665617,84.6181331 215.968286,86.3389415" id="Fill-26" fill="#FFFFFF"></path>
                    <path d="M219.232666,86.0211513 L223.511741,85.5745225 C223.312921,84.4956875 222.485686,83.8110935 221.298977,83.9345158 C220.155761,84.0543863 219.380894,84.8348768 219.232666,86.0211513 M224.795197,86.3834268 L219.245093,86.9623571 C219.476754,88.6369932 220.696303,89.5098284 222.135975,89.3597682 C222.884214,89.2816304 223.846362,88.9246825 224.613241,88.4727261 L224.72419,89.5329146 C224.11264,89.9680003 223.064395,90.3196206 222.160828,90.4137412 C219.801612,90.6596978 218.275844,89.1626477 218.047733,86.9730123 C217.804533,84.642196 219.185624,83.0980857 221.162288,82.8920859 C223.237475,82.6763189 224.565311,84.0366277 224.769457,86.0007289 C224.785433,86.1561167 224.798747,86.2822027 224.795197,86.3834268" id="Fill-28" fill="#FFFFFF"></path>
                    <path d="M232.919669,84.9801422 L233.138016,89.5050336 L231.989474,89.5600852 L231.771127,85.0351938 C231.711658,83.815178 230.946555,83.2415752 229.93914,83.2895234 C229.060425,83.332144 228.250942,83.9261692 227.808035,84.7714786 L228.047684,89.7501023 L226.88494,89.8060418 L226.537892,82.5720759 L227.698861,82.5161363 L227.747678,83.523049 C228.252717,82.7878429 229.150959,82.2755073 230.143285,82.2275591 C231.689468,82.152973 232.831797,83.1367994 232.919669,84.9801422" id="Fill-30" fill="#FFFFFF"></path>
                    <path d="M239.302688,88.4425365 L239.304463,89.4796388 C238.963629,89.5799749 238.509182,89.6510093 238.02722,89.6519012 C236.165943,89.654561 235.312081,88.335097 235.310306,86.5876507 L235.30143,81.0336484 L236.294644,80.1945545 L236.465061,80.1936666 L236.467724,82.2394573 L239.122507,82.2359056 L239.12517,83.2294993 L236.468611,83.233939 L236.474824,86.558349 C236.475712,87.6087702 236.889329,88.6032518 238.195863,88.601476 C238.592616,88.5997001 238.976055,88.5286657 239.302688,88.4425365" id="Fill-32" fill="#FFFFFF"></path>
                    <path d="M127.020343,60.3548236 C128.382795,59.5077384 128.717417,58.4306792 128.095216,57.4299821 C127.473902,56.428397 126.391042,56.2987593 125.027702,57.1458445 L123.21968,58.2699639 L125.211434,61.478943 L127.020343,60.3548236 Z M132.98584,62.532916 L131.900317,63.2077428 L130.784615,61.8944943 C129.834006,60.7961248 128.671262,60.6993405 127.646982,61.3359863 L125.825646,62.4680971 L127.847578,65.7250244 L126.786907,66.3847564 L121.543909,57.9396539 L124.41349,56.1558025 C126.415894,54.9127005 128.176874,55.1391226 129.188727,56.7675863 C129.848207,57.8286627 129.772762,58.9456787 129.041387,59.868238 C129.804715,59.778557 130.898227,60.0857808 131.842623,61.2036847 L132.98584,62.532916 Z" id="Fill-34" fill="#414042"></path>
                    <path d="M132.931786,57.3815011 L136.678306,55.2664518 C136.066756,54.3563235 135.034488,54.0570911 133.996894,54.6440129 C132.994805,55.2096243 132.594501,56.2342955 132.931786,57.3815011 M138.177446,55.4964257 L133.317888,58.2401295 C134.198378,59.6839037 135.66379,59.9982309 136.925056,59.286111 C137.57921,58.9167321 138.319461,58.2046123 138.843139,57.4853889 L139.366818,58.4132758 C138.978053,59.0552492 138.157919,59.7966708 137.366189,60.2432996 C135.300765,61.4091517 133.304574,60.644644 132.224376,58.7267151 C131.072283,56.6862519 131.724662,54.7194869 133.455464,53.741876 C135.27325,52.7172047 137.031567,53.436428 138.000816,55.1554606 C138.078036,55.2913138 138.141055,55.4023051 138.177446,55.4964257" id="Fill-36" fill="#414042"></path>
                    <path d="M145.37412,51.7122455 C144.579726,50.1867817 143.065497,49.8111873 141.837959,50.437178 C141.040902,50.8438499 140.374322,51.6944869 140.165738,52.5983997 L141.592096,55.3962672 C142.445958,55.7585426 143.544796,55.7239134 144.341852,55.3172414 C145.54365,54.7036818 146.141886,53.2501403 145.37412,51.7122455 M146.437454,51.1697203 C147.494574,53.2465886 146.679766,55.3048104 144.945414,56.1891887 C143.970839,56.6864295 142.897742,56.7397053 142.120213,56.4342574 L143.785333,59.700064 L142.748627,60.2292703 L138.198837,51.3046856 L139.236431,50.7763673 L139.642947,51.5737284 C139.852419,50.7648242 140.5261,49.9266182 141.500674,49.4302653 C143.220825,48.5512146 145.372345,49.0813088 146.437454,51.1697203" id="Fill-38" fill="#414042"></path>
                    <path d="M153.556552,47.8752335 C152.913936,46.4660885 151.314498,45.8995892 150.008852,46.4945023 C148.729834,47.0787603 148.094319,48.6646033 148.735159,50.0737482 C149.383988,51.4953242 151.002953,52.068927 152.282859,51.485557 C153.587617,50.8906439 154.203605,49.2976974 153.556552,47.8752335 M147.650524,50.5674373 C146.749619,48.5900172 147.633659,46.421692 149.573045,45.5382017 C151.524857,44.6484958 153.727857,45.407676 154.628761,47.385984 C155.531441,49.3642921 154.66959,51.5521517 152.718666,52.4418576 C150.781056,53.3262359 148.551428,52.5466333 147.650524,50.5674373" id="Fill-40" fill="#414042"></path>
                    <path d="M158.541438,41.6961284 L159.042039,42.9028254 C158.920439,42.907265 158.652387,43.0031614 158.535225,43.0519976 C158.049713,43.2535577 157.289048,43.7534623 156.891407,44.6866768 L158.908901,49.5543092 L157.833141,50.00005 L155.060308,43.3086094 L156.136068,42.8628685 L156.564774,43.8990828 C156.801761,43.1709802 157.382245,42.1614038 158.339067,41.7644991 C158.418063,41.7325336 158.483745,41.7050077 158.541438,41.6961284" id="Fill-42" fill="#414042"></path>
                    <path d="M166.044863,45.6134093 L166.416764,46.5812531 C166.13451,46.7970201 165.735094,47.0252181 165.285085,47.1992524 C163.548071,47.8678637 162.278816,46.9408647 161.652177,45.3097373 L159.657761,40.1251139 L160.285287,38.9858996 L160.443279,38.9246325 L161.178204,40.8345699 L163.657244,39.8800452 L164.013168,40.807932 L161.535903,41.7624568 L162.728824,44.8648843 C163.105163,45.846047 163.847189,46.6265375 165.066738,46.1568225 C165.437751,46.0138658 165.770598,45.8105298 166.044863,45.6134093" id="Fill-44" fill="#414042"></path>
                    <path d="M167.796612,46.0898726 L165.343311,39.2741217 L166.438598,38.8789929 L168.891899,45.6956317 L167.796612,46.0898726 Z M164.283528,36.9983571 C164.129975,36.5712627 164.351873,36.097996 164.766378,35.9488238 C165.206622,35.7898843 165.653081,36.022522 165.806634,36.4505042 C165.955749,36.8642796 165.733851,37.3375463 165.319346,37.4858306 C164.904842,37.6350029 164.432643,37.4130204 164.283528,36.9983571 L164.283528,36.9983571 Z" id="Fill-46" fill="#414042"></path>
                    <path d="M175.703447,38.6304612 L177.108503,42.9404736 L176.014991,43.2965335 L174.609935,38.9874091 C174.230934,37.8259966 173.338905,37.4743764 172.380307,37.7869277 C171.542422,38.0604102 170.918446,38.8471162 170.7143,39.7794427 L172.260483,44.520989 L171.153657,44.8832645 L168.908053,37.9938154 L170.014878,37.6324279 L170.328198,38.5913923 C170.619328,37.7478588 171.352478,37.0162045 172.296874,36.7072048 C173.770274,36.2268347 175.130063,36.8741357 175.703447,38.6304612" id="Fill-48" fill="#414042"></path>
                    <path d="M184.246063,38.7462473 L183.417941,35.7619145 C182.631535,35.2131738 181.538911,35.045355 180.689487,35.2806564 C179.375853,35.6455957 178.513115,36.9473011 178.945372,38.611282 C179.433546,40.260168 180.84304,40.9296672 182.156674,40.564728 C183.005211,40.3294266 183.851085,39.6084274 184.246063,38.7462473 L184.246063,38.7462473 Z M182.862309,33.763184 L183.985111,33.4515206 L185.706149,39.6528239 C186.304385,41.8611058 185.176258,43.6929055 183.014975,44.2940341 C182.071466,44.5559735 180.890083,44.6039217 180.05486,44.4076892 L179.772606,43.394561 C180.636232,43.5828022 181.816727,43.5357419 182.733608,43.280018 C184.266477,42.8546995 185.051995,41.6488906 184.565595,39.8961167 L184.554057,39.8552719 C184.177718,40.6233314 183.34072,41.3274599 182.288038,41.6204768 C180.412559,42.1408038 178.419918,41.1756239 177.796829,38.9309368 C177.173741,36.6853617 178.382639,34.8304759 180.258118,34.309261 C181.311688,34.017132 182.391886,34.1885025 183.109947,34.6528899 L182.862309,33.763184 Z" id="Fill-50" fill="#414042"></path>
                </g>
                <g id="Group-15-Copy" transform="translate(366.840807, 34.224215)">
                    <circle id="Oval-Copy" fill="#0066B5" cx="21.3901345" cy="21.3901345" r="21.3901345"></circle>
                    <g id="Group-10" transform="translate(12.834081, 11.408072)" stroke="#FFFFFF" stroke-linecap="round" stroke-linejoin="round" stroke-width="1.6">
                        <g id="Group-5">
                            <polyline id="Stroke-1" points="1.08030982e-05 15.5564075 5.83368386 15.5564075 5.83368386 21.3900805"></polyline>
                            <polygon id="Stroke-3" points="17.50103 21.3900805 17.50103 -5.40154912e-05 1.08030982e-05 -5.40154912e-05 1.08030982e-05 15.5564075 5.83368386 21.3900805"></polygon>
                        </g>
                        <line x1="3.88912617" y1="7.79546168" x2="7.77824154" y2="7.79546168" id="Stroke-6"></line>
                        <line x1="11.6673569" y1="7.79546168" x2="13.6119146" y2="7.79546168" id="Stroke-7"></line>
                        <line x1="3.88912617" y1="11.684577" x2="13.6119146" y2="11.684577" id="Stroke-8"></line>
                        <line x1="3.88912617" y1="3.90634631" x2="13.6119146" y2="3.90634631" id="Stroke-9"></line>
                    </g>
                </g>
                <g id="Group-10-Copy-2" transform="translate(329.506726, 140.843049)">
                    <circle id="Oval-Copy" fill="#0066B5" cx="21.3901345" cy="21.3901345" r="21.3901345"></circle>
                    <g id="Group-5" transform="translate(10.695067, 10.695067)" stroke="#FFFFFF" stroke-linecap="round" stroke-linejoin="round" stroke-width="1.6">
                        <path d="M16.5287511,5.83367305 C16.5287511,9.05558907 13.9169941,11.6673461 10.6950781,11.6673461 C7.47316205,11.6673461 4.86140501,9.05558907 4.86140501,5.83367305 C4.86140501,2.61186506 7.47316205,0 10.6950781,0 C13.9169941,0 16.5287511,2.61186506 16.5287511,5.83367305 Z" id="Stroke-1"></path>
                        <path d="M1.08030982e-05,21.3901345 C1.08030982e-05,16.0159172 2.83906502,11.6673461 8.75052038,11.6673461 L12.6396358,11.6673461 C18.5510911,11.6673461 21.3901453,16.0159172 21.3901453,21.3901345" id="Stroke-3"></path>
                    </g>
                </g>
                <g id="Group-10-Copy-3" transform="translate(96.506726, 279.843049)">
                    <circle id="Oval-Copy" fill="#0066B5" cx="21.3901345" cy="21.3901345" r="21.3901345"></circle>
                    <g id="Group-5" transform="translate(10.695067, 10.695067)" stroke="#FFFFFF" stroke-linecap="round" stroke-linejoin="round" stroke-width="1.6">
                        <path d="M16.5287511,5.83367305 C16.5287511,9.05558907 13.9169941,11.6673461 10.6950781,11.6673461 C7.47316205,11.6673461 4.86140501,9.05558907 4.86140501,5.83367305 C4.86140501,2.61186506 7.47316205,0 10.6950781,0 C13.9169941,0 16.5287511,2.61186506 16.5287511,5.83367305 Z" id="Stroke-1"></path>
                        <path d="M1.08030982e-05,21.3901345 C1.08030982e-05,16.0159172 2.83906502,11.6673461 8.75052038,11.6673461 L12.6396358,11.6673461 C18.5510911,11.6673461 21.3901453,16.0159172 21.3901453,21.3901345" id="Stroke-3"></path>
                    </g>
                </g>
                <g id="Group-12-Copy-5" transform="translate(216.060538, 247.515695)">
                    <circle id="Oval-Copy" fill="#0066B5" cx="21.3901345" cy="21.3901345" r="21.3901345"></circle>
                    <g id="Group-13" transform="translate(9.625561, 10.695067)" stroke="#FFFFFF" stroke-linecap="round" stroke-linejoin="round" stroke-width="1.6">
                        <path d="M14.9731061,3.20852018 C14.9731061,4.98057399 13.5365209,6.41704036 11.7645859,6.41704036 C9.99253206,6.41704036 8.5560657,4.98057399 8.5560657,3.20852018 C8.5560657,1.43646637 9.99253206,0 11.7645859,0 C13.5365209,0 14.9731061,1.43646637 14.9731061,3.20852018 Z" id="Stroke-1"></path>
                        <path d="M7.48655897,11.764574 C7.48655897,13.536509 6.04997377,14.9730942 4.27803879,14.9730942 C2.50598498,14.9730942 1.06951861,13.536509 1.06951861,11.764574 C1.06951861,9.99263901 2.50598498,8.55605381 4.27803879,8.55605381 C6.04997377,8.55605381 7.48655897,9.99263901 7.48655897,11.764574 Z" id="Stroke-3"></path>
                        <path d="M22.4596531,11.764574 C22.4596531,13.536509 21.0230679,14.9730942 19.251133,14.9730942 C17.4790791,14.9730942 16.0426128,13.536509 16.0426128,11.764574 C16.0426128,9.99263901 17.4790791,8.55605381 19.251133,8.55605381 C21.0230679,8.55605381 22.4596531,9.99263901 22.4596531,11.764574 Z" id="Stroke-5"></path>
                        <path d="M16.0426128,11.764574 C16.0426128,8.21761435 14.1292652,6.41704036 11.7645859,6.41704036 C9.3999065,6.41704036 7.48655897,8.21761435 7.48655897,11.764574" id="Stroke-7"></path>
                        <path d="M8.5560657,21.3901345 L8.5560657,20.3206278 C8.5560657,16.7736682 6.64271816,14.9730942 4.27803879,14.9730942 C1.91335942,14.9730942 1.18834081e-05,16.7736682 1.18834081e-05,20.3206278 L1.18834081e-05,21.3901345" id="Stroke-9"></path>
                        <path d="M23.5291599,21.3901345 L23.5291599,20.3206278 C23.5291599,16.7736682 21.6158123,14.9730942 19.251133,14.9730942 C16.8864536,14.9730942 14.9731061,16.7736682 14.9731061,20.3206278 L14.9731061,21.3901345" id="Stroke-11"></path>
                    </g>
                </g>
                <g id="Group-23" transform="translate(411.621076, 351.867713)">
                    <circle id="Oval-Copy" fill="#0066B5" cx="21.3901345" cy="21.3901345" r="21.3901345"></circle>
                    <g id="Group-16" transform="translate(9.625561, 10.695067)" stroke="#FFFFFF" stroke-linecap="round" stroke-linejoin="round" stroke-width="1.6">
                        <g id="Group-5" transform="translate(0.000000, 0.045318)">
                            <line x1="0.0679771224" y1="21.2456202" x2="24.5397412" y2="21.2456202" id="Stroke-1"></line>
                            <line x1="0.0820760812" y1="0.0226590408" x2="0.0820760812" y2="21.2315212" id="Stroke-3"></line>
                        </g>
                        <line x1="3.330879" y1="8.22523182" x2="8.22523182" y2="4.96232994" id="Stroke-6"></line>
                        <line x1="13.1195846" y1="8.22523182" x2="8.22523182" y2="4.96232994" id="Stroke-7"></line>
                        <line x1="18.0139374" y1="3.330879" x2="13.1195846" y2="8.22523182" id="Stroke-8"></line>
                        <line x1="22.9082903" y1="1.69942806" x2="18.0139374" y2="3.330879" id="Stroke-9"></line>
                        <line x1="3.330879" y1="16.3965855" x2="8.22523182" y2="16.3965855" id="Stroke-11"></line>
                        <line x1="13.1195846" y1="11.4881337" x2="8.22523182" y2="16.3824865" id="Stroke-12"></line>
                        <line x1="18.0139374" y1="13.1195846" x2="13.1195846" y2="11.4881337" id="Stroke-13"></line>
                        <line x1="22.9082903" y1="8.22523182" x2="18.0139374" y2="13.1195846" id="Stroke-14"></line>
                    </g>
                </g>
                <g id="Group-24" transform="translate(14.973094, 98.394619)">
                    <g id="Group-23-Copy" fill="#0066B5">
                        <circle id="Oval-Copy" cx="21.3901345" cy="21.3901345" r="21.3901345"></circle>
                    </g>
                    <g id="Group-15" transform="translate(8.556054, 8.556054)" stroke="#FFFFFF" stroke-linecap="round" stroke-linejoin="round" stroke-width="1.6">
                        <polygon id="Stroke-1" points="0.0710373471 18.824897 25.6444823 18.824897 25.6444823 1.77593368 0.0710373471 1.77593368"></polygon>
                        <line x1="12.8817021" y1="25.6444823" x2="12.8817021" y2="18.824897" id="Stroke-3"></line>
                        <line x1="7.74307084" y1="25.6444823" x2="12.8577598" y2="20.5297933" id="Stroke-4"></line>
                        <line x1="17.9724488" y1="25.6444823" x2="12.8577598" y2="20.5297933" id="Stroke-5"></line>
                        <line x1="12.8817021" y1="0.0710373471" x2="12.8817021" y2="1.77593368" id="Stroke-6"></line>
                        <path d="M7.74307084,7.31684676 C5.38908259,7.31684676 3.48083001,9.22509933 3.48083001,11.5790876 C3.48083001,13.9330758 5.38908259,15.8413284 7.74307084,15.8413284 C10.0970591,15.8413284 12.0053117,13.9330758 12.0053117,11.5790876" id="Stroke-7"></path>
                        <path d="M14.5626562,9.02174309 C14.5626562,6.66775484 12.6544036,4.75950226 10.3004153,4.75950226" id="Stroke-8"></path>
                        <line x1="7.76701306" y1="7.31684676" x2="7.76701306" y2="11.5790876" id="Stroke-9"></line>
                        <line x1="12.0053117" y1="11.6030298" x2="7.74307084" y2="11.6030298" id="Stroke-10"></line>
                        <line x1="10.3243576" y1="4.75950226" x2="10.3243576" y2="9.02174309" id="Stroke-11"></line>
                        <line x1="14.5626562" y1="9.0456853" x2="10.3004153" y2="9.0456853" id="Stroke-12"></line>
                        <line x1="17.1200007" y1="5.20966856" x2="22.2346897" y2="5.20966856" id="Stroke-13"></line>
                        <line x1="18.824897" y1="7.76701306" x2="22.2346897" y2="7.76701306" id="Stroke-14"></line>
                    </g>
                </g>
                <g id="Group-28" transform="translate(57.753363, 394.647982)">
                    <g id="Group-23-Copy" fill="#0066B5">
                        <circle id="Oval-Copy" cx="21.3901345" cy="21.3901345" r="21.3901345"></circle>
                    </g>
                    <g id="Group-11" transform="translate(10.695067, 8.556054)" stroke="#FFFFFF" stroke-linecap="round" stroke-linejoin="round" stroke-width="1.6">
                        <line x1="0.077154452" y1="8.595519" x2="0.077154452" y2="0.0710373471" id="Stroke-1"></line>
                        <polyline id="Stroke-3" points="20.5297933 8.595519 12.8577598 15.4151043 12.8577598 23.939586 7.74307084 25.6444823 7.74307084 15.4151043 0.0710373471 8.595519"></polyline>
                        <line x1="20.5359104" y1="0.0710373471" x2="20.5359104" y2="8.595519" id="Stroke-5"></line>
                        <line x1="0.0710373471" y1="0.077154452" x2="20.5297933" y2="0.077154452" id="Stroke-7"></line>
                        <line x1="0.0710373471" y1="3.48694711" x2="20.5297933" y2="3.48694711" id="Stroke-9"></line>
                    </g>
                </g>
                <g id="Group-21" transform="translate(256.890135, 102.062780)">
                    <g id="Group-23-Copy-3" fill="#0066B5">
                        <circle id="Oval-Copy" cx="21.3901345" cy="21.3901345" r="21.3901345"></circle>
                    </g>
                    <g id="Group-10" transform="translate(10.109865, 10.937220)" fill="#FFFFFF">
                        <path d="M3.14680255,14.5305286 C3.66778724,14.5911408 4.14134847,14.6372173 4.61182296,14.7050694 C4.82772602,14.7362173 4.93997092,14.6931153 5.02830765,14.4690745 C5.34932806,13.6546816 5.6989148,12.8515694 6.04620051,12.0241 C6.45701684,12.9580898 6.85531786,13.8724929 7.26501173,14.7816765 C7.30788929,14.8768041 7.41059337,14.9985898 7.49904235,15.0109367 C8.13384337,15.0996102 8.7721801,15.1630847 9.437175,15.2377276 C9.41001173,15.1658908 9.3964301,15.1147071 9.37246582,15.0689673 C8.66706276,13.7200082 7.96502704,12.3692531 7.2491852,11.0259061 C7.15226173,10.8440133 7.16006276,10.7107786 7.25490969,10.5392122 C7.78347092,9.58288571 8.30338929,8.62178878 8.82431786,7.66130918 C8.99111378,7.35375816 9.15207296,7.04306429 9.3321699,6.70279388 C8.65331276,6.73063061 8.02075663,6.75066633 7.38949133,6.79062551 C7.31905765,6.79505918 7.22746582,6.90006429 7.19373622,6.97897245 C6.94062398,7.57128878 6.69778214,8.16803878 6.45544541,8.76495714 C6.35049643,9.02351327 6.25419031,9.2856051 6.14705255,9.56414082 C5.78321071,8.7148398 5.43749643,7.89865102 5.08033316,7.08751327 C5.04329235,7.00338571 4.93806276,6.8903551 4.86476684,6.89057959 C4.32638418,6.8920949 3.78805765,6.9190898 3.22834847,6.9388449 C3.252425,7.00748265 3.26095561,7.04312041 3.27672602,7.07522245 C3.75107296,8.03805918 4.195675,9.0173398 4.71256276,9.95682959 C5.01915969,10.5141255 5.13808316,10.5768704 4.87761888,11.1420235 C4.84697602,11.2084724 4.62804235,11.6612122 4.59375153,11.7276051 C4.11912398,12.6468908 3.64460867,13.5662327 3.14680255,14.5305286 L3.14680255,14.5305286 Z M20.9368893,18.8268143 L20.9368893,3.60893163 C20.8857617,3.59838061 20.858823,3.58794184 20.8318842,3.58794184 C18.2605219,3.5865949 15.6891597,3.58743673 13.1177974,3.58244073 C12.9372515,3.5821051 12.8962012,3.65831939 12.8993689,3.81787551 C12.9064964,4.18244694 12.9162056,4.54797245 12.8977974,4.91170204 C12.8857311,5.14898776 12.9674454,5.21897245 13.1988944,5.21038571 C13.6348536,5.19416633 14.0718791,5.20572755 14.5186699,5.20572755 L14.5186699,6.72485 C14.0430321,6.72485 13.5856903,6.71862041 13.1287974,6.73102347 C13.0526954,6.7331 12.9169913,6.81251327 12.9139607,6.86263061 C12.8942617,7.18426837 12.9039148,7.50770204 12.9039148,7.85672755 L14.5131138,7.85672755 L14.5131138,9.37831939 L12.9019505,9.37831939 C12.9019505,9.66650816 12.915027,9.92770204 12.8980781,10.1869878 C12.8830372,10.4161918 12.956277,10.5002071 13.1946291,10.4906663 C13.6309811,10.4731561 14.068624,10.4856714 14.5110934,10.4856714 L14.5110934,12.0077122 L12.9215372,12.0077122 L12.9215372,13.0937939 L14.5195679,13.0937939 L14.5195679,14.6018602 L12.9279913,14.6018602 L12.9279913,15.6682429 L14.5220372,15.6682429 L14.5220372,17.181248 L12.9271495,17.181248 L12.9271495,18.8268143 L20.9368893,18.8268143 Z M22.1613689,19.9273194 C22.0073689,19.9273194 21.9054505,19.9273194 21.8035321,19.9273194 C18.9603689,19.9269265 16.1171495,19.9265337 13.2739862,19.9262531 C12.9021189,19.9261969 12.9018944,19.9264214 12.9017821,20.288748 C12.9015577,20.8473908 12.901726,21.4060337 12.901726,21.9824673 C11.6956546,21.773748 10.5210117,21.5701918 9.34625663,21.3672531 C7.6281801,21.0704214 5.90999133,20.7739265 4.19180255,20.4774878 C2.87775153,20.2507531 1.56414949,20.0213806 0.249032143,19.8005388 C0.048675,19.7669214 -0.000207653061,19.6708959 1.60682732e-05,19.4785643 C0.00529234694,14.0438347 0.00506785714,8.60916122 0.00562908163,3.17443163 C0.00568520408,2.94994184 0.0103433673,2.72528367 0.00259846939,2.50107449 C-0.00284540816,2.34381939 0.047047449,2.27349796 0.216986224,2.24532449 C1.52284337,2.02863571 2.82690459,1.80094694 4.13119031,1.57477347 C6.01454745,1.24825306 7.89751173,0.9196 9.78086888,0.593023469 C10.8083026,0.414890816 11.8361291,0.239171429 12.8999862,0.0561 L12.8999862,2.37378878 C13.0507872,2.37378878 13.1687566,2.37378878 13.2866699,2.37378878 C16.1392056,2.3738449 18.9917974,2.37771735 21.844277,2.36761531 C22.1066495,2.36671735 22.1659709,2.43569184 22.1656356,2.69351837 C22.158226,8.31524796 22.1607515,13.9370337 22.1613689,19.5587633 C22.1613689,19.6692122 22.1613689,19.7796051 22.1613689,19.9273194 L22.1613689,19.9273194 Z" id="Fill-1"></path>
                        <polygon id="Fill-4" points="15.6909949 6.7055102 19.3241378 6.7055102 19.3241378 5.22634694 15.6909949 5.22634694"></polygon>
                        <polygon id="Fill-6" points="15.6985153 14.5870102 19.3198163 14.5870102 19.3198163 13.1094745 15.6985153 13.1094745"></polygon>
                        <polygon id="Fill-7" points="15.6968316 9.34938265 19.3262704 9.34938265 19.3262704 7.87448469 15.6968316 7.87448469"></polygon>
                        <polygon id="Fill-8" points="15.7002551 11.9844439 19.321949 11.9844439 19.321949 10.5082551 15.7002551 10.5082551"></polygon>
                        <polygon id="Fill-9" points="15.6998622 17.1556786 19.3278418 17.1556786 19.3278418 15.6842041 15.6998622 15.6842041"></polygon>
                    </g>
                </g>
                <g id="Group-21-Copy" transform="translate(137.890135, 223.062780)">
                    <g id="Group-23-Copy-3" fill="#0066B5">
                        <circle id="Oval-Copy" cx="21.3901345" cy="21.3901345" r="21.3901345"></circle>
                    </g>
                    <g id="Group-10" transform="translate(10.109865, 10.937220)" fill="#FFFFFF">
                        <path d="M3.14680255,14.5305286 C3.66778724,14.5911408 4.14134847,14.6372173 4.61182296,14.7050694 C4.82772602,14.7362173 4.93997092,14.6931153 5.02830765,14.4690745 C5.34932806,13.6546816 5.6989148,12.8515694 6.04620051,12.0241 C6.45701684,12.9580898 6.85531786,13.8724929 7.26501173,14.7816765 C7.30788929,14.8768041 7.41059337,14.9985898 7.49904235,15.0109367 C8.13384337,15.0996102 8.7721801,15.1630847 9.437175,15.2377276 C9.41001173,15.1658908 9.3964301,15.1147071 9.37246582,15.0689673 C8.66706276,13.7200082 7.96502704,12.3692531 7.2491852,11.0259061 C7.15226173,10.8440133 7.16006276,10.7107786 7.25490969,10.5392122 C7.78347092,9.58288571 8.30338929,8.62178878 8.82431786,7.66130918 C8.99111378,7.35375816 9.15207296,7.04306429 9.3321699,6.70279388 C8.65331276,6.73063061 8.02075663,6.75066633 7.38949133,6.79062551 C7.31905765,6.79505918 7.22746582,6.90006429 7.19373622,6.97897245 C6.94062398,7.57128878 6.69778214,8.16803878 6.45544541,8.76495714 C6.35049643,9.02351327 6.25419031,9.2856051 6.14705255,9.56414082 C5.78321071,8.7148398 5.43749643,7.89865102 5.08033316,7.08751327 C5.04329235,7.00338571 4.93806276,6.8903551 4.86476684,6.89057959 C4.32638418,6.8920949 3.78805765,6.9190898 3.22834847,6.9388449 C3.252425,7.00748265 3.26095561,7.04312041 3.27672602,7.07522245 C3.75107296,8.03805918 4.195675,9.0173398 4.71256276,9.95682959 C5.01915969,10.5141255 5.13808316,10.5768704 4.87761888,11.1420235 C4.84697602,11.2084724 4.62804235,11.6612122 4.59375153,11.7276051 C4.11912398,12.6468908 3.64460867,13.5662327 3.14680255,14.5305286 L3.14680255,14.5305286 Z M20.9368893,18.8268143 L20.9368893,3.60893163 C20.8857617,3.59838061 20.858823,3.58794184 20.8318842,3.58794184 C18.2605219,3.5865949 15.6891597,3.58743673 13.1177974,3.58244073 C12.9372515,3.5821051 12.8962012,3.65831939 12.8993689,3.81787551 C12.9064964,4.18244694 12.9162056,4.54797245 12.8977974,4.91170204 C12.8857311,5.14898776 12.9674454,5.21897245 13.1988944,5.21038571 C13.6348536,5.19416633 14.0718791,5.20572755 14.5186699,5.20572755 L14.5186699,6.72485 C14.0430321,6.72485 13.5856903,6.71862041 13.1287974,6.73102347 C13.0526954,6.7331 12.9169913,6.81251327 12.9139607,6.86263061 C12.8942617,7.18426837 12.9039148,7.50770204 12.9039148,7.85672755 L14.5131138,7.85672755 L14.5131138,9.37831939 L12.9019505,9.37831939 C12.9019505,9.66650816 12.915027,9.92770204 12.8980781,10.1869878 C12.8830372,10.4161918 12.956277,10.5002071 13.1946291,10.4906663 C13.6309811,10.4731561 14.068624,10.4856714 14.5110934,10.4856714 L14.5110934,12.0077122 L12.9215372,12.0077122 L12.9215372,13.0937939 L14.5195679,13.0937939 L14.5195679,14.6018602 L12.9279913,14.6018602 L12.9279913,15.6682429 L14.5220372,15.6682429 L14.5220372,17.181248 L12.9271495,17.181248 L12.9271495,18.8268143 L20.9368893,18.8268143 Z M22.1613689,19.9273194 C22.0073689,19.9273194 21.9054505,19.9273194 21.8035321,19.9273194 C18.9603689,19.9269265 16.1171495,19.9265337 13.2739862,19.9262531 C12.9021189,19.9261969 12.9018944,19.9264214 12.9017821,20.288748 C12.9015577,20.8473908 12.901726,21.4060337 12.901726,21.9824673 C11.6956546,21.773748 10.5210117,21.5701918 9.34625663,21.3672531 C7.6281801,21.0704214 5.90999133,20.7739265 4.19180255,20.4774878 C2.87775153,20.2507531 1.56414949,20.0213806 0.249032143,19.8005388 C0.048675,19.7669214 -0.000207653061,19.6708959 1.60682732e-05,19.4785643 C0.00529234694,14.0438347 0.00506785714,8.60916122 0.00562908163,3.17443163 C0.00568520408,2.94994184 0.0103433673,2.72528367 0.00259846939,2.50107449 C-0.00284540816,2.34381939 0.047047449,2.27349796 0.216986224,2.24532449 C1.52284337,2.02863571 2.82690459,1.80094694 4.13119031,1.57477347 C6.01454745,1.24825306 7.89751173,0.9196 9.78086888,0.593023469 C10.8083026,0.414890816 11.8361291,0.239171429 12.8999862,0.0561 L12.8999862,2.37378878 C13.0507872,2.37378878 13.1687566,2.37378878 13.2866699,2.37378878 C16.1392056,2.3738449 18.9917974,2.37771735 21.844277,2.36761531 C22.1066495,2.36671735 22.1659709,2.43569184 22.1656356,2.69351837 C22.158226,8.31524796 22.1607515,13.9370337 22.1613689,19.5587633 C22.1613689,19.6692122 22.1613689,19.7796051 22.1613689,19.9273194 L22.1613689,19.9273194 Z" id="Fill-1"></path>
                        <polygon id="Fill-4" points="15.6909949 6.7055102 19.3241378 6.7055102 19.3241378 5.22634694 15.6909949 5.22634694"></polygon>
                        <polygon id="Fill-6" points="15.6985153 14.5870102 19.3198163 14.5870102 19.3198163 13.1094745 15.6985153 13.1094745"></polygon>
                        <polygon id="Fill-7" points="15.6968316 9.34938265 19.3262704 9.34938265 19.3262704 7.87448469 15.6968316 7.87448469"></polygon>
                        <polygon id="Fill-8" points="15.7002551 11.9844439 19.321949 11.9844439 19.321949 10.5082551 15.7002551 10.5082551"></polygon>
                        <polygon id="Fill-9" points="15.6998622 17.1556786 19.3278418 17.1556786 19.3278418 15.6842041 15.6998622 15.6842041"></polygon>
                    </g>
                </g>
                <g id="Group-29" transform="translate(194.890135, 157.062780)">
                    <g id="Group-23-Copy-3" fill="#0066B5">
                        <circle id="Oval-Copy" cx="21.3901345" cy="21.3901345" r="21.3901345"></circle>
                    </g>
                    <g id="linkedin" transform="translate(11.109865, 9.937220)" fill="#FFFFFF">
                        <polygon id="Fill-1" points="0.2 21.8 4.8 21.8 4.8 7.4 0.2 7.4"></polygon>
                        <g id="Group-7">
                            <path d="M2.62411411,0.0584798365 C1.17485962,0.0584798365 -2.3760218e-05,1.23336322 -2.3760218e-05,2.68261771 C-2.3760218e-05,4.13187221 1.17485962,5.30675559 2.62411411,5.30675559 C4.07336861,5.30675559 5.24825199,4.13187221 5.24825199,2.68261771 C5.24825199,1.23336322 4.07336861,0.0584798365 2.62411411,0.0584798365" id="Fill-2"></path>
                            <path d="M16.628054,6.91564905 C13.1005526,6.91564905 12.0968022,9.32469755 12.0968022,9.32469755 L12.0968022,7.34582779 L7.70894332,7.34582779 L7.70894332,21.8 L12.2688856,21.8 L12.2688856,14.2287471 C12.2688856,13.1963063 12.5843025,10.8733292 14.9360294,10.8733292 C17.2876376,10.8733292 17.2876376,13.5977946 17.2876376,13.5977946 L17.2876376,21.8 L21.7902583,21.8 L21.7902583,13.2249967 C21.7902583,9.15255477 20.1555553,6.91564905 16.628054,6.91564905" id="Fill-5"></path>
                        </g>
                    </g>
                </g>
                <g id="Group-30" transform="translate(250.890135, 323.062780)">
                    <g id="Group-23-Copy-3" fill="#0066B5">
                        <circle id="Oval-Copy" cx="21.3901345" cy="21.3901345" r="21.3901345"></circle>
                    </g>
                    <g id="facebook" transform="translate(15.109865, 10.937220)" fill="#FFFFFF">
                        <path d="M10.0468634,3.92939079 L12.1756764,3.98477832 L12.1756764,0.110691599 L9.0209122,3.57723577e-05 C6.05615881,3.57723577e-05 3.65267371,2.40340163 3.65267371,5.36827425 L3.65267371,8.79967805 L1.78861789e-05,8.79967805 L1.78861789e-05,12.950464 L3.65267371,12.950464 L3.65267371,21.9720141 L8.24626179,21.9720141 L8.24626179,12.950464 L11.511503,12.950464 L12.1756764,8.79967805 L8.24626179,8.79967805 L8.24626179,5.72999241 C8.24626179,4.73552087 9.05239187,3.92939079 10.0468634,3.92939079" id="Fill-1"></path>
                    </g>
                </g>
                <g id="Group-32" transform="translate(294.300448, 216.885650)">
                    <circle id="Oval-Copy" fill="#0066B5" cx="21.3901345" cy="21.3901345" r="21.3901345"></circle>
                    <g id="Group-31" transform="translate(9.699552, 9.114350)" fill="#FFFFFF">
                        <path d="M17.4285714,0 L21.1428571,0 C22.2474266,-2.02906125e-16 23.1428571,0.8954305 23.1428571,2 L23.1428571,22 C23.1428571,23.1045695 22.2474266,24 21.1428571,24 L15.4285714,24 L15.4285714,24 L15.4285714,2 C15.4285714,0.8954305 16.3240019,2.02906125e-16 17.4285714,0 Z" id="Rectangle" opacity="0.704851017"></path>
                        <path d="M7.71428571,7.71428571 L13.4285714,7.71428571 C14.5331409,7.71428571 15.4285714,8.60971621 15.4285714,9.71428571 L15.4285714,21 C15.4285714,22.6568542 14.0854257,24 12.4285714,24 L7.71428571,24 L7.71428571,24 L7.71428571,7.71428571 Z" id="Rectangle-Copy-26" transform="translate(11.571429, 15.857143) scale(-1, 1) translate(-11.571429, -15.857143) "></path>
                        <path d="M0,15.4285714 L11.7142857,15.4285714 C12.8188552,15.4285714 13.7142857,16.3240019 13.7142857,17.4285714 L13.7142857,22 C13.7142857,23.1045695 12.8188552,24 11.7142857,24 L0,24 L0,24 L0,15.4285714 Z" id="Rectangle-Copy-27" transform="translate(6.857143, 19.714286) scale(-1, 1) translate(-6.857143, -19.714286) "></path>
                    </g>
                </g>
                <g id="Group-33" transform="translate(161.000000, 346.000000)" fill="#0066B5">
                    <circle id="Oval-Copy" cx="21.3901345" cy="21.3901345" r="21.3901345"></circle>
                </g>
                <path d="M193.178596,367.350368 C192.612207,366.359565 191.815504,365.565261 190.819452,364.967277 C190.07511,364.526704 189.303282,364.247079 188.43352,364.126987 L188.43352,360.978774 C189.303282,360.603288 189.843057,359.772195 189.843057,358.802617 C189.843057,357.481075 188.800734,356.410152 187.502004,356.410152 C186.202231,356.410152 185.141643,357.481075 185.141643,358.802617 C185.141643,359.772195 185.65028,360.603288 186.520042,360.978774 L186.520042,364.128402 C185.824232,364.230631 185.102677,364.451182 184.443745,364.790057 C183.097875,363.750793 178.6847,360.34135 176.103071,358.350017 C176.164302,358.125574 176.211443,357.894233 176.211443,357.650158 C176.211443,356.186416 175.045613,355 173.605461,355 C172.165308,355 171,356.186416 171,357.650158 C171,359.113724 172.166525,360.300494 173.606678,360.300494 C174.09792,360.300494 174.552284,360.154403 174.944373,359.914219 L175.489192,360.334452 L182.975412,365.818709 C182.57967,366.188182 182.211065,366.608416 181.916215,367.07994 C181.318689,368.041206 180.953562,369.098864 180.953562,370.25256 L180.953562,370.493275 C180.953562,371.303144 181.104901,372.067735 181.362699,372.785987 C181.589707,373.413154 181.921608,373.983369 182.332658,374.498933 L179.848094,377.031299 C179.112687,376.752996 178.285162,376.937512 177.731788,377.503177 C177.352861,377.886554 177.140627,378.408193 177.142437,378.951709 C177.142611,379.498755 177.352224,380.012904 177.732832,380.39971 C178.109647,380.785268 178.622565,381.001438 179.157155,381 C179.691887,381.001383 180.204947,380.785232 180.582,380.39971 C180.960679,380.016354 181.172987,379.495034 181.171699,378.951709 C181.171699,378.74 181.139517,378.533421 181.078982,378.3371 L183.647043,375.725675 C183.999123,375.972934 184.379383,376.181105 184.788171,376.360624 C185.594441,376.715063 186.484382,376.931016 187.458342,376.931016 L187.636817,376.931016 C188.713583,376.931016 189.729292,376.673853 190.684117,376.147854 C191.690259,375.591965 192.477742,374.831795 193.072659,373.861332 C193.670708,372.888216 194,371.813048 194,370.630169 L194,370.571096 C194,369.407495 193.73507,368.333919 193.178596,367.350368 L193.178596,367.350368 Z M190.071999,372.7407 C189.361412,373.519975 188.5446,374 187.621209,374 L187.469055,374 C186.941656,374 186.425785,373.85615 185.920731,373.594525 C185.351481,373.306475 184.91878,372.895575 184.564639,372.3753 C184.198617,371.86465 184,371.3071 184,370.71595 L184,370.5364 C184,369.955225 184.112963,369.40415 184.397766,368.8837 C184.702252,368.314775 185.113495,367.872375 185.660401,367.520625 C186.197375,367.171325 186.770881,367 187.409647,367 L187.469055,367 C188.048236,367 188.59656,367.1127 189.114027,367.373975 C189.641248,367.652575 190.071999,368.0332 190.405923,368.533875 C190.730271,369.034725 190.923213,369.57495 190.985281,370.163475 C190.995035,370.2858 191,370.4111 191,370.5308 C191,371.3295 190.690725,372.069225 190.071999,372.7407 Z" id="Shape" fill="#FFFFFF" fill-rule="nonzero"></path>
                <g id="Group-34" transform="translate(92.363229, 163.847534)">
                    <circle id="Oval-Copy" fill="#0066B5" cx="21.3901345" cy="21.3901345" r="21.3901345"></circle>
                    <g id="Group-8" transform="translate(5.636771, 13.152466)">
                        <g id="Group-3">
                            <mask id="mask-4" fill="white">
                                <use xlink:href="#path-3"></use>
                            </mask>
                            <g id="Clip-2"></g>
                            <path d="M15.2908457,10.27074 C15.2439852,10.1622019 15.2061783,10.079894 15.1725549,9.99593294 C14.3994349,8.06585887 13.6256281,6.1360655 12.8565979,4.20436959 C12.8036496,4.07137934 12.7306896,4.02521949 12.5895461,4.026623 C11.9496086,4.03304795 11.3095149,4.03420195 10.6696398,4.02594764 C10.5134798,4.02400312 10.4402076,4.0797692 10.3847305,4.22252164 C9.76542907,5.81640858 9.14044566,7.40811228 8.5153998,8.9997848 C8.48955005,9.06559376 8.48374322,9.17675166 8.41758907,9.18143002 C8.33504468,9.18729357 8.3533081,9.06905575 8.31581346,9.01129357 C8.30463688,8.994046 8.29804956,8.9737731 8.28965151,8.95474776 C8.01991493,8.34297388 7.51525151,7.99565224 6.92554615,7.74286472 C6.51201249,7.56561715 6.06878907,7.48761326 5.64186224,7.35518441 C5.1553998,7.20426043 4.65570029,7.08240468 4.232832,6.7803384 C3.8691559,6.52056452 3.91579785,6.02500117 4.31540761,5.82648265 C4.54434029,5.71276725 4.79253541,5.68135984 5.04279102,5.67300117 C5.77217249,5.64867368 6.48428956,5.76070487 7.1835442,5.96128187 C7.27542322,5.98763665 7.334272,5.9926269 7.37573151,5.88153138 C7.53201639,5.46281793 7.69570029,5.04678674 7.86238127,4.6320655 C7.90880468,4.51657232 7.8734642,4.45615906 7.76497639,4.41735984 C7.578752,4.35073996 7.39146615,4.28932865 7.19793639,4.24581988 C6.39053737,4.0643306 5.57068176,4.01845146 4.74745444,4.03410838 C4.32517932,4.04215517 3.91102127,4.11825653 3.51072468,4.26684133 C2.30496468,4.71437349 1.72075395,5.92095439 2.15532956,7.10186667 C2.44432859,7.88730136 3.04183883,8.33430331 3.82295102,8.56756647 C4.38590127,8.73564444 4.96708371,8.8397848 5.51760859,9.0514963 C5.64020761,9.098623 5.75425249,9.16109474 5.85671493,9.24150019 C6.17087688,9.48811228 6.12991688,9.87083353 5.77132956,10.0423111 C5.64919883,10.1007283 5.52151102,10.1476055 5.38732956,10.1702799 C4.44478127,10.329625 3.54350517,10.2010947 2.68543688,9.77866979 C2.6088242,9.74096218 2.5395481,9.6832 2.49790127,9.82105575 C2.35067005,10.3086347 2.198912,10.7948101 2.04687298,11.2809232 C2.01690224,11.3768296 2.04506224,11.4395509 2.13285151,11.4854612 C2.32247883,11.5846113 2.51919298,11.6652351 2.72455493,11.7253988 C3.3838798,11.9185216 4.06078127,11.9881981 4.74402029,12.000237 C5.74157737,12.0177965 6.69211785,11.8462877 7.53557541,11.2702877 C7.55081054,11.2599018 7.572352,11.2587478 7.59573541,11.2518862 C7.61793249,11.3019135 7.5976398,11.3393092 7.58309151,11.3769856 C7.52689639,11.5224203 7.46985834,11.6675431 7.41431883,11.8132585 C7.34685346,11.9902253 7.35306615,12.0011415 7.535232,12.001391 C8.18044566,12.0022331 8.82565932,11.9983033 9.47077932,12.0043228 C9.61058029,12.0056189 9.67479883,11.9524865 9.71441639,11.8228023 C9.80392273,11.5295626 9.90853932,11.2410012 10.0031969,10.9492897 C10.0379442,10.8422487 10.0925783,10.8140226 10.2016593,10.8555353 C11.1655618,11.2224125 12.1318369,11.2305216 13.0972691,10.8610246 C13.2141237,10.8162994 13.279154,10.8369778 13.3183969,10.9633871 C13.4046252,11.2413442 13.5088983,11.5138745 13.5901315,11.7931727 C13.6350252,11.9474027 13.7079852,12.0067867 13.8753842,12.0056189 C14.9471813,11.9981162 16.019072,12.0019836 17.0909315,12.0016405 C17.3144632,12.0015782 17.319833,11.9963384 17.320114,11.7753637 C17.3207696,11.2659524 17.3198954,10.7565411 17.3206135,10.2471298 C17.3209569,10.0103423 17.3254525,10.0064749 17.5680905,10.0058823 C17.8282427,10.0052585 18.0883949,10.0068803 18.3485471,10.0054456 C20.1611208,9.99537154 21.5544164,8.35800702 21.2726291,6.56971852 C21.0390447,5.08727018 19.8087774,4.0326425 18.3068066,4.02971072 C17.4066857,4.02796413 16.5065335,4.02930526 15.6063813,4.02943002 C15.3321179,4.02946121 15.3317432,4.02974191 15.331712,4.30651384 C15.3315871,6.21419415 15.3318681,8.12190565 15.3307442,10.0296172 C15.3306818,10.098701 15.3478525,10.1724632 15.2908457,10.27074 M16.674151,15.9999875 L0.0029315122,15.9999875 C0.0029315122,10.723855 0.00336858537,5.44769123 -3.23229268e-06,0.171558674 C-3.23229268e-06,0.0546307992 0.0263461463,0.0282448343 0.143419317,0.0282760234 C10.7060105,0.0314261209 21.2686018,0.0311454191 31.831193,0.0331103314 C31.8768983,0.0331103314 31.9370583,-0.00285068226 31.971712,0.062365692 C31.6104398,0.434888109 31.247513,0.805819883 30.8883325,1.18030721 C30.3562583,1.73503626 29.8277744,2.2931961 29.2960125,2.84823704 C28.6995949,3.47080234 28.0992437,4.08956257 27.5071344,4.71636959 C26.7011403,5.56954698 25.8792866,6.40772242 25.0662993,7.25428772 C24.3470018,8.00332476 23.6308574,8.75535595 22.9126213,9.50539103 C22.2517666,10.1955431 21.5908183,10.8855704 20.9283715,11.574163 C20.4207422,12.1018199 19.9098037,12.6262955 19.4020183,13.1538277 C18.7933003,13.7862175 18.1861744,14.4201981 17.5787364,15.0538667 C17.2767813,15.3688452 16.9756691,15.6846035 16.674151,15.9999875" id="Fill-1" fill="#FFFFFF" mask="url(#mask-4)"></path>
                        </g>
                        <path d="M17.8983063,5.84810083 C18.0265495,5.84800061 18.1548263,5.84676463 18.283036,5.84820104 C18.8847436,5.85494883 19.3836087,6.34152417 19.3846154,6.92183357 C19.3855858,7.49993826 18.8867207,7.98948663 18.2844434,7.9975038 C18.0001101,8.00131196 17.7156092,7.99389608 17.4313429,7.99987555 C17.2908685,8.00281518 17.2296455,7.95411088 17.2307692,7.80759712 C17.2353422,7.21843542 17.2352417,6.62920691 17.2307692,6.04004521 C17.229679,5.89496786 17.2879866,5.8403843 17.4300025,5.84663101 C17.5858245,5.85351242 17.7421827,5.84820104 17.8983063,5.84810083" id="Fill-4" fill="#FFFFFF"></path>
                        <path d="M11.6679776,9.53846154 C11.3998485,9.53029186 11.130425,9.49421432 10.8789161,9.35857274 C10.7790479,9.30472147 10.745984,9.24173388 10.7854606,9.12280584 C11.0699158,8.26611232 11.3496644,7.4076726 11.6320016,6.55019953 C11.6438563,6.51412199 11.645886,6.45696543 11.6974821,6.46182982 C11.7360174,6.46544693 11.7389002,6.5146209 11.7499313,6.54811034 C12.0338864,7.4104478 12.3169002,8.27312826 12.6022967,9.13493563 C12.6373608,9.24086079 12.5998845,9.29885926 12.5148127,9.34840741 C12.2525668,9.5011679 11.9671998,9.53144559 11.6679776,9.53846154" id="Fill-6" fill="#FFFFFF"></path>
                    </g>
                </g>
                <g id="Group-36" transform="translate(338.840807, 290.224215)">
                    <circle id="Oval-Copy" fill="#0066B5" cx="21.3901345" cy="21.3901345" r="21.3901345"></circle>
                    <g id="Group-35" transform="translate(9.159193, 7.775785)" fill="#FFFFFF">
                        <path d="M12.5702627,4.64782823 C12.6279619,2.36273438 14.4975179,0.528162298 16.7955611,0.528162298 C19.129129,0.528162298 21.0208595,2.41989282 21.0208595,4.75346069 L21.0172627,4.6471623 L21.0208595,4.64782823 L21.0208595,21.4433893 C21.0208595,23.7769572 19.129129,25.6686877 16.7955611,25.6686877 C14.4619932,25.6686877 12.5702627,23.7769572 12.5702627,21.4433893 L12.5702627,21.4433893 L12.5702627,4.64782823 Z" id="Combined-Shape" transform="translate(16.795561, 13.098425) rotate(-30.000000) translate(-16.795561, -13.098425) "></path>
                        <path d="M14.6300957,2.21225817 C16.6510247,3.3790421 17.3434461,5.96319405 16.1766622,7.9841231 L16.2266965,7.89026761 L16.2294784,7.89264271 L7.8316979,22.4380253 L0.513266415,18.2127269 L8.91104696,3.66734432 C10.1035629,1.71724463 12.6399319,1.06323657 14.6300957,2.21225817 Z" id="Combined-Shape" fill-opacity="0.7"></path>
                        <circle id="Oval-Copy-7" cx="4.22529839" cy="20.228616" r="4.22529839"></circle>
                    </g>
                </g>
            </g>
        </g>
    </g>
</svg>