<svg width="123" height="107" viewBox="0 0 123 107" fill="none" xmlns="http://www.w3.org/2000/svg">
<path d="M66.4034 90.6442H88.3134C90.0734 88.8942 92.0034 87.0742 93.9634 85.2242C98.0734 81.3342 102.363 77.2742 106.773 72.1942C111.813 66.3842 112.353 64.3742 113.883 58.6842C114.173 57.6142 114.493 56.4142 114.913 54.9242L117.533 45.7142L117.563 45.6142C118.963 41.5142 119.073 38.8042 118.493 37.2442C118.313 36.7642 118.083 36.4442 117.813 36.2742C117.603 36.1342 117.323 36.0842 117.033 36.1142C116.353 36.1842 115.583 36.6142 114.883 37.3842L107.103 55.9142C107.033 56.0842 106.933 56.2442 106.823 56.3842C106.363 57.2142 105.743 58.0242 104.943 58.7942L91.1434 74.1842C90.3934 75.0242 89.1034 75.0942 88.2734 74.3442C87.4334 73.5942 87.3634 72.3042 88.1134 71.4742L101.923 56.0842C101.983 56.0142 102.043 55.9442 102.113 55.8842C103.543 54.5242 103.993 53.0542 103.743 51.9842C103.663 51.6542 103.523 51.3742 103.323 51.1842C103.133 51.0142 102.883 50.8942 102.573 50.8642C101.343 50.7342 99.5334 51.6442 97.3234 54.2542C97.2634 54.3242 97.1934 54.3942 97.1234 54.4642L91.7734 59.1842L91.7434 59.2142C85.9534 64.6942 83.4634 65.9942 78.9234 68.3642C77.9734 68.8642 76.9334 69.4042 75.6434 70.1042C75.1334 70.3842 74.6334 70.7242 74.1434 71.0942C73.6234 71.4942 73.1234 71.9042 72.6534 72.3042C70.2534 74.3242 68.9934 75.9642 68.2734 77.7742C67.5234 79.6542 67.2534 81.9442 66.8834 85.0842C66.7334 86.3542 66.6234 87.6042 66.5334 88.8542C66.4634 89.4642 66.4334 90.0642 66.4034 90.6442ZM87.2834 12.5942L87.4134 39.1842C87.4234 40.5742 86.5434 41.7642 85.3034 42.2642V42.2742L62.2034 51.6142C62.0034 51.6542 61.8034 51.6642 61.6034 51.6642C61.1534 51.6642 60.7134 51.5742 60.3034 51.4042L37.5534 42.7042V42.6942C36.3234 42.1742 35.4634 40.9442 35.4634 39.5142L35.5934 13.2642C35.5734 12.9842 35.5934 12.7042 35.6434 12.4242C35.6534 12.0242 35.7334 11.6242 35.8934 11.2542C36.2534 10.3942 36.9434 9.75422 37.7634 9.42422L59.9834 0.474218C60.8934 0.114218 61.8634 0.144218 62.6934 0.504218L84.8834 8.52422C86.2134 9.00422 87.0534 10.1942 87.1134 11.4942C87.2134 11.8542 87.2834 12.2242 87.2834 12.5942ZM57.2334 46.0842L57.4034 22.9242L39.6134 15.2342L39.2334 38.4842L57.2334 46.0842ZM83.4834 15.2342L63.6034 22.9342L63.7634 46.0642L83.6134 38.6542L83.4834 15.2342ZM56.4634 90.6442H34.5434C32.7834 88.8942 30.8534 87.0742 28.8934 85.2242C24.7834 81.3342 20.4934 77.2742 16.0834 72.1942C11.0434 66.3842 10.5034 64.3742 8.97343 58.6842C8.69343 57.6142 8.37343 56.4242 7.95343 54.9242L5.33343 45.7142L5.30343 45.6142C3.90343 41.5142 3.79343 38.8042 4.37343 37.2442C4.55343 36.7642 4.78343 36.4442 5.05343 36.2742C5.26343 36.1342 5.54343 36.0842 5.83343 36.1142C6.51343 36.1842 7.28343 36.6142 7.98343 37.3842L15.7634 55.9142C15.8334 56.0842 15.9334 56.2442 16.0434 56.3842C16.5034 57.2142 17.1234 58.0242 17.9234 58.7942L31.7234 74.1842C32.4734 75.0242 33.7634 75.0942 34.5934 74.3442C35.4334 73.5942 35.5034 72.3042 34.7534 71.4742L20.9534 56.0742C20.8934 56.0042 20.8334 55.9342 20.7634 55.8742C19.3334 54.5142 18.8834 53.0442 19.1334 51.9742C19.2134 51.6442 19.3534 51.3642 19.5534 51.1742C19.7434 51.0042 19.9934 50.8842 20.3034 50.8542C21.5334 50.7242 23.3534 51.6342 25.5534 54.2442C25.6134 54.3142 25.6834 54.3842 25.7534 54.4542L31.1034 59.1742L31.1334 59.2042C36.9234 64.6842 39.4134 65.9842 43.9534 68.3542C44.9034 68.8542 45.9434 69.3942 47.2334 70.0942C47.7434 70.3742 48.2434 70.7142 48.7334 71.0842C49.2534 71.4842 49.7534 71.8942 50.2234 72.2942C52.6234 74.3142 53.8834 75.9542 54.6034 77.7642C55.3534 79.6442 55.6234 81.9342 55.9934 85.0742C56.1434 86.3442 56.2534 87.5942 56.3434 88.8442C56.4034 89.4642 56.4334 90.0642 56.4634 90.6442ZM29.4434 91.3542C29.1334 91.7142 28.9434 92.1842 28.9434 92.6942V104.834C28.9434 105.964 29.8634 106.874 30.9834 106.874H58.5634C59.6934 106.874 60.6034 105.954 60.6034 104.834V92.5842C60.6034 91.2842 60.5234 89.8842 60.4334 88.5842C60.3434 87.2542 60.2234 85.9342 60.0734 84.6242C59.6734 81.1942 59.3734 78.6842 58.4134 76.2742C57.4234 73.8042 55.8334 71.6742 52.8834 69.1842C52.3434 68.7242 51.7934 68.2642 51.2134 67.8342C50.6034 67.3742 49.9434 66.9342 49.2034 66.5242C48.0034 65.8742 46.8834 65.2842 45.8634 64.7442C41.6634 62.5442 39.3634 61.3442 33.9534 56.2242C33.9134 56.1842 33.8634 56.1442 33.8234 56.1142L28.6034 51.5042C25.4134 47.7742 22.2934 46.5342 19.9034 46.7942H19.8934C18.7234 46.9142 17.7234 47.3742 16.9234 48.0742L11.6434 35.5242H11.6334C11.5534 35.3442 11.4534 35.1742 11.3234 35.0142C9.86343 33.2642 8.01343 32.2442 6.24343 32.0642C5.03343 31.9442 3.86343 32.2042 2.84343 32.8642C1.87343 33.4942 1.07343 34.4742 0.573428 35.8242C-0.306572 38.1742 -0.286572 41.8242 1.43343 46.8742L4.03343 56.0242C4.41343 57.3442 4.74343 58.6142 5.05343 59.7342C6.75343 66.0842 7.35343 68.3342 13.0234 74.8542C17.5134 80.0242 21.9034 84.1842 26.1234 88.1742C27.2234 89.2342 28.3234 90.2742 29.4434 91.3542ZM33.3434 94.7342C33.6134 94.7942 33.8934 94.7942 34.1734 94.7342H56.5134V102.794H33.0234V94.7342H33.3434ZM93.4234 91.3542C93.7334 91.7142 93.9234 92.1842 93.9234 92.6942V104.834C93.9234 105.964 93.0134 106.874 91.8834 106.874H64.3134C63.1834 106.874 62.2734 105.954 62.2734 104.834V92.5842C62.2734 92.5142 62.2734 92.4342 62.2834 92.3642C62.3134 91.0542 62.3634 89.7842 62.4434 88.5842C62.5334 87.2542 62.6534 85.9342 62.8034 84.6242C63.2034 81.1942 63.5034 78.6842 64.4634 76.2742C65.4534 73.8042 67.0434 71.6742 69.9934 69.1842C70.5334 68.7242 71.0834 68.2642 71.6634 67.8342C72.2734 67.3742 72.9334 66.9342 73.6734 66.5242C74.8734 65.8742 75.9934 65.2842 77.0134 64.7442C81.2134 62.5442 83.5134 61.3442 88.9234 56.2242C88.9634 56.1842 89.0134 56.1442 89.0534 56.1142L94.2734 51.5042C97.4634 47.7742 100.583 46.5342 102.973 46.7942H102.983C104.153 46.9142 105.153 47.3742 105.953 48.0742L111.223 35.5142H111.233C111.313 35.3342 111.413 35.1642 111.543 35.0042C113.003 33.2542 114.853 32.2342 116.623 32.0542C117.833 31.9342 119.003 32.1942 120.023 32.8542C120.993 33.4842 121.793 34.4642 122.293 35.8142C123.173 38.1642 123.153 41.8142 121.433 46.8642L118.833 56.0142C118.453 57.3342 118.123 58.6042 117.813 59.7242C116.113 66.0742 115.513 68.3242 109.843 74.8442C105.353 80.0142 100.963 84.1742 96.7434 88.1642C95.6434 89.2342 94.5434 90.2742 93.4234 91.3542ZM89.5234 94.7342C89.2534 94.7942 88.9734 94.7942 88.6934 94.7342H66.3534V102.794H89.8434V94.7342H89.5234Z" fill="url(#paint0_linear_158_710)"/>
<defs>
<linearGradient id="paint0_linear_158_710" x1="61.4334" y1="0.21875" x2="61.4334" y2="106.874" gradientUnits="userSpaceOnUse">
<stop offset="0.9999" stop-color="#54157E"/>
<stop offset="1" stop-color="#9C0AE6"/>
</linearGradient>
</defs>
</svg>
