<svg width="34" height="44" viewBox="0 0 34 44" fill="none" xmlns="http://www.w3.org/2000/svg">
<path d="M32.3122 0.125H1.68717C1.4938 0.125 1.30833 0.201824 1.17157 0.338558C1.03483 0.47532 0.958008 0.660792 0.958008 0.854167V2.60417C0.972445 4.13127 1.35677 5.63213 2.07807 6.97823C2.79936 8.3243 3.83617 9.47554 5.09967 10.3333L11.1663 14.65C12.3928 15.4608 13.4119 16.5485 14.1413 17.8251C15.6685 20.4973 15.6685 23.5027 14.1413 26.1749C13.4119 27.4515 12.3928 28.5392 11.1663 29.35L5.09967 33.6667C3.83617 34.5245 2.79936 35.6757 2.07807 37.0217C1.35677 38.3677 0.972445 39.8687 0.958008 41.3958V43.1458C0.958008 43.3392 1.03483 43.5247 1.17157 43.6615C1.30833 43.7983 1.4938 43.875 1.68717 43.875H32.3122C32.5055 43.875 32.691 43.7983 32.8278 43.6615C32.9646 43.5247 33.0413 43.3392 33.0413 43.1458V41.3958C33.027 39.8687 32.6426 38.3677 31.9213 37.0217C31.2 35.6757 30.1632 34.5245 28.8997 33.6667L22.833 29.35C21.6065 28.5392 20.5875 27.4515 19.858 26.1749C18.3308 23.5027 18.3308 20.4973 19.858 17.8251C20.5875 16.5485 21.6065 15.4608 22.833 14.65L28.8997 10.3333C30.1632 9.47554 31.2 8.3243 31.9213 6.97823C32.6426 5.63213 33.027 4.13127 33.0413 2.60417V0.854167C33.0413 0.660792 32.9646 0.47532 32.8278 0.338558C32.691 0.201824 32.5055 0.125 32.3122 0.125Z" fill="url(#paint0_linear_158_1104)"/>
<defs>
<linearGradient id="paint0_linear_158_1104" x1="16.9997" y1="0.125" x2="16.9997" y2="43.875" gradientUnits="userSpaceOnUse">
<stop offset="0.9999" stop-color="#54157E"/>
<stop offset="1" stop-color="#9C0AE6"/>
</linearGradient>
</defs>
</svg>
