<svg width="73" height="87" viewBox="0 0 73 87" fill="none" xmlns="http://www.w3.org/2000/svg">
<path fill-rule="evenodd" clip-rule="evenodd" d="M22.2076 26.1981C21.4118 26.2264 20.815 26.3893 20.4029 26.6653C20.1684 26.8211 19.9979 27.0193 19.8842 27.26C19.7635 27.5219 19.7066 27.8475 19.7137 28.2156C19.7421 29.2987 20.3177 30.7145 21.4189 32.3427L21.4331 32.364L25.007 38.0272C26.4422 40.2996 27.9413 42.6144 29.8099 44.3134C31.6075 45.9486 33.7816 47.053 36.6663 47.0601C39.7853 47.0671 42.0661 45.9203 43.9205 44.193C45.8459 42.395 47.3664 39.9315 48.8655 37.475L52.8941 30.8703C53.6472 29.1642 53.9172 28.0245 53.7467 27.352C53.6472 26.9556 53.2067 26.7574 52.4536 26.722C52.2972 26.7149 52.1267 26.7149 51.9633 26.7149C51.7857 26.722 51.5938 26.729 51.402 26.7503C51.2954 26.7574 51.1889 26.7503 51.0894 26.729C50.7341 26.7503 50.3647 26.722 49.9881 26.6724L51.3665 20.5915C41.1353 22.1985 33.4832 14.631 22.6694 19.0766L23.451 26.2406C22.9962 26.2689 22.5841 26.2548 22.2076 26.1981ZM48.3682 74.1728V77.5919L41.3129 81.5775V77.5919L45.853 75.8717L41.3129 74.1728V70.1873L48.3682 74.1728ZM36.1476 82.703H33.1422L36.851 68.3043H39.8564L36.1476 82.703ZM31.1315 74.1728L26.5914 75.8717L31.1315 77.5919V81.5775L24.0762 77.5919V74.1728L31.1315 70.1873V74.1728ZM53.8106 24.9168C53.9598 18.7085 55.1037 12.4365 50.6702 7.34664C47.5085 3.71509 39.2809 0.295912 33.945 0.00567176C31.6928 -0.114672 32.5525 1.71172 30.3286 2.47626C25.7388 4.05488 21.7244 7.41035 20.41 12.0684C20.1969 12.8329 20.0477 13.6045 19.9695 14.3761C19.8203 17.6183 19.9056 21.4835 20.14 24.5558C19.8203 24.6761 19.529 24.8248 19.2732 24.9947C18.719 25.3628 18.314 25.8442 18.0441 26.4176C17.7883 26.9627 17.6746 27.5856 17.6959 28.2723C17.7385 29.7306 18.4135 31.5003 19.7208 33.4471L23.2946 39.1103C24.5451 41.0924 25.8524 43.11 27.444 44.816C27.3658 45.0425 27.4511 44.7948 27.4013 44.9434C26.9608 46.2743 26.2219 48.4971 25.5611 49.743C21.22 52.5746 11.2801 53.3038 7.42208 55.4487C-3.10752 61.296 0.693651 73.3516 0.565761 83.3118C0.771806 85.5346 2.0365 86.8089 4.52324 87H7.21604L4.26746 64.701C4.0401 62.9667 5.27637 61.5438 6.79684 61.5438H20.6303H36.9576C36.3963 57.9335 27.0248 54.4506 26.6908 51.7322C26.7832 51.6685 26.8685 51.5836 26.9395 51.4845C27.7353 50.3801 28.5595 48.0794 29.1279 46.4017C31.1386 48.0228 33.5543 49.0847 36.6591 49.0917C39.4443 49.0988 41.6682 48.3272 43.5368 47.0742C43.7215 47.3361 43.9062 47.6122 44.1052 47.9025C44.9933 49.205 46.0306 50.7128 46.9969 51.7889C46.7909 54.8824 38.6628 54.9178 37.7391 61.5438H66.6849C68.2053 61.5438 69.4487 62.9667 69.2142 64.701L66.2657 87H68.9585C71.4452 86.8089 72.7099 85.5346 72.923 83.3118C72.2197 73.9038 75.7579 60.8288 66.0667 55.4487C62.2585 53.3321 52.5246 52.5959 48.0982 49.8563C47.3522 48.936 46.5493 47.7609 45.8388 46.7273C45.6114 46.3875 45.3912 46.069 45.1851 45.7787L45.2917 45.6867C47.4161 43.7046 49.0147 41.1207 50.5849 38.544L54.6561 31.8614C54.6774 31.826 54.6987 31.7835 54.7201 31.7481C55.6721 29.589 55.9847 28.0033 55.7005 26.8848C55.4377 25.8442 54.8053 25.2212 53.8106 24.9168Z" fill="#212121"/>
</svg>
