<svg width="51" height="50" viewBox="0 0 51 50" fill="none" xmlns="http://www.w3.org/2000/svg">
<path fill-rule="evenodd" clip-rule="evenodd" d="M25.0151 0C38.8124 0 50.0151 11.1878 50.0151 25C50.0151 38.7972 38.8274 50 25.0151 50C11.2179 50 0.0151367 38.8122 0.0151367 25C0.0151367 11.2028 11.2029 0 25.0151 0ZM19.1663 11.2777H30.864C35.2581 11.2777 38.8424 14.832 38.8424 19.1512V30.8188C38.8424 35.153 35.2581 38.6923 30.864 38.6923H19.1663C14.7722 38.6923 11.1879 35.153 11.1879 30.8188V19.1512C11.1879 14.817 14.7872 11.2777 19.1663 11.2777ZM24.9402 17.5915C29.2143 17.5915 32.6786 21.0558 32.6786 25.3299C32.6786 29.6041 29.2143 33.0684 24.9402 33.0684C20.666 33.0684 17.2017 29.6041 17.2017 25.3299C17.2017 21.0558 20.666 17.5915 24.9402 17.5915ZM24.9402 20.201C27.7596 20.201 30.0541 22.4955 30.0541 25.3149C30.0541 28.1344 27.7596 30.4289 24.9402 30.4289C22.1057 30.4289 19.8262 28.1344 19.8262 25.3149C19.8262 22.4955 22.1207 20.201 24.9402 20.201ZM32.4237 16.5117C33.1135 16.5117 33.6834 17.0666 33.6834 17.7714C33.6834 18.4613 33.1285 19.0312 32.4237 19.0312C31.7338 19.0312 31.1639 18.4763 31.1639 17.7714C31.1639 17.0816 31.7188 16.5117 32.4237 16.5117ZM20.1261 13.5123H29.9042C33.5784 13.5123 36.5778 16.4967 36.5778 20.156V29.994C36.5778 33.6533 33.5784 36.6377 29.9042 36.6377H20.1261C16.4518 36.6377 13.4524 33.6533 13.4524 29.994V20.156C13.4524 16.4967 16.4518 13.5123 20.1261 13.5123Z" fill="white"/>
</svg>
