<svg width="64" height="46" viewBox="0 0 64 46" fill="none" xmlns="http://www.w3.org/2000/svg">
<path fill-rule="evenodd" clip-rule="evenodd" d="M53.5781 46V44.9755H24.151C20.9688 44.9755 20.8177 38.6369 24.151 38.6369H26.474H60.8073C61.0208 38.6369 61.1979 38.818 61.1979 39.025V44.5874C61.1979 44.7944 61.0208 44.9755 60.8073 44.9755H59.0469V46H53.5781ZM0 46V26.0218C0 23.802 1.10417 21.8306 2.79167 20.6146C5.11458 18.9433 11.5938 18.7933 14.0573 20.2058C16.6771 21.7064 16.6667 24.8628 18.9271 27.0567C21.9531 29.9957 21.1927 30.3321 25.3177 30.3321H33.5833C40.9531 30.3321 36.9896 37.452 32.6302 37.2295H25.1094C21.4688 37.2295 21.1615 37.809 18.1563 35.822L17.9948 46H0ZM40.7031 37.2709C39.6406 37.2709 38.776 36.4119 38.776 35.3564C38.776 34.3008 39.6406 33.4418 40.7031 33.4418H53.7292L60.3594 20.0351C60.8229 19.0882 61.974 18.7001 62.9219 19.1606C63.875 19.6211 64.2656 20.7647 63.8021 21.7064L56.7188 36.029C56.4427 36.7483 55.7396 37.2605 54.9167 37.2605H40.7031V37.2709ZM13.3698 0C18.4479 0 22.5625 4.08774 22.5625 9.13273C22.5625 14.1777 18.4479 18.2655 13.3698 18.2655C8.29167 18.2655 4.17708 14.1777 4.17708 9.13273C4.17708 4.08774 8.29167 0 13.3698 0Z" fill="url(#paint0_linear_513_1577)"/>
<defs>
<linearGradient id="paint0_linear_513_1577" x1="31.9985" y1="0" x2="31.9985" y2="46" gradientUnits="userSpaceOnUse">
<stop offset="0.9999" stop-color="#54157E"/>
<stop offset="1" stop-color="#9C0AE6"/>
</linearGradient>
</defs>
</svg>
