<svg width="90" height="94" viewBox="0 0 90 94" fill="none" xmlns="http://www.w3.org/2000/svg">
<path fill-rule="evenodd" clip-rule="evenodd" d="M15.319 0.632816C16.8327 0.632817 18.3124 1.08121 19.5709 1.92128C20.8294 2.76135 21.8102 3.95534 22.3891 5.35221C22.968 6.74907 23.1191 8.28605 22.8232 9.76869C22.5274 11.2513 21.7979 12.613 20.727 13.6815C19.6561 14.75 18.292 15.4772 16.8071 15.7712C15.3223 16.0653 13.7836 15.9128 12.3855 15.3333C10.9875 14.7537 9.79293 13.773 8.95305 12.5153C8.11316 11.2575 7.66567 9.77923 7.66716 8.26743C7.66716 7.2642 7.86514 6.27081 8.24977 5.34404C8.63441 4.41727 9.19816 3.5753 9.90879 2.86627C10.6194 2.15723 11.463 1.59502 12.3913 1.21179C13.3197 0.828563 14.3145 0.631822 15.319 0.632816ZM73.1169 65.8335C74.4313 65.8319 75.7166 66.2199 76.8102 66.9481C77.9039 67.6764 78.7567 68.7122 79.2607 69.9246C79.7648 71.137 79.8974 72.4715 79.6419 73.7592C79.3864 75.0469 78.7542 76.23 77.8253 77.1588C76.8964 78.0876 75.7125 78.7204 74.4234 78.977C73.1344 79.2337 71.7981 79.1027 70.5836 78.6007C69.369 78.0987 68.3309 77.2482 67.6005 76.1567C66.8701 75.0653 66.4802 73.782 66.4802 72.4693C66.4802 70.7107 67.1792 69.0239 68.4236 67.7797C69.668 66.5355 71.356 65.8354 73.1169 65.8335ZM20.2889 65.8335C21.6033 65.8319 22.8887 66.2199 23.9823 66.9481C25.0759 67.6764 25.9287 68.7122 26.4328 69.9246C26.9368 71.137 27.0695 72.4715 26.8139 73.7592C26.5584 75.0469 25.9262 76.23 24.9973 77.1588C24.0684 78.0876 22.8845 78.7204 21.5955 78.977C20.3064 79.2337 18.9701 79.1027 17.7556 78.6007C16.5411 78.0987 15.503 77.2482 14.7725 76.1567C14.0421 75.0653 13.6523 73.782 13.6523 72.4693C13.6523 70.7107 14.3512 69.0239 15.5956 67.7797C16.84 66.5355 18.5281 65.8354 20.2889 65.8335ZM16.1145 80.0812C14.577 80.2455 13.1144 80.8293 11.887 81.7685C10.321 83.0572 9.06519 84.6812 8.21264 86.5203C7.27728 88.4996 6.76143 90.6506 6.69743 92.8383L6.58379 93.595H12.281L12.3719 92.5886C12.3914 91.5804 12.5996 90.5847 12.9856 89.6528C13.17 89.1898 13.4256 88.7584 13.7432 88.3741L13.8492 93.595H26.668L26.7286 90.1219V90.3489L26.7664 88.3741C27.084 88.7584 27.3397 89.1898 27.5241 89.6528C27.9101 90.5847 28.1182 91.5804 28.1377 92.5886L28.2286 93.595H28.668C28.6567 93.4363 28.6567 93.277 28.668 93.1183L28.7741 92.3616C28.8585 91.0893 29.0357 89.8249 29.3044 88.5784C29.6388 87.2089 30.1268 85.8814 30.759 84.6211L30.9712 84.1898C30.2623 83.0502 29.302 82.0876 28.1635 81.3755C27.0251 80.6634 25.7387 80.2206 24.4027 80.0812C22.1299 79.8996 18.3419 80.0812 16.1145 80.0812ZM46.7067 63.7981C48.117 63.7981 49.4956 64.2158 50.6682 64.9985C51.8407 65.7812 52.7544 66.8937 53.2938 68.1952C53.8332 69.4966 53.9739 70.9286 53.6982 72.31C53.4225 73.6914 52.7428 74.96 51.745 75.9555C50.7472 76.9509 49.4762 77.6285 48.0928 77.9023C46.7094 78.1762 45.2758 78.0341 43.9732 77.4941C42.6707 76.954 41.5578 76.0402 40.7754 74.8683C39.9929 73.6965 39.5761 72.3191 39.5776 70.9106C39.5776 69.9759 39.762 69.0504 40.1204 68.187C40.4788 67.3236 41.004 66.5391 41.6661 65.8786C42.3282 65.218 43.1142 64.6943 43.9791 64.3373C44.844 63.9803 45.7708 63.7971 46.7067 63.7981ZM42.2216 79.0597C40.5687 79.2385 38.9964 79.8666 37.676 80.8757C35.9986 82.2684 34.655 84.0188 33.744 85.9982C32.737 88.1318 32.1825 90.4503 32.1152 92.8081L31.9939 93.6328H38.1154L38.2139 92.5508C38.2376 91.47 38.4611 90.4029 38.873 89.4031C39.0752 88.9042 39.3538 88.4396 39.6988 88.026L39.8124 93.6328H53.5479L53.616 89.9101V90.1522L53.6615 88.026C54.0012 88.4433 54.2793 88.9071 54.4873 89.4031C54.8956 90.404 55.1189 91.4704 55.1464 92.5508L55.2449 93.6328H61.3588L61.2452 92.7854C61.1814 90.4271 60.6266 88.1079 59.6163 85.9755C57.6238 81.7685 55.0707 79.544 51.1235 79.0824C48.7068 78.8857 44.6536 79.0824 42.2292 79.037L42.2216 79.0597ZM68.9424 80.0812C67.4022 80.2438 65.9368 80.8276 64.7074 81.7685C63.8418 82.4788 63.0771 83.3035 62.4346 84.2201L62.624 84.6135C63.2479 85.8938 63.7208 87.2421 64.0331 88.6313C64.3029 89.8774 64.4777 91.1421 64.5559 92.4146L64.6392 92.9594C64.6792 93.174 64.6995 93.3918 64.6998 93.6101H65.1393L65.2302 92.6038C65.2561 91.5955 65.4667 90.6005 65.8514 89.668C66.0356 89.2048 66.2912 88.7734 66.609 88.3892L66.7151 93.6101H79.5035L79.5641 90.1371V90.3641L79.6096 88.3892C79.9247 88.7752 80.1801 89.2063 80.3672 89.668C80.7532 90.5998 80.9613 91.5955 80.9808 92.6038L81.0717 93.6101H86.7765L86.6629 92.8535C86.6031 90.6651 86.087 88.5133 85.1477 86.5354C83.2915 82.616 80.8899 80.5427 77.2382 80.1115C74.9654 79.9299 71.1774 80.1115 68.9576 80.1115L68.9424 80.0812ZM38.0245 28.7348L46.593 19.7534C46.8351 19.4985 47.1687 19.3502 47.5204 19.341C47.872 19.3317 48.2129 19.4624 48.4681 19.7042C48.7233 19.946 48.8718 20.2792 48.8811 20.6304C48.8903 20.9816 48.7595 21.3221 48.5173 21.5769L40.4413 30.0363C40.8797 30.5657 41.1577 31.2092 41.2427 31.891C41.3276 32.5728 41.2159 33.2646 40.9208 33.8852C40.6256 34.5058 40.1592 35.0294 39.5763 35.3944C38.9935 35.7594 38.3185 35.9507 37.6305 35.9457V46.4632H79.7762V12.4895H37.6305V28.6289L38.0245 28.7046V28.7348ZM56.6313 55.3538V49.2098H28.9484C28.7592 49.2239 28.5692 49.1988 28.3902 49.1361C28.2112 49.0734 28.047 48.9746 27.908 48.8457C27.769 48.7168 27.6581 48.5606 27.5823 48.387C27.5065 48.2133 27.4674 48.0259 27.4674 47.8365C27.4674 47.6471 27.5065 47.4597 27.5823 47.286C27.6581 47.1124 27.769 46.9562 27.908 46.8273C28.047 46.6984 28.2112 46.5996 28.3902 46.5369C28.5692 46.4742 28.7592 46.4491 28.9484 46.4632H34.8804V35.4766L28.0165 34.16C27.1013 33.9923 26.2867 33.4771 25.7437 32.7224L22.7966 28.7046V28.8105L22.5617 42.2032L25.5088 59.0614L26.2664 64.6606C26.2736 64.7488 26.2736 64.8373 26.2664 64.9255C25.1589 64.0478 23.8706 63.4258 22.494 63.104C21.1173 62.7822 19.6865 62.7686 18.304 63.0641L15.3114 45.9562L12.0007 65.0617C11.2431 69.193 4.52309 69.2232 4.47006 64.2142L8.21264 42.347L7.9096 29.0602L7.85657 26.7902C7.48884 27.2475 7.19254 27.7577 6.97774 28.3035C6.53685 29.3679 6.29546 30.5041 6.26559 31.6555L5.61405 40.1678V40.304V40.3646V40.41V40.531V40.7807V40.8488V40.8867V40.9623C4.34127 42.7178 1.18205 43.2323 0.000177679 40.9623V40.8942V40.8413V40.7959V40.7429V40.6748V40.6067V40.5537V40.4781V40.7353V40.6521V40.5991V40.531V40.4705V40.357V40.2511V40.1905C-0.00686978 37.43 0.19574 34.6729 0.606264 31.943C0.242612 24.8457 3.8564 17.665 11.584 17.09C13.8568 16.9235 16.1751 17.1505 18.4025 17.1505C19.9013 17.1309 21.3909 17.3874 22.7966 17.9072C23.6337 18.1024 24.3729 18.591 24.88 19.2843L30.7136 27.3275L34.8728 28.1295V12.4895H28.9484C28.7592 12.5036 28.5692 12.4785 28.3902 12.4158C28.2112 12.3532 28.047 12.2543 27.908 12.1254C27.769 11.9965 27.6581 11.8403 27.5823 11.6667C27.5065 11.4931 27.4674 11.3057 27.4674 11.1162C27.4674 10.9268 27.5065 10.7394 27.5823 10.5657C27.6581 10.3921 27.769 10.2359 27.908 10.107C28.047 9.97814 28.2112 9.87927 28.3902 9.81662C28.5692 9.75396 28.7592 9.72886 28.9484 9.7429H56.4116V5.74778C56.3976 5.55886 56.4227 5.36908 56.4854 5.1903C56.5482 5.01152 56.6472 4.8476 56.7762 4.70877C56.9053 4.56994 57.0616 4.4592 57.2355 4.38348C57.4094 4.30775 57.597 4.26867 57.7867 4.26867C57.9764 4.26867 58.164 4.30775 58.3379 4.38348C58.5117 4.4592 58.6681 4.56994 58.7971 4.70877C58.9262 4.8476 59.0252 5.01152 59.0879 5.1903C59.1507 5.36908 59.1758 5.55886 59.1617 5.74778V9.71263H88.3599C88.5491 9.6986 88.7391 9.72369 88.9181 9.78635C89.0971 9.84901 89.2612 9.94787 89.4002 10.0768C89.5392 10.2057 89.6501 10.3618 89.7259 10.5355C89.8018 10.7091 89.8409 10.8965 89.8409 11.086C89.8409 11.2754 89.8018 11.4628 89.7259 11.6364C89.6501 11.8101 89.5392 11.9662 89.4002 12.0951C89.2612 12.224 89.0971 12.3229 88.9181 12.3856C88.7391 12.4482 88.5491 12.4733 88.3599 12.4593H82.5036V46.4329H88.519C88.7082 46.4189 88.8982 46.444 89.0772 46.5066C89.2562 46.5693 89.4203 46.6682 89.5593 46.7971C89.6983 46.9259 89.8092 47.0821 89.885 47.2557C89.9609 47.4294 90 47.6168 90 47.8062C90 47.9957 89.9609 48.1831 89.885 48.3567C89.8092 48.5304 89.6983 48.6865 89.5593 48.8154C89.4203 48.9443 89.2562 49.0432 89.0772 49.1058C88.8982 49.1685 88.7082 49.1936 88.519 49.1796H59.3511V55.4673C59.4269 55.5127 59.4724 55.5657 59.5481 55.6111L68.1318 63.7829C68.2323 63.8742 68.3168 63.9816 68.3818 64.1007C67.7201 64.4914 67.105 64.9559 66.5484 65.4854L66.3439 65.667L66.2757 65.7427L59.3511 59.2279V65.16C59.3254 65.5066 59.1693 65.8307 58.9143 66.0672C58.6592 66.3037 58.3241 66.4351 57.9761 66.4351C57.6281 66.4351 57.2929 66.3037 57.0379 66.0672C56.7829 65.8307 56.6268 65.5066 56.601 65.16V58.9631L52.9115 62.5042C52.1364 61.9437 51.2874 61.493 50.3886 61.1649L56.6313 55.3614V55.3538Z" fill="url(#paint0_linear_158_705)"/>
<defs>
<linearGradient id="paint0_linear_158_705" x1="45" y1="0.632812" x2="45" y2="93.6328" gradientUnits="userSpaceOnUse">
<stop offset="0.9999" stop-color="#54157E"/>
<stop offset="1" stop-color="#9C0AE6"/>
</linearGradient>
</defs>
</svg>
