<svg width="48" height="60" viewBox="0 0 48 60" fill="none" xmlns="http://www.w3.org/2000/svg">
<path d="M0.666992 14.682C0.666992 11.0572 3.6053 8.11868 7.22987 8.11868H33.4812C37.1058 8.11868 40.0443 11.0572 40.0443 14.682V56.9788C40.0443 57.7622 39.6255 58.4858 38.9462 58.8758C38.2669 59.266 37.431 59.2634 36.7543 58.8685L20.3557 49.3021L3.95691 58.8685C3.2803 59.2634 2.44429 59.266 1.76506 58.8758C1.0858 58.4858 0.666992 57.7622 0.666992 56.9788V14.682ZM33.4786 0.833252C41.1305 0.833252 47.3337 7.03674 47.3337 14.6891V49.3176C47.3337 50.5257 46.3542 51.5054 45.1462 51.5054C43.9378 51.5054 42.9584 50.5257 42.9584 49.3176V14.6891C42.9584 9.45325 38.7143 5.20878 33.4786 5.20878H8.35786C8.35786 5.20878 8.68829 3.58481 10.6822 2.05674C12.3343 0.833252 14.089 0.833252 14.089 0.833252H33.4786Z" fill="url(#paint0_linear_158_1114)"/>
<defs>
<linearGradient id="paint0_linear_158_1114" x1="24.0003" y1="0.833252" x2="24.0003" y2="59.1666" gradientUnits="userSpaceOnUse">
<stop offset="0.9999" stop-color="#54157E"/>
<stop offset="1" stop-color="#9C0AE6"/>
</linearGradient>
</defs>
</svg>
