<svg width="89" height="115" viewBox="0 0 89 115" fill="none" xmlns="http://www.w3.org/2000/svg">
<path d="M31.2409 87.2182C31.5919 81.048 25.2069 76.9822 21.6279 72.7102C17.5689 67.8654 14.8299 62.0579 13.5479 55.947C12.2789 49.9032 12.4949 43.6357 14.5049 37.7688C16.3619 32.3484 19.6939 27.5425 23.8399 23.5262C32.6419 15.0007 45.7999 12.5783 57.3269 16.8455C63.1469 18.9994 68.4419 22.9885 71.6549 28.2164C73.6039 31.3885 74.5169 34.9613 74.9989 38.5993C75.4949 42.3374 75.6759 46.1417 75.3519 49.9012C74.6919 57.5554 71.3939 64.6057 66.4299 70.526C64.0409 73.3753 61.2529 75.7841 58.5859 78.3708C56.0929 80.7884 53.7699 83.5385 53.6229 87.0957C53.5649 88.5038 55.8529 88.8276 56.1699 87.4312C56.9099 84.1725 59.0359 81.7929 61.4589 79.5543C64.0089 77.2 66.5149 74.8651 68.7079 72.1802C73.1789 66.7072 76.5569 60.3463 77.7559 53.4088C78.4209 49.5589 78.5349 45.637 78.2179 41.7481C77.9079 37.9419 77.3839 34.0278 75.9409 30.454C73.4509 24.2887 68.3819 19.2552 62.4499 16.1045C51.1529 10.1044 36.6049 10.4749 25.8339 17.4153C14.8669 24.4822 8.3439 36.8392 8.8149 49.6328C9.0629 56.3544 11.2099 62.9107 14.7309 68.6832C16.4729 71.5383 18.5999 74.2058 21.0289 76.5407C23.3259 78.7501 26.0789 80.6765 27.9619 83.2584C28.8729 84.508 29.5919 85.8918 29.9529 87.3875C30.1279 88.1149 31.2019 87.9135 31.2409 87.2182Z" fill="#33295B"/>
<path d="M28.8629 81.8221C29.8349 82.991 29.3589 84.4195 29.4629 85.7712C29.5529 86.9508 30.0099 88.1703 31.0389 88.8695C32.5459 89.8925 34.7919 89.8575 36.5569 89.9878C38.5669 90.1356 40.5809 90.2737 42.5949 90.3515C44.6119 90.4293 46.6319 90.4429 48.6499 90.3992C50.3849 90.3612 52.5929 90.5723 54.2149 89.8721C55.4339 89.346 56.2679 88.251 56.5389 86.9868C56.8399 85.5826 56.1629 84.473 55.6029 83.2351C55.3629 82.7041 54.6709 83.061 54.6129 83.4957C54.4799 84.4964 54.0429 85.4202 53.7409 86.3917C53.3019 87.8037 51.8899 87.58 50.5869 87.6277C47.2779 87.7492 43.9629 87.6948 40.6599 87.477C39.0169 87.369 37.3919 87.1813 35.7629 86.9508C34.5559 86.7797 32.9819 86.9217 32.1979 85.8704C31.1319 84.44 30.7869 82.4406 29.0149 81.6315C28.8829 81.5712 28.7729 81.7142 28.8629 81.8221Z" fill="#33295B"/>
<path d="M29.2248 83.9693C29.1698 84.9417 29.5548 85.7421 29.8068 86.6785C30.1228 87.8542 30.1208 89.1223 30.0728 90.3301C29.9708 92.9227 29.1878 95.4374 28.9428 98.0164C28.6978 100.594 29.1348 103.079 30.4568 105.339C31.6308 107.346 33.2928 109.397 35.0868 110.918C37.2148 112.721 39.8818 112.509 42.5358 112.701C43.9958 112.807 45.4538 112.947 46.9118 113.07C48.2008 113.179 49.6608 113.473 50.8738 112.875C51.8608 112.387 52.6258 111.452 53.3538 110.666C54.1638 109.791 54.9318 108.875 55.6328 107.915C57.0918 105.919 58.2308 103.649 58.5858 101.207C59.0278 98.172 57.9598 95.4034 57.1398 92.5269C56.7688 91.2248 56.5848 90.0909 56.7358 88.7499C56.8778 87.4905 56.9028 86.1933 57.2438 84.9641C57.3858 84.4526 56.8058 84.0325 56.3368 84.2863C51.8748 86.7077 54.5448 92.5668 55.5748 96.1785C56.2548 98.561 56.3628 100.824 55.4448 103.162C54.5738 105.378 53.0478 107.329 51.4238 109.071C50.6238 109.929 50.0268 110.779 48.7498 110.701C47.3268 110.615 45.8988 110.396 44.4818 110.242C43.1498 110.098 41.8238 109.936 40.4958 109.755C39.2668 109.588 38.0628 109.527 37.0608 108.735C35.3018 107.344 33.4868 105.498 32.4108 103.552C31.0778 101.139 31.3478 98.4939 31.8428 95.8955C32.3048 93.4643 32.9488 90.9768 32.6128 88.4902C32.3748 86.731 31.6298 83.908 29.4358 83.7641C29.3178 83.7563 29.2308 83.8652 29.2248 83.9693Z" fill="#33295B"/>
<path d="M35.0435 110.845C35.0645 110.44 35.0375 109.981 35.1075 109.584C35.1515 109.332 35.2285 109.31 35.0915 109.46C35.2555 109.279 35.5745 109.17 35.7995 109.085C37.1125 108.585 38.5625 108.289 39.9235 107.933C42.9705 107.131 46.0075 106.294 49.0165 105.369C51.7885 104.517 54.7095 103.808 57.3745 102.672C59.5315 101.752 61.5495 99.4255 60.5895 96.9885C59.7245 94.7927 56.5185 96.055 57.5055 98.2527C57.7925 98.8936 57.6335 98.2323 57.5805 98.5211C57.5345 98.7701 57.4525 98.9966 57.2935 99.2009C56.9135 99.6881 56.2245 99.9885 55.6675 100.224C54.2455 100.823 52.7325 101.28 51.2655 101.762C48.2035 102.771 45.0845 103.649 41.9665 104.48C40.4045 104.897 38.8415 105.305 37.2595 105.643C36.0095 105.911 34.6885 106.087 33.5365 106.661C32.4665 107.193 31.4665 108.144 31.2745 109.334C31.0715 110.592 31.7525 112.032 33.1515 112.245C34.1355 112.395 34.9915 111.867 35.0435 110.845Z" fill="#33295B"/>
<path d="M30.1327 103.67C30.9187 103.044 30.5777 101.935 31.0767 101.148C31.6997 100.165 32.9187 99.6695 33.9997 99.3408C36.7897 98.4919 39.6567 97.853 42.4637 97.0546C45.2347 96.2669 47.9897 95.4315 50.7317 94.5524C52.9897 93.828 56.0137 93.3612 57.5287 91.3959C58.1437 90.5985 58.6457 89.6347 58.4247 88.6098C58.2437 87.7764 57.2587 86.835 56.2947 87.1608C55.6607 87.3757 55.3857 88.2597 55.2977 88.8179C55.2147 89.3411 55.2247 89.6182 54.7857 89.9917C54.2787 90.4234 53.5467 90.6558 52.9307 90.8834C47.5447 92.873 41.9547 94.4309 36.3777 95.8244C33.8077 96.4672 30.3867 96.6909 28.6287 98.8711C27.8137 99.8825 27.2737 101.215 27.6107 102.506C27.8907 103.584 29.0847 104.505 30.1327 103.67Z" fill="#33295B"/>
<path d="M34.5335 48.8353C34.3365 55.3041 34.3395 61.7622 34.3105 68.2319C34.2965 71.4157 34.4425 74.618 34.6085 77.797C34.6915 79.3899 34.7845 80.9818 34.8885 82.5737C34.9935 84.185 34.9245 85.8878 35.2735 87.4671C35.6115 88.9948 37.9665 88.5942 38.0055 87.1073C38.0465 85.5387 37.6565 83.9001 37.4945 82.3354C37.3305 80.7435 37.1765 79.1516 37.0325 77.5587C36.7435 74.371 36.5055 71.1794 36.2125 67.9927C35.6275 61.6367 35.3605 55.2136 35.2375 48.8353C35.2275 48.3948 34.5465 48.3948 34.5335 48.8353Z" fill="#33295B"/>
<path d="M55.2078 53.4856C53.7468 59.542 52.1168 65.5645 50.8268 71.6598C50.1978 74.6297 49.5738 77.5976 49.0018 80.5782C48.7008 82.1477 48.4138 83.7183 48.1398 85.2927C47.9038 86.6454 47.3668 88.0049 48.3138 89.1611C48.5648 89.4684 49.1708 89.5248 49.4968 89.3099C50.7108 88.5086 50.6048 87.0606 50.7918 85.7565C51.0088 84.2483 51.2238 82.74 51.4388 81.2317C51.8798 78.1334 52.3128 75.0313 52.7888 71.9379C53.7298 65.8231 54.5218 59.6908 55.6598 53.6062C55.7138 53.3222 55.2778 53.1958 55.2078 53.4856Z" fill="#33295B"/>
<path d="M30.3337 56.4312C32.6797 57.8072 34.9277 57.9249 37.5577 57.2131C39.9817 56.5566 42.2067 55.3236 44.1827 53.825C47.1747 51.5543 52.6387 46.199 50.1097 42.1059C47.3277 37.6005 42.9988 44.5225 42.3018 47.0149C41.1838 51.0166 42.2447 55.5881 45.5827 58.311C47.4537 59.8367 49.7527 60.7129 52.1737 60.9531C54.7067 61.204 56.9138 60.5398 58.7578 58.8195C59.2158 58.3926 58.7448 57.6254 58.1418 57.7907C55.3038 58.5716 51.8557 58.7544 49.1127 57.5631C46.1137 56.26 44.1428 53.542 43.9248 50.3485C43.8208 48.8198 44.0707 47.2794 44.6947 45.8693C45.0917 44.9718 46.9918 41.7432 48.3048 42.6573C50.0908 43.9001 48.0928 47.01 47.2437 48.1964C46.1847 49.6775 44.8957 51.0049 43.4707 52.1572C41.7717 53.5304 39.7968 54.6623 37.7288 55.4228C35.5538 56.2221 32.7277 56.7025 30.4367 56.1968C30.2917 56.1638 30.2017 56.3544 30.3337 56.4312Z" fill="#33295B"/>
<path d="M41.3548 114.025C41.6358 114.207 41.9518 114.32 42.2788 114.394C42.4898 114.442 42.7068 114.453 42.9188 114.498C42.7808 114.441 42.6428 114.385 42.5058 114.328C42.5388 114.343 42.5718 114.358 42.6038 114.372C42.3328 114.029 42.0618 113.687 41.7908 113.343C41.7958 113.361 41.8018 113.377 41.8068 113.395C41.8658 113.638 41.9808 113.849 42.1498 114.029C42.2348 114.169 42.3498 114.281 42.4938 114.363C42.5598 114.432 42.6348 114.486 42.7198 114.525C43.0208 114.695 43.3458 114.781 43.6948 114.782C44.0438 114.781 44.3688 114.695 44.6698 114.525C44.9598 114.358 45.1908 114.133 45.3628 113.851C45.5378 113.558 45.6258 113.242 45.6268 112.903C45.6458 112.526 45.5258 112.118 45.3078 111.807C45.1968 111.649 45.0758 111.497 44.9458 111.354C44.9318 111.338 44.9168 111.323 44.9018 111.309C44.7278 111.127 44.5228 110.999 44.2848 110.924C44.0568 110.807 43.8098 110.754 43.5468 110.763C43.3688 110.767 43.1948 110.791 43.0248 110.833C42.5488 110.963 42.1438 111.268 41.8938 111.682C41.6338 112.115 41.5608 112.64 41.6978 113.123C41.7618 113.351 41.8488 113.473 41.9348 113.653C41.8698 113.503 41.8048 113.354 41.7398 113.204C41.7588 113.247 41.7728 113.29 41.7868 113.335C41.8228 113.449 41.9348 113.713 41.9968 113.816C42.0778 113.949 42.2268 114.113 42.3288 114.232C42.6128 113.186 42.8968 112.139 43.1808 111.092C43.1688 111.096 43.1568 111.099 43.1448 111.102C42.8958 111.159 42.6778 111.271 42.4928 111.435C42.3488 111.518 42.2338 111.63 42.1488 111.77C42.0728 111.842 42.0118 111.924 41.9678 112.017C42.3208 111.753 42.6728 111.49 43.0258 111.226C42.9898 111.235 42.9538 111.245 42.9178 111.253C43.0708 111.233 43.2238 111.214 43.3778 111.193C43.1538 111.201 42.9298 111.174 42.7048 111.185C42.6518 111.188 42.5998 111.191 42.5468 111.193C42.5208 111.194 42.4938 111.195 42.4678 111.197C42.3228 111.207 42.1358 111.224 41.9938 111.26C41.7718 111.316 41.5638 111.418 41.3548 111.505C41.1298 111.635 40.9498 111.81 40.8168 112.028C40.6808 112.256 40.6128 112.501 40.6118 112.765C40.6128 113.028 40.6808 113.273 40.8168 113.501C40.9498 113.722 41.1298 113.896 41.3548 114.025Z" fill="#33295B"/>
<path d="M0.0687164 25.0889C0.219716 25.3106 0.228712 25.5809 0.395712 25.8202C0.600712 26.1139 0.915721 26.3735 1.19872 26.5972C1.70272 26.9959 2.1887 27.4121 2.6877 27.8147C2.9767 28.0481 3.26671 28.2708 3.57271 28.4837C3.69771 28.5703 3.82171 28.6568 3.94671 28.7443C4.02971 28.8017 4.1117 28.861 4.1957 28.9174C4.2497 28.9544 4.38771 29.0429 4.25771 28.9534C4.86371 29.3706 5.4437 29.8257 6.0497 30.2439C6.8547 30.7992 7.76772 31.3826 8.76272 30.8507C9.39172 30.5142 9.6677 29.7392 9.4807 29.0798C9.3207 28.5158 8.78671 28.1229 8.30471 27.8157C7.20171 27.1145 5.9787 26.5748 4.8297 25.9485C4.7637 25.9125 4.69772 25.8717 4.62972 25.8396C4.65372 25.8513 4.13671 25.6218 4.34771 25.721C4.10571 25.6062 3.8677 25.5022 3.6187 25.4001C3.4697 25.3388 3.05871 25.1521 2.81371 25.0373C2.45571 24.8701 2.10172 24.7155 1.72872 24.5842C1.51372 24.5083 1.31171 24.4218 1.07671 24.4198C0.881712 24.4179 0.722692 24.5113 0.543692 24.485C0.215692 24.4383 -0.156284 24.7582 0.0687164 25.0889Z" fill="#33295B"/>
<path d="M15.7276 8.82456C15.7906 9.01224 15.8526 9.1999 15.9156 9.38759C15.9156 9.28742 15.9156 9.18825 15.9156 9.08809C15.8546 9.45568 15.9646 9.73768 16.0936 10.0761C16.2076 10.3756 16.3746 10.6693 16.5436 10.9425C16.7086 11.208 16.8516 11.5387 17.0236 11.8324C17.1826 12.1056 17.3556 12.373 17.4836 12.6609C17.7346 13.2288 18.1046 13.7714 18.4316 14.3024C18.8226 14.9374 19.2196 15.5384 19.7226 16.0976C20.2056 16.6363 21.1166 16.6198 21.6616 16.2094C22.2396 15.7747 22.4126 14.9831 22.0416 14.3569C21.6546 13.7034 21.1526 13.1306 20.6516 12.5568C20.2076 12.0492 19.7526 11.5591 19.2716 11.0865C19.0326 10.8511 18.8186 10.5876 18.5936 10.3396C18.3676 10.0907 18.1186 9.86605 17.8876 9.62002C17.6536 9.37107 17.4046 9.15711 17.1376 8.94317C16.9856 8.82162 16.8356 8.7769 16.6706 8.6816C16.5376 8.60478 16.4146 8.49391 16.2906 8.40347C16.0196 8.20703 15.6306 8.53379 15.7276 8.82456Z" fill="#33295B"/>
<path d="M49.1167 0.0491486C48.8877 0.256282 48.7337 0.429373 48.5637 0.681239C48.6617 0.585939 48.7587 0.491611 48.8567 0.39631C48.3727 0.716249 48.3617 1.02161 48.2417 1.52923C48.1467 1.92697 48.0877 2.31206 48.0527 2.7205C47.9867 3.51013 47.9657 4.29489 47.9187 5.08647C47.8717 5.87124 47.8977 6.66478 47.8987 7.45247C47.8997 7.81714 47.9097 8.17985 47.9277 8.54452C47.9367 8.72637 47.9407 8.9092 47.9587 9.09007C48.0077 9.58797 48.1827 9.86514 48.4927 10.2502C49.1067 11.0107 50.2597 10.6139 50.7267 9.97015C51.2377 9.26511 51.0317 8.09428 50.9867 7.27061C50.9437 6.47903 50.9037 5.64757 50.8267 4.89392C50.7517 4.15777 50.6727 3.33896 50.5567 2.57169C50.5017 2.20994 50.4397 1.8764 50.3377 1.53021C50.1967 1.05565 50.1697 0.680274 49.6817 0.39729C49.7797 0.49259 49.8777 0.586918 49.9747 0.682219C49.7777 0.4216 49.6257 0.258234 49.3707 0.0501279C49.2947 -0.0130817 49.1927 -0.0198958 49.1167 0.0491486Z" fill="#33295B"/>
<path d="M74.1018 12.5938C73.7668 12.5909 73.5078 12.7212 73.2378 12.8914C73.4518 12.835 73.6658 12.7786 73.8788 12.7222C73.1208 12.6492 72.5579 13.3766 72.0649 13.8385C71.7359 14.1468 71.4448 14.5086 71.1568 14.8538C70.8008 15.2797 70.4038 15.7183 70.0968 16.1763C69.9628 16.3757 69.8308 16.5828 69.7298 16.7997C69.5068 17.2791 69.2568 17.7585 69.4558 18.2983C69.6778 18.9022 70.1528 19.2629 70.8118 19.3018C71.5908 19.3485 72.2409 18.6736 72.7159 18.1407C73.0879 17.7245 73.4128 17.2412 73.7348 16.787C73.9948 16.4214 74.2718 16.046 74.4838 15.6532C74.8008 15.0648 75.3849 14.3122 75.1039 13.6285C75.1039 13.8473 75.1039 14.0671 75.1039 14.2859C75.1979 13.9796 75.2688 13.7082 75.1678 13.3825C75.0268 12.9264 74.5968 12.5987 74.1018 12.5938Z" fill="#33295B"/>
<path d="M87.9755 33.381C87.7975 33.2634 87.6046 33.1545 87.3786 33.1642C87.2636 33.169 87.1455 33.1943 87.0315 33.2109C87.2775 33.242 87.5246 33.2731 87.7706 33.3052C87.4706 33.1369 87.1535 33.0961 86.8195 33.1749C86.6375 33.2176 86.4866 33.313 86.3306 33.4044C86.1646 33.5016 85.9986 33.5989 85.8316 33.6961C85.9376 33.6523 86.0446 33.6086 86.1506 33.5648C85.9656 33.629 85.7686 33.6844 85.6026 33.7865C85.5166 33.84 85.4345 33.9013 85.3515 33.9587C85.0845 34.1425 84.8195 34.3253 84.5655 34.5256C84.4035 34.654 84.2325 34.7775 84.0785 34.9146C83.9265 35.0507 83.7995 35.2433 83.6945 35.4203C83.5355 35.6897 83.4356 36.0037 83.4526 36.3159C83.4706 36.6602 83.5925 37.0375 83.8625 37.2796C83.9565 37.3506 84.0516 37.4216 84.1466 37.4926C84.3656 37.6161 84.6006 37.6773 84.8536 37.6783C85.4966 37.7503 86.0965 37.3204 86.5115 36.8926C86.7215 36.6767 86.9186 36.455 87.1116 36.2255C87.2686 36.0388 87.4755 35.8433 87.5865 35.6342C87.6525 35.5098 87.7146 35.3969 87.7976 35.2802C87.8786 35.1684 87.9595 35.0566 88.0405 34.9438C88.1315 34.8173 88.2055 34.6793 88.2465 34.5276C88.3345 34.1999 88.2575 33.9334 88.1135 33.6378C88.1455 33.877 88.1786 34.1172 88.2106 34.3564C88.2526 34.1678 88.2875 33.9888 88.2335 33.7963C88.1945 33.6582 88.1065 33.4685 87.9755 33.381Z" fill="#33295B"/>
</svg>
