<svg width="68" height="68" viewBox="0 0 68 68" fill="none" xmlns="http://www.w3.org/2000/svg">
<path d="M15.346 67.5502C11.3467 67.5502 7.58632 65.9924 4.75893 63.1643C1.9308 60.3369 0.373047 56.5772 0.373047 52.5773C0.373047 48.5773 1.93005 44.8176 4.75818 41.9902L19.9998 26.7479C25.8382 20.9102 35.337 20.9102 41.1739 26.7479C42.6316 28.2056 42.6316 30.5687 41.1739 32.0257C39.7176 33.4827 37.353 33.4827 35.8968 32.0257C32.9701 29.099 28.2065 29.0983 25.2776 32.0257L10.0368 47.2673C7.10936 50.1955 7.10936 54.9583 10.0368 57.8864C11.4549 59.3046 13.3404 60.0854 15.346 60.0854C17.3515 60.0854 19.237 59.3046 20.6551 57.8864L28.2065 50.3365C29.665 48.8788 32.0274 48.8796 33.4844 50.3365C34.9414 51.7935 34.9421 54.1566 33.4844 55.6136L25.933 63.1643C23.1048 65.9924 19.3452 67.5502 15.346 67.5502Z" fill="url(#paint0_linear_575_2598)"/>
<path d="M37.3354 45.5604C33.3361 45.5604 29.5757 44.0026 26.7476 41.1745C25.2899 39.7175 25.2899 37.3544 26.7476 35.8967C28.2053 34.4404 30.5685 34.4404 32.0254 35.8974C33.4436 37.3156 35.3298 38.0963 37.3346 38.0963C39.3395 38.0963 41.2256 37.3156 42.6431 35.8974L57.8854 20.6558C59.3036 19.2376 60.0843 17.3522 60.0843 15.3466C60.0843 13.341 59.3036 11.4556 57.8854 10.0374C54.958 7.11003 50.1937 7.11003 47.2663 10.0374L39.7157 17.5881C38.2594 19.0451 35.8956 19.0451 34.4378 17.5881C32.9801 16.1303 32.9801 13.7672 34.4378 12.3102L41.99 4.75885C47.8269 -1.0788 57.3264 -1.0788 63.1633 4.75885C65.9914 7.58698 67.5491 11.3466 67.5491 15.3466C67.5491 19.3466 65.9914 23.1063 63.1633 25.9344L47.9216 41.1753C45.0943 44.0026 41.3346 45.5604 37.3354 45.5604Z" fill="url(#paint1_linear_575_2598)"/>
<defs>
<linearGradient id="paint0_linear_575_2598" x1="21.3201" y1="22.3696" x2="21.3201" y2="67.5502" gradientUnits="userSpaceOnUse">
<stop offset="0.9999" stop-color="#54157E"/>
<stop offset="1" stop-color="#9C0AE6"/>
</linearGradient>
<linearGradient id="paint1_linear_575_2598" x1="46.6017" y1="0.380615" x2="46.6017" y2="45.5604" gradientUnits="userSpaceOnUse">
<stop offset="0.9999" stop-color="#54157E"/>
<stop offset="1" stop-color="#9C0AE6"/>
</linearGradient>
</defs>
</svg>
