<svg width="74" height="71" viewBox="0 0 74 71" fill="none" xmlns="http://www.w3.org/2000/svg">
<path d="M26.4028 44.3678C25.274 42.8032 24.4069 41.0073 23.8793 39.0279C23.7695 38.6102 23.6755 38.1925 23.5989 37.7748L17.929 38.437C17.8726 39.8124 17.4997 41.195 16.7843 42.4758L16.7322 42.5747C15.4951 44.7331 13.5049 46.1826 11.2892 46.7808C9.10822 47.3688 6.70322 47.1301 4.58006 45.928L4.48322 45.8756C2.33983 44.6297 0.898849 42.6257 0.306271 40.3945C-0.279081 38.1969 -0.040604 35.7766 1.15322 33.6386L1.20381 33.5411C2.44244 31.3827 4.43264 29.9317 6.6483 29.3335C8.82928 28.7456 11.2343 28.9857 13.3574 30.1879L13.4543 30.2388C15.4199 31.3827 16.7929 33.1627 17.4665 35.1711L23.3185 34.4856H23.3315C23.3908 31.716 24.1554 29.0468 25.4952 26.7095V26.7022C26.3262 25.2541 27.3784 23.9326 28.6185 22.7959L25.1396 17.5536C24.3076 17.9353 23.4233 18.189 22.5164 18.306L22.5077 18.3075C20.0146 18.6306 17.6226 17.9072 15.7755 16.4722C13.9269 15.0386 12.6203 12.8919 12.2951 10.3712V10.3625C11.9728 7.85044 12.6912 5.44322 14.1162 3.58177C15.5399 1.72032 17.6731 0.404644 20.1764 0.0771797C22.6739 -0.248829 25.0674 0.475958 26.9174 1.91098C28.7659 3.34454 30.0725 5.49271 30.3977 8.01345C30.7214 10.5284 30.0031 12.9385 28.5766 14.8029C28.4581 14.9586 28.3338 15.11 28.2051 15.2584L31.7288 20.5677C32.8301 19.9622 34.0211 19.4776 35.2872 19.1356C39.334 18.044 43.4387 18.6073 46.8916 20.4149L48.704 17.7384C47.4278 16.3194 46.5866 14.4827 46.419 12.4291L46.4175 12.4233C46.2166 9.9433 47.0318 7.61176 48.5147 5.84928C50.0005 4.08388 52.1525 2.889 54.6182 2.68379C57.0839 2.47858 59.4008 3.30088 61.1525 4.79557C62.9056 6.29026 64.0922 8.45735 64.296 10.9417C64.4998 13.4232 63.6832 15.7562 62.2003 17.5215C60.7146 19.2855 58.5625 20.4804 56.0968 20.6856L56.0881 20.687C54.5749 20.8107 53.1151 20.5488 51.81 19.9797L50.0496 22.5776C52.3953 24.6282 54.1788 27.3789 55.0417 30.623C55.7441 33.2573 55.7571 35.9177 55.1935 38.4094L57.2299 39.1545C57.2834 39.0701 57.3397 38.9886 57.3961 38.9071C58.7388 36.9802 60.8114 35.5699 63.2944 35.1333C65.776 34.6967 68.2013 35.3152 70.1149 36.6687C72.027 38.0208 73.4275 40.1078 73.8611 42.6067C74.2962 45.1057 73.6819 47.5478 72.3378 49.4762C70.9951 51.4017 68.9225 52.812 66.4394 53.2486C63.9578 53.6867 61.5326 53.0667 59.619 51.7146C57.7069 50.3625 56.3063 48.2755 55.8713 45.7751C55.6962 44.7715 55.6884 43.7454 55.8482 42.7392L53.9129 42.0289C53.8378 42.1803 53.7626 42.3302 53.6831 42.4787C50.9659 47.5958 45.1991 51.4017 39.3774 51.4017C39.1144 51.4017 38.8528 51.3944 38.5926 51.3813L38.2428 53.627C40.0003 54.3576 41.541 55.6558 42.5687 57.4387C43.8102 59.5956 44.0674 62.0537 43.4778 64.2834C42.8881 66.5189 41.4514 68.5288 39.3095 69.779L39.2907 69.7906C37.1545 71.0306 34.7206 71.2868 32.5122 70.6959C30.2922 70.1021 28.2976 68.6554 27.0547 66.4985L27.0344 66.4621C25.8103 64.314 25.5602 61.8703 26.1456 59.6523C26.7353 57.4168 28.1719 55.4084 30.3139 54.1582L30.3341 54.1466C31.6004 53.4088 33.0273 52.9954 34.4894 52.943L34.842 50.6798C31.6696 49.6392 28.3598 47.0835 26.4028 44.3678ZM47.8874 43.937C48.8876 42.9982 49.7229 41.8994 50.3618 40.6943C51.7897 38.0077 52.2436 34.7854 51.3966 31.604C50.5121 28.2798 48.3788 25.6354 45.6457 24.0461C42.9083 22.4539 39.5624 21.9154 36.2613 22.8061C32.9646 23.6953 30.3384 25.8479 28.7572 28.6044L28.7529 28.6029C27.1761 31.358 26.6413 34.7243 27.5258 38.047C27.9291 39.5635 28.5939 40.9403 29.4582 42.1381C29.9092 42.7639 30.4136 43.3417 30.9628 43.8657C32.5006 43.5309 34.1613 43.3577 35.3927 42.4918C35.5054 42.3215 35.6268 42.0755 35.7439 41.8063C35.9202 41.4017 36.0792 40.9607 36.1818 40.658C35.7526 40.15 35.3855 39.5751 35.0328 39.009L33.8708 37.1476C33.4458 36.5101 33.2247 35.9265 33.2103 35.4462C33.203 35.2221 33.2421 35.0169 33.3244 34.8378C33.4112 34.6486 33.5441 34.4929 33.7248 34.3707C33.8086 34.3124 33.904 34.2644 34.0066 34.2266C33.93 33.2151 33.904 31.946 33.9517 30.8792C33.9748 30.6274 34.0254 30.3741 34.0948 30.1209C34.3925 29.0541 35.1354 28.1925 36.0575 27.6031C36.5648 27.2756 37.1227 27.0326 37.7037 26.8666C38.0723 26.7604 37.3887 25.5742 37.7688 25.532C39.6173 25.3399 42.6019 27.0384 43.8897 28.4428C44.5357 29.1458 44.9419 30.0772 45.03 31.3114L44.9578 34.3488C45.2801 34.4478 45.4867 34.653 45.5706 34.9863C45.6616 35.356 45.5633 35.877 45.2512 36.5843C45.2454 36.596 45.2381 36.6105 45.2309 36.6222L43.907 38.8198C43.4199 39.6261 42.9256 40.4367 42.281 41.0742C42.3388 41.1586 42.3996 41.243 42.4559 41.3289C42.7175 41.716 42.9835 42.1046 43.3202 42.4496C43.3332 42.4612 43.3433 42.4743 43.3491 42.4845C44.3449 43.1933 46.273 43.5513 47.8874 43.937ZM6.12654 43.186C7.50104 43.9573 9.06053 44.1087 10.4784 43.7259C11.9194 43.3373 13.2144 42.3943 14.018 40.9912L14.0613 40.9199C14.8273 39.5359 14.9776 37.9655 14.5975 36.5377C14.2116 35.0867 13.2751 33.7827 11.8818 32.9735L11.811 32.9284C10.4365 32.157 8.87697 32.0071 7.45912 32.3884C6.01815 32.7785 4.72315 33.7215 3.91955 35.1246L3.87475 35.1959C3.10873 36.5799 2.95986 38.1489 3.33854 39.5781C3.72588 41.0291 4.66244 42.3317 6.05572 43.1423L6.12654 43.186ZM26.0964 12.873C27.0315 11.649 27.5042 10.0641 27.2903 8.40932C27.0792 6.76181 26.2193 5.35299 25.0023 4.40989C23.7868 3.46825 22.2129 2.99234 20.5696 3.20628C18.9335 3.42022 17.5344 4.28618 16.5978 5.51163C15.653 6.74332 15.2189 8.29573 15.3867 9.84288C15.404 9.92438 15.4156 10.0088 15.4199 10.0947C15.6569 11.6912 16.5039 13.0535 17.6919 13.9747C18.8742 14.8916 20.3976 15.3661 21.9932 15.1929C22.0741 15.1754 22.158 15.1638 22.2432 15.1609C23.8273 14.9208 25.1815 14.0679 26.0964 12.873ZM69.7709 47.657C70.2231 47.0088 70.5438 46.2771 70.7146 45.5039C70.8855 44.7307 70.9032 43.9312 70.7667 43.1511C70.482 41.5094 69.5628 40.1398 68.3097 39.2535C67.6662 38.7976 66.9397 38.4743 66.1718 38.3019C65.4039 38.1296 64.6098 38.1117 63.835 38.2493C62.2047 38.5375 60.8446 39.4616 59.963 40.7249C59.5105 41.3729 59.1896 42.1046 59.0187 42.8778C58.8478 43.6511 58.8303 44.4507 58.9672 45.2308C59.2519 46.8725 60.1711 48.242 61.4242 49.1284C62.0676 49.5842 62.7942 49.9076 63.5621 50.08C64.33 50.2523 65.1241 50.2702 65.8989 50.1326C67.5292 49.8459 68.8907 48.9202 69.7709 47.657ZM29.7213 64.8277C29.7574 64.8845 29.7921 64.9427 29.8224 65.0038C30.6318 66.3559 31.9022 67.264 33.31 67.641C34.7249 68.0194 36.2801 67.8651 37.6517 67.0952C37.7066 67.0574 37.7644 67.0239 37.8251 66.9948C39.1678 66.1783 40.0697 64.899 40.444 63.48C40.8285 62.0261 40.6623 60.4251 39.8544 59.0221C39.4717 58.3552 38.9618 57.771 38.3541 57.3032C37.7464 56.8354 37.0529 56.4931 36.3133 56.2962C34.8998 55.9178 33.3432 56.0721 31.9731 56.842C31.9167 56.8798 31.8589 56.9133 31.7996 56.9424C30.4555 57.7589 29.5536 59.0382 29.1793 60.4572C28.8035 61.8805 28.9553 63.4465 29.7213 64.8277ZM59.8055 15.4796C60.3006 14.8917 60.6756 14.211 60.9087 13.4767C61.1419 12.7424 61.2286 11.9689 61.164 11.2008C61.0311 9.58382 60.2622 8.175 59.1262 7.20716C57.9887 6.23787 56.4827 5.70374 54.8755 5.83763C53.2712 5.97153 51.8721 6.7458 50.9095 7.88974C49.9212 9.06342 49.4316 10.5818 49.5466 12.1162L49.5553 12.221C49.6998 13.8161 50.4644 15.2046 51.5888 16.1637C52.7543 17.1591 54.2622 17.6521 55.786 17.5361L55.8901 17.5274C57.4727 17.3818 58.853 16.6119 59.8055 15.4796Z" fill="url(#paint0_linear_513_1562)"/>
<defs>
<linearGradient id="paint0_linear_513_1562" x1="36.9997" y1="0" x2="36.9997" y2="70.9994" gradientUnits="userSpaceOnUse">
<stop offset="0.9999" stop-color="#54157E"/>
<stop offset="1" stop-color="#9C0AE6"/>
</linearGradient>
</defs>
</svg>
