<svg width="198" height="59" viewBox="0 0 198 59" fill="none" xmlns="http://www.w3.org/2000/svg">
<path d="M18.72 47.384C16.448 47.384 14.496 46.904 12.864 45.944C11.232 44.984 9.984 43.528 9.12 41.576C8.256 39.592 7.824 37.096 7.824 34.088C7.824 31.048 8.272 28.552 9.168 26.6C10.096 24.648 11.376 23.192 13.008 22.232C14.64 21.272 16.544 20.792 18.72 20.792C21.152 20.792 23.328 21.336 25.248 22.424C27.2 23.512 28.736 25.048 29.856 27.032C31.008 29.016 31.584 31.368 31.584 34.088C31.584 36.776 31.008 39.112 29.856 41.096C28.736 43.08 27.2 44.632 25.248 45.752C23.328 46.84 21.152 47.384 18.72 47.384ZM3.456 47V11.384H10.944V26.408L10.464 34.04L10.608 41.72V47H3.456ZM17.424 41.24C18.672 41.24 19.776 40.952 20.736 40.376C21.728 39.8 22.512 38.984 23.088 37.928C23.696 36.84 24 35.56 24 34.088C24 32.584 23.696 31.304 23.088 30.248C22.512 29.192 21.728 28.376 20.736 27.8C19.776 27.224 18.672 26.936 17.424 26.936C16.176 26.936 15.056 27.224 14.064 27.8C13.072 28.376 12.288 29.192 11.712 30.248C11.136 31.304 10.848 32.584 10.848 34.088C10.848 35.56 11.136 36.84 11.712 37.928C12.288 38.984 13.072 39.8 14.064 40.376C15.056 40.952 16.176 41.24 17.424 41.24ZM51.8606 47.384C49.6846 47.384 47.7806 46.904 46.1486 45.944C44.5166 44.984 43.2366 43.528 42.3086 41.576C41.4126 39.592 40.9646 37.096 40.9646 34.088C40.9646 31.048 41.3966 28.552 42.2606 26.6C43.1246 24.648 44.3726 23.192 46.0046 22.232C47.6366 21.272 49.5886 20.792 51.8606 20.792C54.2926 20.792 56.4686 21.352 58.3886 22.472C60.3406 23.56 61.8766 25.096 62.9966 27.08C64.1486 29.064 64.7246 31.4 64.7246 34.088C64.7246 36.808 64.1486 39.16 62.9966 41.144C61.8766 43.128 60.3406 44.664 58.3886 45.752C56.4686 46.84 54.2926 47.384 51.8606 47.384ZM36.5966 56.312V21.176H43.7486V26.456L43.6046 34.136L44.0846 41.768V56.312H36.5966ZM50.5646 41.24C51.8126 41.24 52.9166 40.952 53.8766 40.376C54.8686 39.8 55.6526 38.984 56.2286 37.928C56.8366 36.84 57.1406 35.56 57.1406 34.088C57.1406 32.584 56.8366 31.304 56.2286 30.248C55.6526 29.192 54.8686 28.376 53.8766 27.8C52.9166 27.224 51.8126 26.936 50.5646 26.936C49.3166 26.936 48.1966 27.224 47.2046 27.8C46.2126 28.376 45.4286 29.192 44.8526 30.248C44.2766 31.304 43.9886 32.584 43.9886 34.088C43.9886 35.56 44.2766 36.84 44.8526 37.928C45.4286 38.984 46.2126 39.8 47.2046 40.376C48.1966 40.952 49.3166 41.24 50.5646 41.24Z" fill="url(#paint0_linear_344_288)"/>
<path d="M80.6333 47.384C78.4893 47.384 76.5693 46.968 74.8733 46.136C73.2093 45.304 71.9133 44.04 70.9853 42.344C70.0573 40.616 69.5933 38.424 69.5933 35.768V21.176H77.0813V34.664C77.0813 36.808 77.5293 38.392 78.4253 39.416C79.3533 40.408 80.6493 40.904 82.3133 40.904C83.4653 40.904 84.4893 40.664 85.3853 40.184C86.2813 39.672 86.9853 38.904 87.4973 37.88C88.0093 36.824 88.2653 35.512 88.2653 33.944V21.176H95.7533V47H88.6493V39.896L89.9453 41.96C89.0813 43.752 87.8013 45.112 86.1053 46.04C84.4413 46.936 82.6173 47.384 80.6333 47.384ZM102.69 47V21.176H109.842V28.472L108.834 26.36C109.602 24.536 110.834 23.16 112.53 22.232C114.226 21.272 116.29 20.792 118.722 20.792V27.704C118.402 27.672 118.114 27.656 117.858 27.656C117.602 27.624 117.33 27.608 117.042 27.608C114.994 27.608 113.33 28.2 112.05 29.384C110.802 30.536 110.178 32.344 110.178 34.808V47H102.69ZM138.486 47.384C136.31 47.384 134.406 46.904 132.774 45.944C131.142 44.984 129.862 43.528 128.934 41.576C128.038 39.592 127.59 37.096 127.59 34.088C127.59 31.048 128.022 28.552 128.886 26.6C129.75 24.648 130.998 23.192 132.63 22.232C134.262 21.272 136.214 20.792 138.486 20.792C140.918 20.792 143.094 21.352 145.014 22.472C146.966 23.56 148.502 25.096 149.622 27.08C150.774 29.064 151.35 31.4 151.35 34.088C151.35 36.808 150.774 39.16 149.622 41.144C148.502 43.128 146.966 44.664 145.014 45.752C143.094 46.84 140.918 47.384 138.486 47.384ZM123.222 56.312V21.176H130.374V26.456L130.23 34.136L130.71 41.768V56.312H123.222ZM137.19 41.24C138.438 41.24 139.542 40.952 140.502 40.376C141.494 39.8 142.278 38.984 142.854 37.928C143.462 36.84 143.766 35.56 143.766 34.088C143.766 32.584 143.462 31.304 142.854 30.248C142.278 29.192 141.494 28.376 140.502 27.8C139.542 27.224 138.438 26.936 137.19 26.936C135.942 26.936 134.822 27.224 133.83 27.8C132.838 28.376 132.054 29.192 131.478 30.248C130.902 31.304 130.614 32.584 130.614 34.088C130.614 35.56 130.902 36.84 131.478 37.928C132.054 38.984 132.838 39.8 133.83 40.376C134.822 40.952 135.942 41.24 137.19 41.24ZM156.362 47V11.384H163.85V47H156.362ZM183.616 47.384C180.672 47.384 178.08 46.808 175.84 45.656C173.632 44.504 171.92 42.936 170.704 40.952C169.488 38.936 168.88 36.648 168.88 34.088C168.88 31.496 169.472 29.208 170.656 27.224C171.872 25.208 173.52 23.64 175.6 22.52C177.68 21.368 180.032 20.792 182.656 20.792C185.184 20.792 187.456 21.336 189.472 22.424C191.52 23.48 193.136 25.016 194.32 27.032C195.504 29.016 196.096 31.4 196.096 34.184C196.096 34.472 196.08 34.808 196.048 35.192C196.016 35.544 195.984 35.88 195.952 36.2H174.976V31.832H192.016L189.136 33.128C189.136 31.784 188.864 30.616 188.32 29.624C187.776 28.632 187.024 27.864 186.064 27.32C185.104 26.744 183.984 26.456 182.704 26.456C181.424 26.456 180.288 26.744 179.296 27.32C178.336 27.864 177.584 28.648 177.04 29.672C176.496 30.664 176.224 31.848 176.224 33.224V34.376C176.224 35.784 176.528 37.032 177.136 38.12C177.776 39.176 178.656 39.992 179.776 40.568C180.928 41.112 182.272 41.384 183.808 41.384C185.184 41.384 186.384 41.176 187.408 40.76C188.464 40.344 189.424 39.72 190.288 38.888L194.272 43.208C193.088 44.552 191.6 45.592 189.808 46.328C188.016 47.032 185.952 47.384 183.616 47.384Z" fill="#212121"/>
<circle cx="116.5" cy="25.5" r="6.5" fill="#FFBF00"/>
<defs>
<linearGradient id="paint0_linear_344_288" x1="99" y1="0" x2="99" y2="59" gradientUnits="userSpaceOnUse">
<stop offset="0.9999" stop-color="#54157E"/>
<stop offset="1" stop-color="#9C0AE6"/>
</linearGradient>
</defs>
</svg>
