<svg width="74" height="66" viewBox="0 0 74 66" fill="none" xmlns="http://www.w3.org/2000/svg">
<path d="M10.4305 46.093H0.894531V65.0919H10.4305V46.093Z" fill="url(#paint0_linear_575_2610)"/>
<path d="M62.7901 51.4473C62.3466 49.9974 60.8942 49.1064 59.4021 49.3728C54.9095 50.1729 49.4722 51.8388 44.3476 53.041C44.086 50.1322 41.698 47.8733 38.7787 47.7751L37.4531 47.7304C33.1261 47.7304 28.4182 44.5845 24.4122 44.5845C20.891 44.5845 17.4908 45.3496 13.7487 48.619C13.2752 49.0324 12.6668 49.2664 12.0381 49.2623L10.7539 49.2038V61.6079H14.5269C15.716 61.6079 16.9011 61.7387 18.0619 61.997L28.2136 64.2608C29.1298 64.4655 30.0671 64.5613 31.0061 64.5475L36.6238 64.4655C38.1979 64.4427 39.7526 64.1105 41.1992 63.4891L61.1063 55.0814C62.5131 54.4779 63.2385 52.911 62.7901 51.4473Z" fill="url(#paint1_linear_575_2610)"/>
<path d="M44.2162 53.9792C43.8003 53.9792 43.4461 53.6616 43.408 53.2401C43.1862 50.7748 41.1531 48.853 38.679 48.7685L37.368 48.7239H37.3663C35.0725 48.7239 32.7112 47.8872 30.4263 47.0766C28.3023 46.3236 26.296 45.6121 24.4919 45.6121C21.6839 45.6121 18.2984 46.0629 14.4751 49.4046C13.8561 49.9447 13.0715 50.2412 12.2633 50.2412C12.256 50.2412 12.2495 50.2412 12.2421 50.2412L10.6168 50.1673C10.1684 50.147 9.82159 49.7668 9.84271 49.3184C9.86383 48.8701 10.2464 48.5151 10.6915 48.5444L12.2844 48.6175C12.286 48.6175 12.2884 48.6175 12.2909 48.6175C12.6759 48.6175 13.0828 48.4631 13.4061 48.1813C17.6348 44.4855 21.3826 43.9875 24.4919 43.9875C26.5754 43.9875 28.8091 44.7803 30.9689 45.5455C33.1247 46.3098 35.3527 47.1002 37.3956 47.1002L38.735 47.1456C42.0263 47.2569 44.7311 49.8139 45.0268 53.0939C45.0674 53.5406 44.7376 53.9354 44.2909 53.976C44.2649 53.9784 44.2405 53.9792 44.2162 53.9792Z" fill="black"/>
<path d="M30.8418 65.3671C29.9109 65.3671 28.9809 65.2647 28.0736 65.0617L18.0291 62.8223C16.9407 62.5794 15.823 62.4567 14.7078 62.4567H10.6521C10.2037 62.4567 9.83984 62.0937 9.83984 61.6445C9.83984 61.1953 10.2037 60.8322 10.6521 60.8322H14.7078C15.9416 60.8322 17.1779 60.9687 18.3824 61.2375L28.4269 63.4769C29.2701 63.6646 30.1408 63.7547 31.001 63.7409L36.5601 63.6597C38.0182 63.6394 39.438 63.3364 40.7799 62.7597L60.4822 54.4389C61.4894 54.0059 62.01 52.8826 61.6868 51.8282C61.3675 50.7877 60.3189 50.1485 59.2532 50.3369C56.5386 50.8202 53.5081 51.6171 50.2988 52.4618C41.5523 54.7621 32.5102 57.1405 28.418 53.3894C28.0874 53.0856 28.0646 52.5723 28.3684 52.2417C28.6706 51.9119 29.1856 51.8883 29.5162 52.1913C32.9537 55.3445 41.9487 52.9776 49.8854 50.8901C53.1271 50.0372 56.1893 49.2322 58.9697 48.7376C60.8469 48.3989 62.6826 49.5287 63.2406 51.3523C63.806 53.2002 62.8946 55.1699 61.119 55.9334L41.4167 64.2543C39.8839 64.9138 38.2561 65.2607 36.5845 65.285L31.0262 65.3663C30.9644 65.3663 30.9027 65.3671 30.8418 65.3671Z" fill="black"/>
<path d="M10.6538 65.9032H1.21852C0.770145 65.9032 0.40625 65.5401 0.40625 65.0909V46.2935C0.40625 45.8443 0.770145 45.4812 1.21852 45.4812H10.6538C11.1022 45.4812 11.4661 45.8443 11.4661 46.2935V65.0909C11.4661 65.5393 11.1022 65.9032 10.6538 65.9032ZM2.03078 64.2787H9.84153V47.1057H2.03078V64.2787Z" fill="url(#paint2_linear_575_2610)"/>
<path d="M51.4985 14.8533H7.70117V38.6608H51.4985V14.8533Z" fill="url(#paint3_linear_575_2610)"/>
<path d="M30.2512 32.9148C33.653 32.9148 36.4106 30.1571 36.4106 26.7554C36.4106 23.3536 33.653 20.5959 30.2512 20.5959C26.8495 20.5959 24.0918 23.3536 24.0918 26.7554C24.0918 30.1571 26.8495 32.9148 30.2512 32.9148Z" fill="url(#paint4_linear_575_2610)"/>
<path d="M51.4988 39.4739H7.69898C7.25061 39.4739 6.88672 39.1108 6.88672 38.6616V14.8508C6.88672 14.4025 7.25061 14.0386 7.69898 14.0386H35.5694C36.0178 14.0386 36.3817 14.4025 36.3817 14.8508C36.3817 15.2992 36.0178 15.6631 35.5694 15.6631H8.51125V37.8501H50.6865V25.6605C50.6865 25.2121 51.0496 24.8482 51.4988 24.8482C51.948 24.8482 52.3111 25.2121 52.3111 25.6605V38.6616C52.3111 39.1108 51.948 39.4739 51.4988 39.4739Z" fill="black"/>
<path d="M30.251 33.7278C26.4065 33.7278 23.2793 30.6006 23.2793 26.7561C23.2793 22.9116 26.4065 19.7844 30.251 19.7844C34.0954 19.7844 37.2226 22.9116 37.2226 26.7561C37.2226 30.6006 34.0954 33.7278 30.251 33.7278ZM30.251 21.409C27.3024 21.409 24.9038 23.8076 24.9038 26.7561C24.9038 29.7046 27.3024 32.1032 30.251 32.1032C33.1995 32.1032 35.5981 29.7046 35.5981 26.7561C35.5981 23.8076 33.1995 21.409 30.251 21.409Z" fill="url(#paint5_linear_575_2610)"/>
<path d="M43.5375 33.6922H38.1189C37.6705 33.6922 37.3066 33.3283 37.3066 32.8799C37.3066 32.4315 37.6705 32.0676 38.1189 32.0676H43.5375C43.9867 32.0676 44.3498 32.4315 44.3498 32.8799C44.3498 33.3283 43.9859 33.6922 43.5375 33.6922Z" fill="black"/>
<path d="M22.3833 33.692H16.9655C16.5172 33.692 16.1533 33.3281 16.1533 32.8798C16.1533 31.3681 14.9235 30.1384 13.4119 30.1384C12.9635 30.1384 12.5996 29.7745 12.5996 29.3261V24.1504C12.5996 23.702 12.9635 23.3381 13.4119 23.3381C14.9235 23.3381 16.1533 22.1083 16.1533 20.5967C16.1533 20.1483 16.5172 19.7844 16.9655 19.7844H22.3833C22.8317 19.7844 23.1956 20.1483 23.1956 20.5967C23.1956 21.0451 22.8317 21.409 22.3833 21.409H17.7023C17.37 23.1667 15.9819 24.5557 14.2241 24.8871V28.5894C15.9811 28.9216 17.37 30.3106 17.7023 32.0675H22.3833C22.8317 32.0675 23.1956 32.4314 23.1956 32.8798C23.1956 33.3281 22.8317 33.692 22.3833 33.692Z" fill="url(#paint6_linear_575_2610)"/>
<path d="M72.698 0.825439H63.2676V19.6213H72.698V0.825439Z" fill="url(#paint7_linear_575_2610)"/>
<path d="M44.5179 1.16734C41.8188 1.55479 39.5274 3.35396 38.5226 5.88904L35.2305 11.2508H44.9265L40.2145 17.939C39.9562 18.3094 39.7865 18.7334 39.7174 19.1793L39.3097 23.8409C38.9945 25.887 40.3104 27.8291 42.328 28.2946L42.9681 28.4424C44.9508 28.8997 46.9563 27.7764 47.6029 25.8472L48.5443 21.0216C48.6686 20.6512 48.8643 20.3092 49.1218 20.016L53.7103 15.2472C56.0602 17.7302 58.8203 18.5823 63.2699 17.9707V2.46372C55.5274 1.79441 51.2175 0.205618 44.5179 1.16734Z" fill="url(#paint8_linear_575_2610)"/>
<path d="M43.869 29.3578C43.5116 29.3578 43.1477 29.318 42.7846 29.2343L42.1445 29.0865C39.7256 28.5284 38.1287 26.1704 38.5064 23.7182L38.9077 19.1094C39.0003 18.4913 39.2196 17.9438 39.5477 17.4743L45.8136 8.58001C46.071 8.21287 46.5771 8.12514 46.9459 8.38425C47.3122 8.64255 47.4007 9.14941 47.1416 9.51655L40.8774 18.4076C40.693 18.6708 40.5688 18.9819 40.52 19.3027L40.1188 23.9123C39.8637 25.5824 40.9156 27.1362 42.5093 27.5034L43.1493 27.6512C44.7186 28.011 46.283 27.1484 46.8151 25.6376L47.7459 20.8672C47.7524 20.833 47.7622 20.7989 47.7727 20.7656C47.9303 20.2921 48.1789 19.8599 48.5087 19.4822L53.1231 14.685C53.2758 14.5258 53.4878 14.4356 53.7088 14.4356H53.712C53.9338 14.4364 54.1458 14.5282 54.2993 14.6899C56.4965 17.0113 59.06 17.731 63.1579 17.1673C63.5997 17.1015 64.0115 17.4175 64.0725 17.861C64.1334 18.3053 63.8231 18.7155 63.3788 18.7764C59.116 19.3645 56.174 18.6513 53.7242 16.4038L49.7067 20.5804C49.554 20.7559 49.42 20.9841 49.3299 21.2351L48.3998 26.0047C48.3933 26.0397 48.3836 26.0738 48.373 26.1071C47.7069 28.089 45.8761 29.3578 43.869 29.3578Z" fill="black"/>
<path d="M35.2294 12.0631C35.0849 12.0631 34.9378 12.025 34.8054 11.9429C34.4229 11.7082 34.3035 11.2078 34.5382 10.8261L37.7946 5.52278C38.9171 2.76271 41.4417 0.788088 44.4024 0.363273C49.0152 -0.298723 52.5526 0.221939 56.6505 0.823828C58.6982 1.12518 60.8142 1.43628 63.3371 1.65396C63.7846 1.69214 64.1152 2.08609 64.0763 2.53283C64.0373 2.97877 63.6514 3.31505 63.1974 3.272C60.6257 3.05025 58.388 2.72128 56.4133 2.43049C52.2773 1.8221 49.0128 1.34205 44.6322 1.97075C42.2231 2.31677 40.1713 3.93237 39.277 6.18803C39.2599 6.23189 39.2388 6.27332 39.2144 6.31393L35.9215 11.6757C35.7696 11.9251 35.5024 12.0631 35.2294 12.0631Z" fill="black"/>
<path d="M72.6977 20.4359H63.2673C62.8182 20.4359 62.4551 20.072 62.4551 19.6236V0.826182C62.4551 0.377811 62.8182 0.013916 63.2673 0.013916H72.6977C73.1469 0.013916 73.51 0.377811 73.51 0.826182V19.6236C73.51 20.072 73.1469 20.4359 72.6977 20.4359ZM64.0796 18.8114H71.8855V1.63845H64.0796V18.8114Z" fill="black"/>
<defs>
<linearGradient id="paint0_linear_575_2610" x1="5.66253" y1="46.093" x2="5.66253" y2="65.0919" gradientUnits="userSpaceOnUse">
<stop offset="0.9999" stop-color="#54157E"/>
<stop offset="1" stop-color="#9C0AE6"/>
</linearGradient>
<linearGradient id="paint1_linear_575_2610" x1="36.8381" y1="44.5845" x2="36.8381" y2="64.5488" gradientUnits="userSpaceOnUse">
<stop offset="0.9999" stop-color="#54157E"/>
<stop offset="1" stop-color="#9C0AE6"/>
</linearGradient>
<linearGradient id="paint2_linear_575_2610" x1="5.93615" y1="45.4812" x2="5.93615" y2="65.9032" gradientUnits="userSpaceOnUse">
<stop offset="0.9999" stop-color="#54157E"/>
<stop offset="1" stop-color="#9C0AE6"/>
</linearGradient>
<linearGradient id="paint3_linear_575_2610" x1="29.5999" y1="14.8533" x2="29.5999" y2="38.6608" gradientUnits="userSpaceOnUse">
<stop offset="0.9999" stop-color="#54157E"/>
<stop offset="1" stop-color="#9C0AE6"/>
</linearGradient>
<linearGradient id="paint4_linear_575_2610" x1="30.2512" y1="20.5959" x2="30.2512" y2="32.9148" gradientUnits="userSpaceOnUse">
<stop offset="0.9999" stop-color="#54157E"/>
<stop offset="1" stop-color="#9C0AE6"/>
</linearGradient>
<linearGradient id="paint5_linear_575_2610" x1="30.251" y1="19.7844" x2="30.251" y2="33.7278" gradientUnits="userSpaceOnUse">
<stop offset="0.9999" stop-color="#54157E"/>
<stop offset="1" stop-color="#9C0AE6"/>
</linearGradient>
<linearGradient id="paint6_linear_575_2610" x1="17.8976" y1="19.7844" x2="17.8976" y2="33.692" gradientUnits="userSpaceOnUse">
<stop offset="0.9999" stop-color="#54157E"/>
<stop offset="1" stop-color="#9C0AE6"/>
</linearGradient>
<linearGradient id="paint7_linear_575_2610" x1="67.9828" y1="0.825439" x2="67.9828" y2="19.6213" gradientUnits="userSpaceOnUse">
<stop offset="0.9999" stop-color="#54157E"/>
<stop offset="1" stop-color="#9C0AE6"/>
</linearGradient>
<linearGradient id="paint8_linear_575_2610" x1="49.2502" y1="0.865967" x2="49.2502" y2="28.5441" gradientUnits="userSpaceOnUse">
<stop offset="0.9999" stop-color="#54157E"/>
<stop offset="1" stop-color="#9C0AE6"/>
</linearGradient>
</defs>
</svg>
