<svg width="124" height="122" viewBox="0 0 124 122" fill="none" xmlns="http://www.w3.org/2000/svg">
<path fill-rule="evenodd" clip-rule="evenodd" d="M59.616 51.2036C63.966 60.2736 77.166 60.6036 81.326 51.2036C80.2755 50.0909 79.3314 48.8823 78.506 47.5936L78.096 46.9936C75.938 48.7313 73.2361 49.652 70.466 49.5936C67.4347 49.6181 64.5151 48.451 62.336 46.3436L61.956 46.0036C61.656 46.8536 61.276 47.8636 60.856 48.8036C60.5071 49.6257 60.0925 50.4183 59.616 51.1736V51.2036ZM16.086 110.334L52.696 76.1436C61.696 85.1436 70.526 93.9736 79.586 102.924L103.586 78.6436L92.436 67.5236L123.746 67.2336V98.8136L113.056 88.1236C101.916 99.3769 90.7793 110.617 79.646 121.844L52.506 95.0036L37.106 110.294L16.086 110.334ZM15.956 48.1936L18.756 48.1236H20.086L22.086 50.4636C22.566 51.0136 23.086 51.5636 23.576 52.0936C22.4822 53.2642 21.2986 54.3475 20.036 55.3336C19.376 55.8936 18.746 56.4236 18.266 56.8636C14.6865 58.1241 11.229 59.7073 7.93602 61.5936C6.16675 62.5166 4.70404 63.9341 3.72602 65.6736C1.37602 70.0736 1.91602 75.4036 0.956016 79.9136C0.666016 83.9136 0.956016 83.6836 3.74602 83.6336C11.586 83.5036 20.386 83.4936 28.566 83.5236L45.146 68.0036L45.326 67.8336L45.396 67.7736L45.756 67.4736L45.906 67.3536H45.956L46.156 67.2036L46.376 67.0536L46.566 66.9336L46.736 66.8336H46.816L46.936 66.7636L47.026 66.7036L47.226 66.5936L47.416 66.4836H47.476L47.626 66.4136L47.716 66.3636L47.926 66.2736L48.106 66.2036H48.186L48.356 66.1336L48.516 66.0736H48.646L48.806 66.0136L48.996 65.9536H49.126H49.236H49.336H49.526H49.646H49.736H49.886H50.036H50.226H50.396H50.536H50.716C51.026 65.9536 51.336 65.8836 51.656 65.8736H52.226C52.546 65.8736 52.856 65.8736 53.176 65.8736H53.366H53.536C54.416 65.9732 55.2797 66.1849 56.106 66.5036C57.6979 67.1044 59.1288 68.0663 60.286 69.3136L60.876 69.8936L68.506 77.5236H85.506L84.066 76.0836C82.4638 74.479 81.3914 72.4221 80.9932 70.1897C80.5951 67.9573 80.8902 65.6565 81.8388 63.5968C82.7875 61.5372 84.3443 59.8175 86.2996 58.6692C88.255 57.5208 90.5151 56.9989 92.776 57.1736L101.586 57.0936C96.816 54.9536 86.436 54.0936 82.036 50.9636L81.946 50.8736C81.1194 49.5752 80.4227 48.1986 79.866 46.7636C79.696 46.5036 79.516 46.2336 79.336 45.9836C81.2614 43.9235 82.9241 41.6327 84.286 39.1636L88.286 32.5236C88.2898 32.487 88.2898 32.4502 88.286 32.4136C89.286 30.2636 89.546 28.6936 89.286 27.5736C89.1849 27.1097 88.9563 26.6833 88.6259 26.3423C88.2955 26.0013 87.8765 25.7593 87.416 25.6436L87.636 16.4636C87.5332 13.2577 86.3087 10.1894 84.176 7.7936C80.276 3.5536 71.986 -0.516399 66.376 0.0536009C65.216 0.173601 66.496 2.7036 65.376 3.0536C63.6101 3.55086 61.9259 4.30204 60.376 5.2836C57.5056 6.99776 55.369 9.71121 54.376 12.9036C54.1678 13.6538 54.0207 14.4196 53.936 15.1936C53.8062 18.5675 53.863 21.946 54.106 25.3136C53.8051 25.4266 53.5169 25.5707 53.246 25.7436C52.722 26.0991 52.3039 26.5898 52.036 27.1636C51.781 27.7421 51.6645 28.3722 51.696 29.0036C51.883 30.8669 52.5745 32.6439 53.696 34.1436L57.236 39.7736C58.2824 41.5213 59.4521 43.1922 60.736 44.7736C60.416 45.6836 59.926 47.0236 59.396 48.2436C59.0954 48.9643 58.7376 49.6599 58.326 50.3236C54.416 53.0036 45.866 54.0036 40.656 55.6836C39.5455 54.7526 38.4967 53.7505 37.516 52.6836C38.3826 51.8844 39.185 51.0184 39.916 50.0936L41.186 48.5736L41.446 48.2736L41.666 48.0036H44.436C48.506 39.2836 45.926 26.3336 37.586 20.8436C35.026 19.1536 33.186 19.2236 30.196 19.2236C26.756 19.2236 25.006 19.3336 22.056 21.2836C17.726 24.1536 15.056 29.1136 13.936 36.0036C13.706 39.4336 13.556 45.3736 15.936 48.1436L15.956 48.1936ZM32.736 63.0036C33.1416 61.9462 33.6684 60.9395 34.306 60.0036C35.3282 58.6777 36.6199 57.5836 38.096 56.7936C38.4834 56.5781 38.8842 56.3878 39.296 56.2236C38.311 55.4035 37.3854 54.5146 36.526 53.5636C34.8558 54.6826 32.8751 55.2461 30.866 55.1736C28.9545 55.2114 27.0772 54.6636 25.486 53.6036C25.1585 53.3863 24.8446 53.1492 24.546 52.8936C23.4071 54.1091 22.1768 55.2358 20.866 56.2636L20.556 56.5136C20.416 61.5136 27.186 64.2536 32.736 62.9836V63.0036ZM56.146 26.9136C55.5222 26.9046 54.9074 27.0635 54.366 27.3736C54.144 27.533 53.9709 27.7512 53.866 28.0036C53.7377 28.2995 53.6828 28.622 53.706 28.9436C53.8939 30.4208 54.4701 31.8217 55.376 33.0036L58.916 38.6336C60.2248 40.9146 61.8249 43.0156 63.676 44.8836C65.4954 46.6401 67.9271 47.6193 70.456 47.6136C71.782 47.6384 73.0997 47.3992 74.3323 46.9099C75.565 46.4206 76.688 45.691 77.636 44.7636C79.5561 42.7683 81.2007 40.525 82.526 38.0936L86.526 31.5236C87.266 29.8336 87.526 28.6936 87.376 28.0336C87.266 27.6336 86.836 27.4436 86.096 27.4036H85.606H85.046C84.9463 27.4139 84.8457 27.4139 84.746 27.4036C84.3783 27.4182 84.01 27.3982 83.646 27.3436L85.016 21.3436C74.866 22.9436 67.296 15.4236 56.596 19.8436L57.366 27.0036C56.9587 27.028 56.55 27.0112 56.146 26.9536V26.9136ZM20.736 46.9136C18.456 39.0036 19.566 31.7436 25.806 25.5136C26.916 29.0936 29.396 32.0536 33.626 34.2336C35.7492 35.8364 37.7117 37.6415 39.486 39.6236C39.826 38.2436 38.546 36.5636 36.996 34.8336C38.61 35.5688 39.9156 36.8461 40.686 38.4436C41.6376 40.4678 41.8874 42.7515 41.396 44.9336C41.2944 45.6094 41.1474 46.2776 40.956 46.9336C40.8359 46.9799 40.7293 47.0555 40.646 47.1536L40.146 47.7436L39.886 48.0636L38.616 49.5836C37.7118 50.7796 36.6448 51.8432 35.446 52.7436C34.0971 53.6573 32.4945 54.1227 30.866 54.0736C29.3162 54.1009 27.7951 53.6543 26.506 52.7936C25.3491 51.9367 24.313 50.9276 23.426 49.7936L21.116 47.1136C21.0271 47.0101 20.9083 46.9368 20.776 46.9036L20.736 46.9136Z" fill="url(#paint0_linear_158_714)"/>
<defs>
<linearGradient id="paint0_linear_158_714" x1="62.3064" y1="0" x2="62.3064" y2="121.844" gradientUnits="userSpaceOnUse">
<stop offset="0.9999" stop-color="#54157E"/>
<stop offset="1" stop-color="#9C0AE6"/>
</linearGradient>
</defs>
</svg>
