<svg width="66" height="66" viewBox="0 0 66 66" fill="none" xmlns="http://www.w3.org/2000/svg">
<path fill-rule="evenodd" clip-rule="evenodd" d="M45.0531 0.242372L65.7572 20.9496C66.0811 21.2724 66.0811 21.801 65.7572 22.1249L58.706 29.1752C58.3827 29.4997 57.8541 29.4997 57.5313 29.1752L55.5268 27.1716L46.2331 36.4646C48.3182 44.3185 46.2842 53.0399 40.1262 59.1974C39.9833 59.3414 39.8388 59.4816 39.6922 59.6202C39.1529 60.1332 39.2394 60.13 38.7184 59.6089L25.565 46.4542L0 66.0001L19.5504 40.4396L6.37769 27.2667C5.85239 26.7402 5.89643 26.823 6.41314 26.2799C6.54205 26.1451 6.67364 26.0097 6.80738 25.8754C12.9643 19.7179 21.6865 17.682 29.5391 19.7678L38.8317 10.4749L36.8267 8.47015C36.5039 8.14731 36.5039 7.61874 36.8267 7.29483L43.8774 0.242372C44.2018 -0.0804651 44.7303 -0.0804651 45.0531 0.242372Z" fill="url(#paint0_linear_513_1574)"/>
<defs>
<linearGradient id="paint0_linear_513_1574" x1="33.0001" y1="0.000244141" x2="33.0001" y2="66.0001" gradientUnits="userSpaceOnUse">
<stop offset="0.9999" stop-color="#54157E"/>
<stop offset="1" stop-color="#9C0AE6"/>
</linearGradient>
</defs>
</svg>
