<svg width="50" height="50" viewBox="0 0 50 50" fill="none" xmlns="http://www.w3.org/2000/svg">
<path d="M18 49.5H44.25C47.1494 49.5 49.5 47.1494 49.5 44.25V40.75C49.5 37.8506 47.1494 35.5 44.25 35.5H18V49.5ZM18 32H44.25C47.1494 32 49.5 29.6494 49.5 26.75V23.25C49.5 20.3505 47.1494 18 44.25 18H18V32ZM14.5 18V32H5.75C2.85049 32 0.5 29.6494 0.5 26.75V23.25C0.5 20.3505 2.85049 18 5.75 18H14.5ZM18 14.5H44.25C47.1494 14.5 49.5 12.1495 49.5 9.25V5.75C49.5 2.85049 47.1494 0.5 44.25 0.5H18V14.5ZM14.5 0.5V14.5H5.75C2.85049 14.5 0.5 12.1495 0.5 9.25V5.75C0.5 2.85049 2.85049 0.5 5.75 0.5H14.5ZM14.5 35.5V49.5H5.75C2.85049 49.5 0.5 47.1494 0.5 44.25V40.75C0.5 37.8506 2.85049 35.5 5.75 35.5H14.5Z" fill="url(#paint0_linear_158_1119)"/>
<defs>
<linearGradient id="paint0_linear_158_1119" x1="25" y1="0.5" x2="25" y2="49.5" gradientUnits="userSpaceOnUse">
<stop offset="0.9999" stop-color="#54157E"/>
<stop offset="1" stop-color="#9C0AE6"/>
</linearGradient>
</defs>
</svg>
