<svg width="70" height="70" viewBox="0 0 70 70" fill="none" xmlns="http://www.w3.org/2000/svg">
<path fill-rule="evenodd" clip-rule="evenodd" d="M36.6896 8.34341C35.1675 7.62746 33.5958 7.25368 31.9751 7.25368C29.5375 7.25368 27.5329 8.19431 25.9612 10.0598L12.3987 26.4031L13.8097 28.1201L8.6617 34.3734L0 23.9103L5.14746 17.701L6.74365 19.5816L20.2315 3.32829C22.0875 1.10485 24.0802 0 26.2084 0C29.7847 0 33.2745 2.77656 36.6896 8.34341ZM57.2709 3.71582C58.7452 3.71582 60.1602 4.01883 61.4773 4.57469L58.1311 8.94325C50.529 18.8629 59.1081 24.6022 66.668 17.7924L69.5841 15.1663C69.8547 16.412 69.9994 17.7202 69.9994 19.0683C69.9994 27.5478 64.3011 34.4215 57.2703 34.4215C54.9769 34.4215 52.8247 33.6897 50.9665 32.409L44.7845 40.325C50.603 47.0434 56.4233 53.7605 62.2423 60.4775L54.348 69.9993C48.8428 63.0754 43.3398 56.1481 37.8381 49.2201L26.9985 63.0981C26.1754 64.7959 24.6481 65.9372 22.9004 65.9372C20.2805 65.9372 18.1557 63.375 18.1557 60.2144C18.1557 58.8484 18.5539 57.5931 19.2164 56.6092L19.2096 56.6009L19.2511 56.5577C19.5935 56.0609 20.0042 55.6356 20.4657 55.3016L32.657 42.6962L17.6259 23.7076L23.8631 16.1852C29.6492 22.8886 34.346 28.2658 40.1395 34.9595L46.8979 27.9703C45.4145 25.4597 44.5418 22.3877 44.5418 19.069C44.5418 10.5888 50.2402 3.71582 57.2709 3.71582ZM16.3094 7.11969L10.1098 14.5974L8.92147 13.1648L15.1211 5.68641L16.3094 7.11969Z" fill="url(#paint0_linear_158_1124)"/>
<defs>
<linearGradient id="paint0_linear_158_1124" x1="34.9997" y1="0" x2="34.9997" y2="69.9993" gradientUnits="userSpaceOnUse">
<stop offset="0.9999" stop-color="#54157E"/>
<stop offset="1" stop-color="#9C0AE6"/>
</linearGradient>
</defs>
</svg>
