<svg width="123" height="68" viewBox="0 0 123 68" fill="none" xmlns="http://www.w3.org/2000/svg">
<path fill-rule="evenodd" clip-rule="evenodd" d="M3.2441 16.7857L5.5441 45.2557C5.85409 48.1957 6.5441 50.0857 7.3841 51.1257C7.73277 51.5188 8.18436 51.8068 8.68793 51.9569C9.19151 52.1071 9.72703 52.1136 10.2341 51.9757H10.5041H21.7841C22.4014 52.0395 23.025 51.9528 23.6015 51.7229C24.178 51.493 24.6901 51.1268 25.0941 50.6557L25.1441 50.5957C25.9746 49.2127 26.3846 47.6178 26.3241 46.0057V14.5757C26.2749 14.4378 26.2512 14.2921 26.2541 14.1457C26.2492 14.1059 26.2492 14.0655 26.2541 14.0257C26.2092 13.6063 26.0742 13.2016 25.8585 12.8392C25.6428 12.4767 25.3513 12.1651 25.0041 11.9257C23.8097 11.3063 22.465 11.036 21.1241 11.1457H7.0041C6.42078 11.1138 5.83709 11.2011 5.28863 11.4023C4.74017 11.6034 4.23846 11.9142 3.8141 12.3157C3.1441 13.1157 2.9041 14.4957 3.2341 16.6457V16.7857H3.2441ZM93.1041 15.5757C93.1026 15.0976 93.1327 14.6199 93.1941 14.1457L88.0041 10.6557C87.2541 10.1557 86.4341 9.5757 85.6041 8.9957C82.6041 6.9157 79.6041 4.7757 76.2741 3.9057C74.3321 3.40525 72.339 3.1301 70.3341 3.0857C68.4954 3.03839 66.6587 3.24023 64.8741 3.6857C63.8337 3.94945 62.8271 4.33196 61.8741 4.8257C61.0351 5.26807 60.2584 5.81952 59.5641 6.4657L56.0041 10.6357C55.8967 10.8388 55.7466 11.0162 55.5641 11.1557L45.8941 22.6657C46.0189 23.3417 46.3073 23.9769 46.7341 24.5157C47.2025 25.0891 47.8177 25.5245 48.5141 25.7757C49.3207 26.0649 50.1815 26.1708 51.0341 26.0857C52.6564 25.928 54.1951 25.2909 55.4541 24.2557L58.1441 22.0057C58.8241 21.4457 59.3941 20.9257 59.9541 20.4157C61.1106 19.2918 62.3769 18.2868 63.7341 17.4157C66.7341 15.6157 69.7341 15.5557 72.7341 20.5357L87.9341 48.0057H93.1041V15.5757ZM94.3341 11.1857C94.5681 10.8582 94.8362 10.5565 95.1341 10.2857C96.7369 9.00774 98.7585 8.3731 100.804 8.5057H114.004C116.774 8.5057 119.004 8.9957 120.584 10.1957C122.314 11.5357 123.134 13.5657 122.784 16.4857L119.864 46.6957C119.816 48.9665 119.045 51.1628 117.664 52.9657C116.956 53.7591 116.071 54.3737 115.08 54.7596C114.09 55.1454 113.022 55.2914 111.964 55.1857H100.094C98.5592 55.306 97.0361 54.8376 95.8341 53.8757C94.9167 53.1112 94.1821 52.1511 93.6841 51.0657H89.5741C90.0933 52.5233 90.1214 54.1107 89.6541 55.5857C89.1922 56.9696 88.3332 58.1868 87.1841 59.0857C86.0595 59.9739 84.728 60.5623 83.3141 60.7957C81.9083 61.0323 80.4645 60.8731 79.1441 60.3357C77.8239 61.8077 76.1258 62.8902 74.2341 63.4657C72.5087 63.9359 70.6792 63.852 69.0041 63.2257C67.5698 64.9455 65.6206 66.1585 63.4441 66.6857C61.1877 67.1051 58.8559 66.7529 56.8241 65.6857C56.1259 66.238 55.3554 66.6922 54.5341 67.0357C53.41 67.5007 52.2001 67.7223 50.9841 67.6857C48.5794 67.7322 46.2438 66.88 44.4341 65.2957C42.9363 63.8125 41.693 62.0929 40.7541 60.2057L34.1941 48.8057H29.1141C28.8844 50.1122 28.3688 51.3518 27.6041 52.4357L27.5341 52.5357C26.8389 53.3934 25.9438 54.0672 24.9272 54.4979C23.9106 54.9286 22.8038 55.103 21.7041 55.0057H10.6141C9.60311 55.2294 8.55014 55.1714 7.56981 54.8382C6.58947 54.5049 5.71933 53.9092 5.0541 53.1157C3.7541 51.6057 2.8541 49.1157 2.4741 45.5457V45.4157L0.174095 17.0557C-0.285905 13.9957 0.174095 11.8257 1.4541 10.3457C2.14345 9.60212 2.98348 9.01413 3.91812 8.62096C4.85275 8.22779 5.8605 8.03849 6.87409 8.0657H21.1041C23.0448 7.93839 24.9804 8.37974 26.6741 9.3357C27.8534 10.0863 28.7177 11.2422 29.1041 12.5857H38.6541C40.8385 11.0203 43.2408 9.78381 45.7841 8.9157C48.4465 8.11555 51.2499 7.89729 54.0041 8.2757L57.2741 4.3857L57.3941 4.2557C58.292 3.40356 59.3012 2.67696 60.3941 2.0957C61.5621 1.49529 62.7929 1.02578 64.0641 0.695699C66.1216 0.191736 68.2363 -0.040242 70.3541 0.00569903C72.5987 0.0562148 74.8301 0.364913 77.0041 0.925699C80.8141 1.9257 84.1041 4.2357 87.3041 6.4757C88.0741 7.0157 88.8341 7.5457 89.6541 8.0957L94.3041 11.1857H94.3341ZM15.7741 38.7657C16.301 38.7637 16.8167 38.9183 17.2557 39.2098C17.6946 39.5013 18.0371 39.9167 18.2397 40.4031C18.4422 40.8896 18.4958 41.4253 18.3935 41.9422C18.2911 42.4591 18.0376 42.934 17.665 43.3066C17.2924 43.6792 16.8175 43.9327 16.3006 44.0351C15.7837 44.1374 15.248 44.0839 14.7615 43.8813C14.2751 43.6787 13.8597 43.3362 13.5682 42.8973C13.2767 42.4583 13.1221 41.9426 13.1241 41.4157C13.1267 40.7137 13.4068 40.0412 13.9032 39.5448C14.3996 39.0484 15.0721 38.7683 15.7741 38.7657ZM86.3641 50.9257C86.1531 50.8337 85.9649 50.6965 85.8128 50.5237C85.6607 50.3508 85.5485 50.1467 85.4841 49.9257L70.0641 22.0957C68.3541 19.2357 66.8141 19.1557 65.3141 20.0457C64.129 20.8293 63.0207 21.7233 62.0041 22.7157C61.3241 23.3357 60.6441 23.9557 60.0841 24.4157L57.3541 26.6657C55.6147 28.0808 53.4961 28.9506 51.2641 29.1657C49.9564 29.2826 48.6389 29.1119 47.4041 28.6657C46.1883 28.2158 45.1146 27.4494 44.2941 26.4457C43.3612 25.2677 42.8069 23.8348 42.7041 22.3357C42.6883 22.1121 42.7202 21.8876 42.7978 21.6773C42.8754 21.4669 42.9968 21.2755 43.1541 21.1157L51.4841 11.2057C49.855 11.1663 48.2304 11.3926 46.6741 11.8757C44.3052 12.7039 42.0713 13.8765 40.0441 15.3557C39.7616 15.5829 39.4064 15.7002 39.0441 15.6857H29.4141V45.6857H35.0841C35.3691 45.6853 35.6487 45.7635 35.8922 45.9117C36.1357 46.0599 36.3335 46.2723 36.4641 46.5257L43.4641 58.6757C44.2428 60.2634 45.2539 61.7262 46.4641 63.0157C47.7407 64.0965 49.3722 64.6665 51.0441 64.6157C51.8317 64.6382 52.6153 64.4951 53.3441 64.1957C53.8116 64.0038 54.252 63.7517 54.6541 63.4457L50.1441 55.0057C49.9823 54.6496 49.9621 54.2452 50.0875 53.8747C50.213 53.5042 50.4747 53.1953 50.8196 53.0108C51.1645 52.8263 51.5667 52.7799 51.9446 52.8811C52.3224 52.9823 52.6476 53.2235 52.8541 53.5557L57.7941 62.7857C59.1978 63.6832 60.8866 64.0229 62.5281 63.7379C64.1696 63.4529 65.6451 62.5638 66.6641 61.2457L59.5541 50.0657C59.3315 49.7235 59.2538 49.307 59.3382 48.9076C59.4226 48.5082 59.6621 48.1586 60.0041 47.9357C60.3501 47.7202 60.7668 47.6487 61.1649 47.7366C61.563 47.8244 61.9109 48.0646 62.1341 48.4057L69.6241 60.1757C70.8128 60.7023 72.1438 60.815 73.4041 60.4957C74.7334 60.0764 75.9229 59.3018 76.8441 58.2557L70.0741 45.4757C69.8792 45.1137 69.836 44.689 69.9542 44.2952C70.0723 43.9014 70.3421 43.5706 70.7041 43.3757C71.0661 43.1808 71.4907 43.1376 71.8846 43.2558C72.2784 43.3739 72.6092 43.6437 72.8041 44.0057L79.8041 57.2257C80.7141 57.7403 81.7764 57.9174 82.8041 57.7257C83.7001 57.5826 84.544 57.2106 85.2541 56.6457C85.9239 56.1365 86.4284 55.4407 86.7041 54.6457C87.0084 53.6525 86.9262 52.5809 86.4741 51.6457C86.3763 51.4225 86.335 51.1786 86.3541 50.9357L86.3641 50.9257ZM106.684 38.7657C107.21 38.7697 107.722 38.9293 108.157 39.2244C108.592 39.5195 108.93 39.9369 109.128 40.4239C109.326 40.9108 109.375 41.4455 109.27 41.9605C109.164 42.4754 108.908 42.9475 108.534 43.3171C108.161 43.6867 107.686 43.9373 107.17 44.0372C106.653 44.137 106.119 44.0818 105.635 43.8784C105.15 43.6749 104.736 43.3324 104.446 42.8941C104.156 42.4558 104.002 41.9414 104.004 41.4157C104.007 40.7137 104.287 40.0412 104.783 39.5448C105.28 39.0484 105.952 38.7683 106.654 38.7657H106.684Z" fill="#212121"/>
</svg>
