<svg width="52" height="72" viewBox="0 0 52 72" fill="none" xmlns="http://www.w3.org/2000/svg">
<path fill-rule="evenodd" clip-rule="evenodd" d="M22.2734 1.17187C24.9377 -0.644536 27.9743 -0.246099 30.4815 1.68164C31.1388 2.1914 31.7031 2.81249 32.151 3.56835C32.5292 4.21289 33.1981 5.52539 31.9533 5.73046C31.4646 5.81249 30.6037 5.13867 29.9463 4.92187C29.097 4.64648 28.2244 4.46484 27.3577 4.37695C25.7405 4.20703 24.1524 4.34179 22.7853 4.72265C22.0407 4.92773 21.3252 5.17968 20.633 5.50195C20.313 5.65429 19.6557 6.09375 19.4753 5.52539C19.0565 4.21289 21.3136 1.82226 22.2734 1.17187ZM2.047 46.6582H5.85145C7.75949 43.6699 11.8664 42.1113 15.5371 40.7168C16.2701 40.4355 16.9856 40.166 17.6604 39.8906L17.672 39.8789C18.2945 39.3457 18.9343 38.707 19.4404 38.1387C19.8127 37.7168 20.1094 37.3535 20.2665 37.1191C20.1385 37.0078 20.0047 36.8965 19.8767 36.7734C18.9343 35.918 18.0792 34.8574 17.3055 33.6269C16.59 32.4844 15.9443 31.1894 15.3626 29.7598C15.1066 29.6836 14.8623 29.5898 14.6296 29.4785C14.298 29.3203 13.9955 29.1387 13.7221 28.9277C12.9135 28.3066 12.3842 27.457 12.07 26.5254C11.7268 25.4824 11.6628 24.334 11.8025 23.2734C11.8781 22.7227 12.0293 22.248 12.2562 21.8496C12.4947 21.4336 12.8146 21.0937 13.2102 20.8359C13.3266 20.7598 13.4604 20.7305 13.5883 20.7422C13.3615 19.5703 13.3964 18.4512 13.4487 17.1328C13.5709 13.6934 14.4376 10.9453 17.131 8.56054C21.1914 4.96289 29.225 4.65234 33.6984 7.74609C34.3616 8.20898 34.9782 8.7539 35.5308 9.39257C37.3458 11.4902 38.9572 16.0957 38.9281 18.9316C38.9223 19.5879 38.8117 20.2559 38.5907 20.9355C38.579 21 38.5674 21.0762 38.55 21.1582C39.0444 21.4687 39.4284 21.8496 39.7076 22.2832C40.1264 22.9277 40.3068 23.666 40.266 24.4453C40.2253 25.1953 39.9694 25.9863 39.504 26.7539C38.9688 27.6445 38.1428 28.5176 37.0491 29.2734C36.0951 31.5176 34.7571 33.7676 33.14 35.5723C32.6222 36.1523 32.0696 36.6855 31.4937 37.1602C31.9591 37.6641 32.82 38.4141 33.6402 39.123C33.7857 39.2461 33.9311 39.375 34.0765 39.5039C34.8619 39.8613 35.6297 40.1777 36.3976 40.5C39.8239 41.9121 43.3084 43.3535 45.1176 46.6582H49.9575C51.1791 46.6582 52.168 47.8066 51.9819 49.2129L49.3351 69.4453C49.1547 70.8398 48.1949 72 46.7988 72H5.20574C3.80961 72 2.84977 70.8398 2.66944 69.4453L0.0226091 49.2129C-0.163542 47.8125 0.825384 46.6582 2.047 46.6582ZM8.05617 46.6582H43.0525C41.3888 44.4375 38.5441 43.2656 35.7403 42.1055C35.1527 41.8652 34.571 41.625 34.0125 41.3789C33.5472 42.0176 32.9771 42.5742 32.3314 43.043C30.784 44.1738 28.7829 44.8242 26.7178 44.9238C24.6643 45.0234 22.5352 44.584 20.7202 43.5293C19.8127 43.0019 18.9867 42.3281 18.2886 41.5019C17.608 41.7832 16.8809 42.0527 16.1421 42.3398C13.1811 43.4766 9.91768 44.7187 8.05617 46.6582ZM25.7696 56.1914C27.4507 56.1914 28.812 57.5625 28.812 59.2559C28.812 60.9492 27.4507 62.3203 25.7696 62.3203C24.0884 62.3203 22.7272 60.9492 22.7272 59.2559C22.7272 57.5625 24.0884 56.1914 25.7696 56.1914ZM24.2513 33.9902C23.972 33.8203 23.8848 33.4512 24.0535 33.1699C24.2222 32.8887 24.5887 32.8008 24.8679 32.9707C25.3158 33.2461 25.7579 33.3926 26.1884 33.4102C26.6189 33.4277 27.0552 33.3223 27.4973 33.0879C27.7881 32.9355 28.1488 33.0527 28.3 33.3457C28.4513 33.6387 28.3349 34.0019 28.0441 34.1543C27.4158 34.4824 26.7818 34.6348 26.1419 34.6055C25.5078 34.5762 24.8737 34.3711 24.2513 33.9902ZM31.3773 24.0117C32.215 24.0117 32.8898 24.6973 32.8898 25.5352C32.8898 26.3789 32.2092 27.0586 31.3773 27.0586C30.5455 27.0586 29.8649 26.373 29.8649 25.5352C29.8591 24.6914 30.5397 24.0117 31.3773 24.0117ZM20.9646 24.0117C21.8022 24.0117 22.477 24.6973 22.477 25.5352C22.477 26.3789 21.7964 27.0586 20.9646 27.0586C20.1269 27.0586 19.4521 26.373 19.4521 25.5352C19.4521 24.6914 20.1269 24.0117 20.9646 24.0117ZM13.8908 21.8789L13.8792 21.8848C13.6523 22.0312 13.472 22.2246 13.3324 22.4707C13.1811 22.7344 13.0822 23.0566 13.0299 23.4434C12.9135 24.3281 12.9659 25.2832 13.2451 26.1387C13.4778 26.8477 13.8792 27.4863 14.4725 27.9492C14.682 28.1133 14.9088 28.248 15.1532 28.3652C15.4033 28.4824 15.6709 28.5762 15.9618 28.6465C16.1654 28.6934 16.3166 28.8398 16.3922 29.0215C16.9798 30.498 17.6255 31.8223 18.3468 32.9766C19.0565 34.1133 19.8418 35.0801 20.7028 35.8652C21.6219 36.7031 22.5294 37.2891 23.4194 37.6641C25.054 38.3555 26.6247 38.3144 28.0848 37.7695C29.5856 37.2129 30.9818 36.123 32.215 34.7461C33.774 33.0059 35.0596 30.8144 35.9729 28.6289C36.0311 28.4941 36.13 28.3887 36.2464 28.3242C37.2411 27.6562 37.9741 26.8945 38.4394 26.1211C38.7943 25.5352 38.9863 24.9434 39.0212 24.3926C39.0502 23.8711 38.9339 23.3848 38.6663 22.9746C38.5209 22.7578 38.3405 22.5527 38.1079 22.3769C37.6425 23.4375 36.863 24.8379 35.8566 26.2266V19.8633C32.9596 18.5098 31.069 15.5449 30.1034 11.0801C28.9458 19.5762 18.5911 19.207 15.985 20.7598V25.7168C15.4906 25.0195 15.0485 24.3047 14.6471 23.584C14.3213 22.9805 14.0712 22.418 13.8908 21.8789ZM21.2089 37.8398C20.9936 38.1562 20.6853 38.5371 20.3247 38.9414C20.0222 39.2812 19.6731 39.6445 19.3066 39.9961C19.9349 40.8516 20.7144 41.5254 21.5812 42.0293C23.0995 42.9082 24.897 43.2773 26.6363 43.1953C28.3699 43.1074 30.0336 42.5742 31.3134 41.6367C31.93 41.1855 32.4535 40.6406 32.8433 40.0195C31.9707 39.2637 31.0574 38.4609 30.528 37.8809C29.8823 38.3144 29.2075 38.6719 28.5037 38.9297C26.7585 39.5801 24.8795 39.6269 22.9308 38.8008C22.3665 38.5605 21.7906 38.2441 21.2089 37.8398Z" fill="url(#paint0_linear_513_1571)"/>
<defs>
<linearGradient id="paint0_linear_513_1571" x1="26.0023" y1="0.00219727" x2="26.0023" y2="72" gradientUnits="userSpaceOnUse">
<stop offset="0.9999" stop-color="#54157E"/>
<stop offset="1" stop-color="#9C0AE6"/>
</linearGradient>
</defs>
</svg>
