<svg width="51" height="50" viewBox="0 0 51 50" fill="none" xmlns="http://www.w3.org/2000/svg">
<path fill-rule="evenodd" clip-rule="evenodd" d="M25.0298 0C38.827 0 50.0298 11.1878 50.0298 25C50.0298 38.7972 38.842 50 25.0298 50C11.2325 50 0.0297852 38.8122 0.0297852 25C0.0297852 11.2028 11.2175 0 25.0298 0ZM38.5271 16.6167C37.5373 17.0666 36.4725 17.3515 35.3477 17.4865C36.4875 16.7966 37.3723 15.7169 37.7772 14.4271C36.7124 15.057 35.5127 15.5219 34.2679 15.7768C33.2481 14.6971 31.8234 14.0372 30.2187 14.0372C27.1594 14.0372 24.6849 16.5117 24.6849 19.5711C24.6849 20.006 24.7298 20.4259 24.8198 20.8308C20.2157 20.5909 16.1366 18.4013 13.4071 15.042C12.9122 15.8818 12.6573 16.8416 12.6573 17.8314C12.6573 19.7511 13.6321 21.4457 15.1168 22.4355C14.202 22.4055 13.3621 22.1506 12.6123 21.7457V21.8206C12.6123 24.5051 14.5169 26.7397 17.0514 27.2495C16.5865 27.3695 16.0916 27.4445 15.5967 27.4445C15.2367 27.4445 14.8918 27.4145 14.5469 27.3395C15.2517 29.5441 17.2913 31.1338 19.7208 31.1938C17.8162 32.6785 15.4467 33.5633 12.8372 33.5633C12.3873 33.5633 11.9524 33.5333 11.5175 33.4883C13.977 35.063 16.8864 35.9778 20.0058 35.9778C30.1888 35.9778 35.7676 27.5345 35.7676 20.216C35.7676 19.976 35.7676 19.7361 35.7526 19.4961C36.8324 18.7163 37.7772 17.7415 38.5121 16.6317L38.5271 16.6167Z" fill="white"/>
</svg>
