<svg width="123" height="123" viewBox="0 0 123 123" fill="none" xmlns="http://www.w3.org/2000/svg">
<g filter="url(#filter0_d_575_2785)">
<circle cx="56.5" cy="57.5" r="54.5" fill="#F6EDF6"/>
</g>
<path d="M57.0552 38.5035C46.4395 38.5035 37.8067 47.1339 37.8027 57.7416C37.8011 61.3765 38.8181 64.9164 40.745 67.9801L41.2036 68.7079L39.2583 75.8069L46.5426 73.8967L47.2456 74.3137C50.1999 76.0665 53.5872 76.994 57.0408 76.9956H57.048C67.6556 76.9956 76.2884 68.3644 76.2932 57.7568C76.2948 52.6159 74.2952 47.7826 70.6618 44.1461C67.0277 40.5095 62.196 38.5059 57.0552 38.5035ZM68.3762 66.0117C67.8945 67.3626 65.5322 68.6656 64.4712 68.7615C63.4103 68.8581 62.4157 69.2416 57.5289 67.3139C51.6491 64.9947 47.9358 58.9671 47.6466 58.5812C47.3574 58.1946 45.2843 55.444 45.2843 52.5975C45.2843 49.7511 46.779 48.3514 47.3095 47.773C47.8392 47.1939 48.4663 47.0493 48.8522 47.0493C49.2372 47.0493 49.6239 47.0485 49.961 47.0628C50.3733 47.0796 50.8294 47.0988 51.2632 48.0622C51.7777 49.2063 52.9017 52.0671 53.0471 52.3563C53.1917 52.6455 53.2884 52.9834 53.0951 53.3701C52.9025 53.7559 52.8059 53.9972 52.5175 54.3351C52.2283 54.673 51.9095 55.0893 51.6491 55.3481C51.3591 55.6365 51.0579 55.9497 51.395 56.5281C51.733 57.1073 52.8937 59.0014 54.6138 60.5345C56.8243 62.5054 58.6873 63.1157 59.2665 63.4057C59.8449 63.6949 60.1828 63.647 60.5199 63.2603C60.8579 62.8744 61.9659 61.5715 62.351 60.9931C62.7369 60.4139 63.1227 60.5105 63.6532 60.7031C64.1836 60.8964 67.0277 62.296 67.6061 62.5852C68.1845 62.8744 68.5703 63.019 68.7149 63.2603C68.8579 63.5032 68.8579 64.6608 68.3762 66.0117Z" fill="url(#paint0_linear_575_2785)"/>
<path d="M56.95 22C37.0952 22 21 38.0952 21 57.95C21 77.8048 37.0952 93.9 56.95 93.9C76.8048 93.9 92.9 77.8048 92.9 57.95C92.9 38.0952 76.8048 22 56.95 22ZM57.0475 80.9053H57.0379C53.1625 80.9037 49.3558 79.9314 45.9733 78.0876L33.6983 81.3063L36.9834 69.3126C34.9574 65.8023 33.8917 61.8198 33.8925 57.7407C33.8981 44.9784 44.2844 34.5945 57.0475 34.5945C63.2412 34.5969 69.054 37.0079 73.4263 41.3826C77.7978 45.7574 80.2041 51.5733 80.2017 57.7583C80.1961 70.5205 69.8081 80.9053 57.0475 80.9053Z" fill="url(#paint1_linear_575_2785)"/>
<defs>
<filter id="filter0_d_575_2785" x="0" y="0" width="123" height="123" filterUnits="userSpaceOnUse" color-interpolation-filters="sRGB">
<feFlood flood-opacity="0" result="BackgroundImageFix"/>
<feColorMatrix in="SourceAlpha" type="matrix" values="0 0 0 0 0 0 0 0 0 0 0 0 0 0 0 0 0 0 127 0" result="hardAlpha"/>
<feMorphology radius="3" operator="dilate" in="SourceAlpha" result="effect1_dropShadow_575_2785"/>
<feOffset dx="5" dy="4"/>
<feGaussianBlur stdDeviation="2"/>
<feComposite in2="hardAlpha" operator="out"/>
<feColorMatrix type="matrix" values="0 0 0 0 0 0 0 0 0 0 0 0 0 0 0 0 0 0 0.2 0"/>
<feBlend mode="normal" in2="BackgroundImageFix" result="effect1_dropShadow_575_2785"/>
<feBlend mode="normal" in="SourceGraphic" in2="effect1_dropShadow_575_2785" result="shape"/>
</filter>
<linearGradient id="paint0_linear_575_2785" x1="57.048" y1="38.5035" x2="57.048" y2="76.9956" gradientUnits="userSpaceOnUse">
<stop offset="0.9999" stop-color="#54157E"/>
<stop offset="1" stop-color="#9C0AE6"/>
</linearGradient>
<linearGradient id="paint1_linear_575_2785" x1="56.95" y1="22" x2="56.95" y2="93.9" gradientUnits="userSpaceOnUse">
<stop offset="0.9999" stop-color="#54157E"/>
<stop offset="1" stop-color="#9C0AE6"/>
</linearGradient>
</defs>
</svg>
