<svg width="51" height="51" viewBox="0 0 51 51" fill="none" xmlns="http://www.w3.org/2000/svg">
<path fill-rule="evenodd" clip-rule="evenodd" d="M25.0226 0C38.824 0 50.0301 11.1911 50.0301 25.0075C50.0301 38.8089 38.839 50.015 25.0226 50.015C11.2213 50.015 0.0151367 38.8239 0.0151367 25.0075C0.0151367 11.2061 11.2063 0 25.0226 0ZM38.719 19.4119C38.719 19.4119 38.449 17.4767 37.6089 16.6367C36.5438 15.5266 35.3437 15.5116 34.8036 15.4515C30.8882 15.1665 25.0226 15.1665 25.0226 15.1665H25.0076C25.0076 15.1665 19.127 15.1665 15.2267 15.4515C14.6866 15.5116 13.4865 15.5266 12.4214 16.6367C11.5813 17.4767 11.3113 19.4119 11.3113 19.4119C11.3113 19.4119 11.0262 21.6772 11.0262 23.9424V26.0576C11.0262 28.3228 11.3113 30.5881 11.3113 30.5881C11.3113 30.5881 11.5813 32.5233 12.4214 33.3633C13.4865 34.4734 14.8816 34.4434 15.5117 34.5635C17.7469 34.7735 25.0226 34.8485 25.0226 34.8485C25.0226 34.8485 30.9032 34.8335 34.8186 34.5635C35.3587 34.5035 36.5588 34.4884 37.6239 33.3783C38.464 32.5383 38.734 30.6031 38.734 30.6031C38.734 30.6031 39.019 28.3378 39.019 26.0726V23.9574C39.019 21.6922 38.734 19.4269 38.734 19.4269L38.719 19.4119ZM22.1123 28.6379V20.7771L29.6731 24.7225L22.1123 28.6379Z" fill="white"/>
</svg>
